<?xml version="1.0" encoding="utf-8" standalone="no"?>
<!DOCTYPE svg PUBLIC "-//W3C//DTD SVG 1.1//EN"
  "http://www.w3.org/Graphics/SVG/1.1/DTD/svg11.dtd">
<svg height="732.24pt" version="1.1" viewBox="0 0 1382.4 732.24" width="1382.4pt" xmlns="http://www.w3.org/2000/svg" xmlns:xlink="http://www.w3.org/1999/xlink">
 <metadata>
  <rdf:RDF xmlns:cc="http://creativecommons.org/ns#" xmlns:dc="http://purl.org/dc/elements/1.1/" xmlns:rdf="http://www.w3.org/1999/02/22-rdf-syntax-ns#">
   <cc:Work>
    <dc:type rdf:resource="http://purl.org/dc/dcmitype/StillImage"/>
    <dc:date>2021-06-19T14:54:20.802365</dc:date>
    <dc:format>image/svg+xml</dc:format>
    <dc:creator>
     <cc:Agent>
      <dc:title>Matplotlib v3.4.2, https://matplotlib.org/</dc:title>
     </cc:Agent>
    </dc:creator>
   </cc:Work>
  </rdf:RDF>
 </metadata>
 <defs>
  <style type="text/css">*{stroke-linecap:butt;stroke-linejoin:round;}</style>
 </defs>
 <g id="figure_1">
  <g id="patch_1">
   <path d="M 0 732.24 
L 1382.4 732.24 
L 1382.4 0 
L 0 0 
z
" style="fill:#ffffff;"/>
  </g>
  <g id="axes_1">
   <g id="patch_2">
    <path d="M 172.8 651.6936 
L 1244.16 651.6936 
L 1244.16 87.8688 
L 172.8 87.8688 
z
" style="fill:#ffffff;"/>
   </g>
   <g id="matplotlib.axis_1">
    <g id="xtick_1">
     <g id="line2d_1">
      <defs>
       <path d="M 0 0 
L 0 3.5 
" id="m6f7033fc88" style="stroke:#000000;stroke-width:0.8;"/>
      </defs>
      <g>
       <use style="stroke:#000000;stroke-width:0.8;" x="221.498182" xlink:href="#m6f7033fc88" y="651.6936"/>
      </g>
     </g>
     <g id="text_1">
      <!-- 0 -->
      <g transform="translate(218.316932 666.292037)scale(0.1 -0.1)">
       <defs>
        <path d="M 2034 4250 
Q 1547 4250 1301 3770 
Q 1056 3291 1056 2328 
Q 1056 1369 1301 889 
Q 1547 409 2034 409 
Q 2525 409 2770 889 
Q 3016 1369 3016 2328 
Q 3016 3291 2770 3770 
Q 2525 4250 2034 4250 
z
M 2034 4750 
Q 2819 4750 3233 4129 
Q 3647 3509 3647 2328 
Q 3647 1150 3233 529 
Q 2819 -91 2034 -91 
Q 1250 -91 836 529 
Q 422 1150 422 2328 
Q 422 3509 836 4129 
Q 1250 4750 2034 4750 
z
" id="DejaVuSans-30" transform="scale(0.015625)"/>
       </defs>
       <use xlink:href="#DejaVuSans-30"/>
      </g>
     </g>
    </g>
    <g id="xtick_2">
     <g id="line2d_2">
      <g>
       <use style="stroke:#000000;stroke-width:0.8;" x="416.485897" xlink:href="#m6f7033fc88" y="651.6936"/>
      </g>
     </g>
     <g id="text_2">
      <!-- 200 -->
      <g transform="translate(406.942147 666.292037)scale(0.1 -0.1)">
       <defs>
        <path d="M 1228 531 
L 3431 531 
L 3431 0 
L 469 0 
L 469 531 
Q 828 903 1448 1529 
Q 2069 2156 2228 2338 
Q 2531 2678 2651 2914 
Q 2772 3150 2772 3378 
Q 2772 3750 2511 3984 
Q 2250 4219 1831 4219 
Q 1534 4219 1204 4116 
Q 875 4013 500 3803 
L 500 4441 
Q 881 4594 1212 4672 
Q 1544 4750 1819 4750 
Q 2544 4750 2975 4387 
Q 3406 4025 3406 3419 
Q 3406 3131 3298 2873 
Q 3191 2616 2906 2266 
Q 2828 2175 2409 1742 
Q 1991 1309 1228 531 
z
" id="DejaVuSans-32" transform="scale(0.015625)"/>
       </defs>
       <use xlink:href="#DejaVuSans-32"/>
       <use x="63.623047" xlink:href="#DejaVuSans-30"/>
       <use x="127.246094" xlink:href="#DejaVuSans-30"/>
      </g>
     </g>
    </g>
    <g id="xtick_3">
     <g id="line2d_3">
      <g>
       <use style="stroke:#000000;stroke-width:0.8;" x="611.473612" xlink:href="#m6f7033fc88" y="651.6936"/>
      </g>
     </g>
     <g id="text_3">
      <!-- 400 -->
      <g transform="translate(601.929862 666.292037)scale(0.1 -0.1)">
       <defs>
        <path d="M 2419 4116 
L 825 1625 
L 2419 1625 
L 2419 4116 
z
M 2253 4666 
L 3047 4666 
L 3047 1625 
L 3713 1625 
L 3713 1100 
L 3047 1100 
L 3047 0 
L 2419 0 
L 2419 1100 
L 313 1100 
L 313 1709 
L 2253 4666 
z
" id="DejaVuSans-34" transform="scale(0.015625)"/>
       </defs>
       <use xlink:href="#DejaVuSans-34"/>
       <use x="63.623047" xlink:href="#DejaVuSans-30"/>
       <use x="127.246094" xlink:href="#DejaVuSans-30"/>
      </g>
     </g>
    </g>
    <g id="xtick_4">
     <g id="line2d_4">
      <g>
       <use style="stroke:#000000;stroke-width:0.8;" x="806.461327" xlink:href="#m6f7033fc88" y="651.6936"/>
      </g>
     </g>
     <g id="text_4">
      <!-- 600 -->
      <g transform="translate(796.917577 666.292037)scale(0.1 -0.1)">
       <defs>
        <path d="M 2113 2584 
Q 1688 2584 1439 2293 
Q 1191 2003 1191 1497 
Q 1191 994 1439 701 
Q 1688 409 2113 409 
Q 2538 409 2786 701 
Q 3034 994 3034 1497 
Q 3034 2003 2786 2293 
Q 2538 2584 2113 2584 
z
M 3366 4563 
L 3366 3988 
Q 3128 4100 2886 4159 
Q 2644 4219 2406 4219 
Q 1781 4219 1451 3797 
Q 1122 3375 1075 2522 
Q 1259 2794 1537 2939 
Q 1816 3084 2150 3084 
Q 2853 3084 3261 2657 
Q 3669 2231 3669 1497 
Q 3669 778 3244 343 
Q 2819 -91 2113 -91 
Q 1303 -91 875 529 
Q 447 1150 447 2328 
Q 447 3434 972 4092 
Q 1497 4750 2381 4750 
Q 2619 4750 2861 4703 
Q 3103 4656 3366 4563 
z
" id="DejaVuSans-36" transform="scale(0.015625)"/>
       </defs>
       <use xlink:href="#DejaVuSans-36"/>
       <use x="63.623047" xlink:href="#DejaVuSans-30"/>
       <use x="127.246094" xlink:href="#DejaVuSans-30"/>
      </g>
     </g>
    </g>
    <g id="xtick_5">
     <g id="line2d_5">
      <g>
       <use style="stroke:#000000;stroke-width:0.8;" x="1001.449042" xlink:href="#m6f7033fc88" y="651.6936"/>
      </g>
     </g>
     <g id="text_5">
      <!-- 800 -->
      <g transform="translate(991.905292 666.292037)scale(0.1 -0.1)">
       <defs>
        <path d="M 2034 2216 
Q 1584 2216 1326 1975 
Q 1069 1734 1069 1313 
Q 1069 891 1326 650 
Q 1584 409 2034 409 
Q 2484 409 2743 651 
Q 3003 894 3003 1313 
Q 3003 1734 2745 1975 
Q 2488 2216 2034 2216 
z
M 1403 2484 
Q 997 2584 770 2862 
Q 544 3141 544 3541 
Q 544 4100 942 4425 
Q 1341 4750 2034 4750 
Q 2731 4750 3128 4425 
Q 3525 4100 3525 3541 
Q 3525 3141 3298 2862 
Q 3072 2584 2669 2484 
Q 3125 2378 3379 2068 
Q 3634 1759 3634 1313 
Q 3634 634 3220 271 
Q 2806 -91 2034 -91 
Q 1263 -91 848 271 
Q 434 634 434 1313 
Q 434 1759 690 2068 
Q 947 2378 1403 2484 
z
M 1172 3481 
Q 1172 3119 1398 2916 
Q 1625 2713 2034 2713 
Q 2441 2713 2670 2916 
Q 2900 3119 2900 3481 
Q 2900 3844 2670 4047 
Q 2441 4250 2034 4250 
Q 1625 4250 1398 4047 
Q 1172 3844 1172 3481 
z
" id="DejaVuSans-38" transform="scale(0.015625)"/>
       </defs>
       <use xlink:href="#DejaVuSans-38"/>
       <use x="63.623047" xlink:href="#DejaVuSans-30"/>
       <use x="127.246094" xlink:href="#DejaVuSans-30"/>
      </g>
     </g>
    </g>
    <g id="xtick_6">
     <g id="line2d_6">
      <g>
       <use style="stroke:#000000;stroke-width:0.8;" x="1196.436757" xlink:href="#m6f7033fc88" y="651.6936"/>
      </g>
     </g>
     <g id="text_6">
      <!-- 1000 -->
      <g transform="translate(1183.711757 666.292037)scale(0.1 -0.1)">
       <defs>
        <path d="M 794 531 
L 1825 531 
L 1825 4091 
L 703 3866 
L 703 4441 
L 1819 4666 
L 2450 4666 
L 2450 531 
L 3481 531 
L 3481 0 
L 794 0 
L 794 531 
z
" id="DejaVuSans-31" transform="scale(0.015625)"/>
       </defs>
       <use xlink:href="#DejaVuSans-31"/>
       <use x="63.623047" xlink:href="#DejaVuSans-30"/>
       <use x="127.246094" xlink:href="#DejaVuSans-30"/>
       <use x="190.869141" xlink:href="#DejaVuSans-30"/>
      </g>
     </g>
    </g>
    <g id="text_7">
     <!-- X Axis -->
     <g transform="translate(693.0925 679.970163)scale(0.1 -0.1)">
      <defs>
       <path d="M 403 4666 
L 1081 4666 
L 2241 2931 
L 3406 4666 
L 4084 4666 
L 2584 2425 
L 4184 0 
L 3506 0 
L 2194 1984 
L 872 0 
L 191 0 
L 1856 2491 
L 403 4666 
z
" id="DejaVuSans-58" transform="scale(0.015625)"/>
       <path id="DejaVuSans-20" transform="scale(0.015625)"/>
       <path d="M 2188 4044 
L 1331 1722 
L 3047 1722 
L 2188 4044 
z
M 1831 4666 
L 2547 4666 
L 4325 0 
L 3669 0 
L 3244 1197 
L 1141 1197 
L 716 0 
L 50 0 
L 1831 4666 
z
" id="DejaVuSans-41" transform="scale(0.015625)"/>
       <path d="M 3513 3500 
L 2247 1797 
L 3578 0 
L 2900 0 
L 1881 1375 
L 863 0 
L 184 0 
L 1544 1831 
L 300 3500 
L 978 3500 
L 1906 2253 
L 2834 3500 
L 3513 3500 
z
" id="DejaVuSans-78" transform="scale(0.015625)"/>
       <path d="M 603 3500 
L 1178 3500 
L 1178 0 
L 603 0 
L 603 3500 
z
M 603 4863 
L 1178 4863 
L 1178 4134 
L 603 4134 
L 603 4863 
z
" id="DejaVuSans-69" transform="scale(0.015625)"/>
       <path d="M 2834 3397 
L 2834 2853 
Q 2591 2978 2328 3040 
Q 2066 3103 1784 3103 
Q 1356 3103 1142 2972 
Q 928 2841 928 2578 
Q 928 2378 1081 2264 
Q 1234 2150 1697 2047 
L 1894 2003 
Q 2506 1872 2764 1633 
Q 3022 1394 3022 966 
Q 3022 478 2636 193 
Q 2250 -91 1575 -91 
Q 1294 -91 989 -36 
Q 684 19 347 128 
L 347 722 
Q 666 556 975 473 
Q 1284 391 1588 391 
Q 1994 391 2212 530 
Q 2431 669 2431 922 
Q 2431 1156 2273 1281 
Q 2116 1406 1581 1522 
L 1381 1569 
Q 847 1681 609 1914 
Q 372 2147 372 2553 
Q 372 3047 722 3315 
Q 1072 3584 1716 3584 
Q 2034 3584 2315 3537 
Q 2597 3491 2834 3397 
z
" id="DejaVuSans-73" transform="scale(0.015625)"/>
      </defs>
      <use xlink:href="#DejaVuSans-58"/>
      <use x="68.505859" xlink:href="#DejaVuSans-20"/>
      <use x="100.292969" xlink:href="#DejaVuSans-41"/>
      <use x="168.701172" xlink:href="#DejaVuSans-78"/>
      <use x="227.880859" xlink:href="#DejaVuSans-69"/>
      <use x="255.664062" xlink:href="#DejaVuSans-73"/>
     </g>
    </g>
   </g>
   <g id="matplotlib.axis_2">
    <g id="ytick_1">
     <g id="line2d_7">
      <defs>
       <path d="M 0 0 
L -3.5 0 
" id="m75aa25cba0" style="stroke:#000000;stroke-width:0.8;"/>
      </defs>
      <g>
       <use style="stroke:#000000;stroke-width:0.8;" x="172.8" xlink:href="#m75aa25cba0" y="626.0652"/>
      </g>
     </g>
     <g id="text_8">
      <!-- 0 -->
      <g transform="translate(159.4375 629.864419)scale(0.1 -0.1)">
       <use xlink:href="#DejaVuSans-30"/>
      </g>
     </g>
    </g>
    <g id="ytick_2">
     <g id="line2d_8">
      <g>
       <use style="stroke:#000000;stroke-width:0.8;" x="172.8" xlink:href="#m75aa25cba0" y="561.930065"/>
      </g>
     </g>
     <g id="text_9">
      <!-- 250 -->
      <g transform="translate(146.7125 565.729284)scale(0.1 -0.1)">
       <defs>
        <path d="M 691 4666 
L 3169 4666 
L 3169 4134 
L 1269 4134 
L 1269 2991 
Q 1406 3038 1543 3061 
Q 1681 3084 1819 3084 
Q 2600 3084 3056 2656 
Q 3513 2228 3513 1497 
Q 3513 744 3044 326 
Q 2575 -91 1722 -91 
Q 1428 -91 1123 -41 
Q 819 9 494 109 
L 494 744 
Q 775 591 1075 516 
Q 1375 441 1709 441 
Q 2250 441 2565 725 
Q 2881 1009 2881 1497 
Q 2881 1984 2565 2268 
Q 2250 2553 1709 2553 
Q 1456 2553 1204 2497 
Q 953 2441 691 2322 
L 691 4666 
z
" id="DejaVuSans-35" transform="scale(0.015625)"/>
       </defs>
       <use xlink:href="#DejaVuSans-32"/>
       <use x="63.623047" xlink:href="#DejaVuSans-35"/>
       <use x="127.246094" xlink:href="#DejaVuSans-30"/>
      </g>
     </g>
    </g>
    <g id="ytick_3">
     <g id="line2d_9">
      <g>
       <use style="stroke:#000000;stroke-width:0.8;" x="172.8" xlink:href="#m75aa25cba0" y="497.79493"/>
      </g>
     </g>
     <g id="text_10">
      <!-- 500 -->
      <g transform="translate(146.7125 501.594148)scale(0.1 -0.1)">
       <use xlink:href="#DejaVuSans-35"/>
       <use x="63.623047" xlink:href="#DejaVuSans-30"/>
       <use x="127.246094" xlink:href="#DejaVuSans-30"/>
      </g>
     </g>
    </g>
    <g id="ytick_4">
     <g id="line2d_10">
      <g>
       <use style="stroke:#000000;stroke-width:0.8;" x="172.8" xlink:href="#m75aa25cba0" y="433.659795"/>
      </g>
     </g>
     <g id="text_11">
      <!-- 750 -->
      <g transform="translate(146.7125 437.459013)scale(0.1 -0.1)">
       <defs>
        <path d="M 525 4666 
L 3525 4666 
L 3525 4397 
L 1831 0 
L 1172 0 
L 2766 4134 
L 525 4134 
L 525 4666 
z
" id="DejaVuSans-37" transform="scale(0.015625)"/>
       </defs>
       <use xlink:href="#DejaVuSans-37"/>
       <use x="63.623047" xlink:href="#DejaVuSans-35"/>
       <use x="127.246094" xlink:href="#DejaVuSans-30"/>
      </g>
     </g>
    </g>
    <g id="ytick_5">
     <g id="line2d_11">
      <g>
       <use style="stroke:#000000;stroke-width:0.8;" x="172.8" xlink:href="#m75aa25cba0" y="369.524659"/>
      </g>
     </g>
     <g id="text_12">
      <!-- 1000 -->
      <g transform="translate(140.35 373.323878)scale(0.1 -0.1)">
       <use xlink:href="#DejaVuSans-31"/>
       <use x="63.623047" xlink:href="#DejaVuSans-30"/>
       <use x="127.246094" xlink:href="#DejaVuSans-30"/>
       <use x="190.869141" xlink:href="#DejaVuSans-30"/>
      </g>
     </g>
    </g>
    <g id="ytick_6">
     <g id="line2d_12">
      <g>
       <use style="stroke:#000000;stroke-width:0.8;" x="172.8" xlink:href="#m75aa25cba0" y="305.389524"/>
      </g>
     </g>
     <g id="text_13">
      <!-- 1250 -->
      <g transform="translate(140.35 309.188743)scale(0.1 -0.1)">
       <use xlink:href="#DejaVuSans-31"/>
       <use x="63.623047" xlink:href="#DejaVuSans-32"/>
       <use x="127.246094" xlink:href="#DejaVuSans-35"/>
       <use x="190.869141" xlink:href="#DejaVuSans-30"/>
      </g>
     </g>
    </g>
    <g id="ytick_7">
     <g id="line2d_13">
      <g>
       <use style="stroke:#000000;stroke-width:0.8;" x="172.8" xlink:href="#m75aa25cba0" y="241.254389"/>
      </g>
     </g>
     <g id="text_14">
      <!-- 1500 -->
      <g transform="translate(140.35 245.053608)scale(0.1 -0.1)">
       <use xlink:href="#DejaVuSans-31"/>
       <use x="63.623047" xlink:href="#DejaVuSans-35"/>
       <use x="127.246094" xlink:href="#DejaVuSans-30"/>
       <use x="190.869141" xlink:href="#DejaVuSans-30"/>
      </g>
     </g>
    </g>
    <g id="ytick_8">
     <g id="line2d_14">
      <g>
       <use style="stroke:#000000;stroke-width:0.8;" x="172.8" xlink:href="#m75aa25cba0" y="177.119254"/>
      </g>
     </g>
     <g id="text_15">
      <!-- 1750 -->
      <g transform="translate(140.35 180.918473)scale(0.1 -0.1)">
       <use xlink:href="#DejaVuSans-31"/>
       <use x="63.623047" xlink:href="#DejaVuSans-37"/>
       <use x="127.246094" xlink:href="#DejaVuSans-35"/>
       <use x="190.869141" xlink:href="#DejaVuSans-30"/>
      </g>
     </g>
    </g>
    <g id="ytick_9">
     <g id="line2d_15">
      <g>
       <use style="stroke:#000000;stroke-width:0.8;" x="172.8" xlink:href="#m75aa25cba0" y="112.984119"/>
      </g>
     </g>
     <g id="text_16">
      <!-- 2000 -->
      <g transform="translate(140.35 116.783338)scale(0.1 -0.1)">
       <use xlink:href="#DejaVuSans-32"/>
       <use x="63.623047" xlink:href="#DejaVuSans-30"/>
       <use x="127.246094" xlink:href="#DejaVuSans-30"/>
       <use x="190.869141" xlink:href="#DejaVuSans-30"/>
      </g>
     </g>
    </g>
    <g id="text_17">
     <!-- Y Axis -->
     <g transform="translate(134.270312 384.797606)rotate(-90)scale(0.1 -0.1)">
      <defs>
       <path d="M -13 4666 
L 666 4666 
L 1959 2747 
L 3244 4666 
L 3922 4666 
L 2272 2222 
L 2272 0 
L 1638 0 
L 1638 2222 
L -13 4666 
z
" id="DejaVuSans-59" transform="scale(0.015625)"/>
      </defs>
      <use xlink:href="#DejaVuSans-59"/>
      <use x="61.083984" xlink:href="#DejaVuSans-20"/>
      <use x="92.871094" xlink:href="#DejaVuSans-41"/>
      <use x="161.279297" xlink:href="#DejaVuSans-78"/>
      <use x="220.458984" xlink:href="#DejaVuSans-69"/>
      <use x="248.242188" xlink:href="#DejaVuSans-73"/>
     </g>
    </g>
   </g>
   <g id="line2d_16">
    <path clip-path="url(#p975a71f345)" d="M 226.372875 621.44747 
L 226.372875 568.600119 
L 230.272629 606.311578 
L 234.172383 590.149524 
L 238.072138 506.260768 
L 241.971892 609.646605 
L 248.796462 599.128443 
L 250.746339 503.695362 
L 251.721278 590.919146 
L 264.395479 610.672768 
L 271.220049 569.882822 
L 272.194988 603.746173 
L 279.019558 599.384984 
L 279.994496 573.73093 
L 282.919312 531.914822 
L 282.919312 593.228011 
L 284.869189 549.616119 
L 301.443145 498.821092 
L 313.142408 594.510714 
L 330.691302 500.360335 
L 331.666241 541.663362 
L 344.340442 569.882822 
L 356.039705 624.269416 
L 357.014644 609.646605 
L 357.989582 616.316659 
L 361.889337 544.998389 
L 365.789091 585.275254 
L 378.463292 513.187362 
L 382.363047 530.119038 
L 383.337985 602.720011 
L 388.212678 578.6052 
L 400.88688 503.695362 
L 403.811695 580.914065 
L 413.561081 520.627038 
L 418.435774 597.076119 
L 427.210221 565.265092 
L 431.109975 547.050714 
L 434.034791 523.192443 
L 436.959607 517.548551 
L 440.859361 536.789092 
L 444.759115 540.6372 
L 446.708993 507.030389 
L 453.533563 607.850822 
L 469.13258 573.73093 
L 481.806781 528.323254 
L 492.531106 584.505632 
L 498.380737 595.023795 
L 500.330614 585.531795 
L 501.305553 618.112443 
L 503.25543 611.185849 
L 504.230369 610.159686 
L 509.105061 551.155362 
L 513.004816 622.986714 
L 513.979754 605.541957 
L 522.754201 508.313092 
L 525.679017 609.903146 
L 530.55371 509.339254 
L 547.127666 549.103038 
L 561.751744 537.045632 
L 564.67656 565.778173 
L 566.626437 576.039795 
L 573.451007 577.322497 
L 580.275577 506.004227 
L 589.050025 587.327578 
L 593.924717 541.406822 
L 594.899656 611.185849 
L 596.849533 568.343578 
L 598.79941 606.824659 
L 601.724226 536.01947 
L 606.598919 626.0652 
L 607.573857 504.208443 
L 608.548796 571.935146 
L 612.44855 567.573957 
L 613.423489 564.23893 
L 615.373366 551.411903 
L 618.298182 571.422065 
L 622.197936 543.715686 
L 623.172875 540.124119 
L 626.09769 605.798497 
L 631.947322 572.704768 
L 646.5714 565.265092 
L 648.521278 503.695362 
L 659.245602 607.850822 
L 667.045111 555.260011 
L 672.894742 567.573957 
L 678.744373 583.736011 
L 678.744373 616.829741 
L 681.669189 530.375578 
L 685.568943 610.416227 
L 691.418575 519.344335 
L 692.393514 500.873416 
L 694.343391 509.595795 
L 705.067715 501.899578 
L 707.992531 570.908984 
L 713.842162 573.474389 
L 714.817101 580.657524 
L 720.666732 546.281092 
L 722.616609 500.616876 
L 746.015135 602.20693 
L 746.015135 593.997632 
L 748.939951 607.0812 
L 758.689337 577.322497 
L 763.564029 553.207686 
L 769.413661 534.480227 
L 774.288354 527.297092 
L 776.238231 597.5892 
L 776.238231 545.25493 
L 786.962555 508.313092 
L 789.887371 589.379903 
L 791.837248 610.416227 
L 794.762064 625.295578 
L 797.68688 534.223686 
L 801.586634 547.307254 
L 809.386143 545.51147 
L 809.386143 542.176443 
L 818.16059 508.313092 
L 832.784668 552.438065 
L 834.734545 504.978065 
L 835.709484 536.789092 
L 837.659361 540.893741 
L 839.609238 607.850822 
L 844.483931 561.416984 
L 844.483931 518.318173 
L 846.433808 607.850822 
L 848.383686 530.119038 
L 848.383686 535.76293 
L 849.358624 517.805092 
L 854.233317 625.552119 
L 858.133071 588.0972 
L 866.907518 568.343578 
L 868.857396 614.520876 
L 869.832334 555.260011 
L 878.606781 615.547038 
L 899.080491 499.847254 
L 901.030369 509.339254 
L 915.654447 601.693849 
L 915.654447 559.877741 
L 920.52914 511.648119 
L 921.504079 530.375578 
L 927.35371 611.69893 
L 929.303587 606.568119 
L 930.278526 601.437308 
L 940.027912 529.605957 
L 942.952727 602.20693 
L 948.802359 519.087795 
L 953.677052 498.821092 
L 955.626929 585.788335 
L 957.576806 622.730173 
L 962.451499 560.903903 
L 965.376314 567.060876 
L 969.276069 552.438065 
L 972.200885 576.552876 
L 986.824963 538.071795 
L 987.799902 546.794173 
L 989.749779 569.626281 
L 1007.298673 524.218605 
L 1009.24855 562.443146 
L 1015.098182 533.967146 
L 1020.947813 507.030389 
L 1027.772383 566.547795 
L 1048.246093 617.086281 
L 1052.145848 611.69893 
L 1053.120786 604.772335 
L 1058.970418 528.323254 
L 1060.920295 522.166281 
L 1064.820049 573.73093 
L 1068.719803 506.773849 
L 1069.694742 550.385741 
L 1085.293759 589.892984 
L 1086.268698 563.469308 
L 1090.168452 561.416984 
L 1092.118329 624.269416 
L 1094.068206 557.055795 
L 1095.043145 580.914065 
L 1095.043145 608.876984 
L 1096.018084 601.180768 
L 1106.742408 528.836335 
L 1107.717346 553.464227 
L 1122.341425 559.877741 
L 1128.191057 617.855903 
L 1130.140934 498.821092 
L 1132.090811 513.443903 
L 1137.940442 547.050714 
L 1137.940442 519.857416 
L 1140.865258 574.757092 
L 1142.815135 536.01947 
L 1142.815135 591.432227 
L 1145.739951 578.6052 
L 1149.639705 523.962065 
L 1153.539459 615.033957 
L 1156.464275 572.961308 
L 1171.088354 576.039795 
L 1173.038231 587.071038 
L 1177.912924 508.313092 
L 1178.887862 522.679362 
L 1181.812678 582.709849 
L 1186.687371 578.861741 
L 1188.637248 562.443146 
L 1188.637248 562.443146 
" style="fill:none;stroke:#008000;stroke-linecap:square;stroke-opacity:0.6;stroke-width:1.5;"/>
   </g>
   <g id="line2d_17">
    <path clip-path="url(#p975a71f345)" d="M 221.498182 424.167795 
L 226.372875 466.753524 
L 228.322752 386.456335 
L 231.247568 447.769524 
L 249.7714 373.885849 
L 249.7714 405.953416 
L 251.721278 473.167038 
L 259.520786 380.042822 
L 266.345356 379.786281 
L 267.320295 425.707038 
L 267.320295 408.775362 
L 275.119803 411.340768 
L 277.069681 475.475903 
L 278.044619 479.06747 
L 280.969435 476.758605 
L 281.944373 421.345849 
L 282.919312 454.952659 
L 283.894251 404.670714 
L 284.869189 452.900335 
L 292.668698 408.518822 
L 301.443145 467.779686 
L 302.418084 422.885092 
L 304.367961 377.220876 
L 310.217592 428.528984 
L 323.866732 376.964335 
L 331.666241 446.743362 
L 334.591057 460.853092 
L 365.789091 439.047146 
L 367.738968 480.093632 
L 371.638722 423.398173 
L 378.463292 379.2732 
L 382.363047 391.843686 
L 382.363047 488.30293 
L 388.212678 473.167038 
L 399.911941 449.308768 
L 399.911941 381.068984 
L 400.88688 416.471578 
L 403.811695 434.172876 
L 447.683931 427.502822 
L 448.65887 422.628551 
L 453.533563 372.859686 
L 467.182703 437.764443 
L 473.032334 459.057308 
L 474.007273 415.188876 
L 474.982211 436.481741 
L 475.95715 396.717957 
L 476.932088 418.267362 
L 479.856904 375.425092 
L 481.806781 403.644551 
L 485.706536 496.512227 
L 504.230369 493.433741 
L 506.180246 467.523146 
L 507.155184 389.534822 
L 511.054939 456.235362 
L 511.054939 405.696876 
L 517.879509 410.058065 
L 518.854447 429.811686 
L 523.72914 470.858173 
L 534.453464 496.255686 
L 535.428403 485.224443 
L 559.801867 472.140876 
L 560.776806 417.497741 
L 560.776806 463.161957 
L 564.67656 390.304443 
L 564.67656 470.088551 
L 573.451007 391.330605 
L 573.451007 417.754281 
L 576.375823 400.309524 
L 577.350762 483.428659 
L 581.250516 497.79493 
L 590.024963 429.555146 
L 590.999902 493.946822 
L 590.999902 440.586389 
L 596.849533 430.068227 
L 600.749287 465.470822 
L 601.724226 431.094389 
L 604.649042 471.114714 
L 614.398428 469.832011 
L 616.348305 419.036984 
L 619.27312 403.901092 
L 621.222998 463.161957 
L 624.147813 445.973741 
L 625.122752 380.299362 
L 626.09769 407.492659 
L 627.072629 469.57547 
L 635.847076 454.696119 
L 638.771892 435.968659 
L 643.646585 376.707795 
L 660.220541 450.078389 
L 680.694251 481.889416 
L 681.669189 396.974497 
L 683.619066 451.874173 
L 692.393514 450.33493 
L 694.343391 471.627795 
L 700.193022 459.82693 
L 702.142899 374.39893 
L 708.967469 396.974497 
L 713.842162 374.65547 
L 713.842162 423.911254 
L 718.716855 479.580551 
L 734.315872 400.822605 
L 736.265749 430.068227 
L 746.015135 398.770281 
L 758.689337 428.272443 
L 761.614152 493.690281 
L 766.488845 468.292768 
L 770.3886 441.09947 
L 773.313415 391.074065 
L 781.112924 449.821849 
L 789.887371 456.491903 
L 792.812187 478.041308 
L 798.661818 411.340768 
L 800.611695 450.848011 
L 807.436265 477.015146 
L 807.436265 456.491903 
L 809.386143 462.392335 
L 812.310958 431.60747 
L 826.935037 496.512227 
L 832.784668 404.157632 
L 833.759607 490.355254 
L 845.45887 384.14747 
L 850.333563 372.346605 
L 853.258378 487.276768 
L 857.158133 419.806605 
L 872.75715 484.454822 
L 872.75715 472.653957 
L 886.40629 428.272443 
L 893.23086 479.06747 
L 897.130614 420.063146 
L 903.955184 419.806605 
L 919.554201 483.428659 
L 921.504079 423.911254 
L 935.153219 489.329092 
L 943.927666 482.402497 
L 945.877543 439.816768 
L 948.802359 403.13147 
L 956.601867 437.507903 
L 960.501622 405.696876 
L 965.376314 478.041308 
L 973.175823 380.042822 
L 981.95027 381.325524 
L 984.875086 416.728119 
L 991.699656 435.199038 
L 998.524226 431.35093 
L 1003.398919 494.203362 
L 1008.273612 394.922173 
L 1011.198428 430.837849 
L 1017.048059 411.084227 
L 1020.947813 459.057308 
L 1024.847568 398.513741 
L 1030.697199 476.758605 
L 1030.697199 447.256443 
L 1031.672138 378.503578 
L 1035.571892 444.177957 
L 1038.496708 463.931578 
L 1039.471646 473.936659 
L 1043.3714 482.915578 
L 1046.296216 477.271686 
L 1054.095725 386.712876 
L 1057.995479 414.932335 
L 1058.970418 390.047903 
L 1060.920295 452.643795 
L 1063.845111 461.109632 
L 1073.594496 497.025308 
L 1073.594496 436.2252 
L 1080.419066 474.449741 
L 1080.419066 434.685957 
L 1082.368943 497.538389 
L 1090.168452 410.314605 
L 1091.143391 405.440335 
L 1092.118329 488.046389 
L 1092.118329 383.634389 
L 1094.068206 493.690281 
L 1099.917838 480.350173 
L 1099.917838 420.319686 
L 1100.892776 434.685957 
L 1113.566978 417.2412 
L 1117.466732 454.183038 
L 1121.366486 426.989741 
L 1124.291302 389.791362 
L 1132.090811 456.235362 
L 1134.040688 471.371254 
L 1136.965504 410.314605 
L 1138.915381 378.247038 
L 1140.865258 486.507146 
L 1143.790074 452.900335 
L 1150.614644 394.922173 
L 1151.589582 394.152551 
L 1156.464275 404.927254 
L 1160.364029 477.271686 
L 1163.288845 450.078389 
L 1167.1886 432.120551 
L 1167.1886 485.994065 
L 1173.038231 444.177957 
L 1176.937985 447.512984 
L 1177.912924 434.942497 
L 1177.912924 484.454822 
L 1188.637248 460.853092 
L 1189.612187 392.613308 
L 1189.612187 468.036227 
L 1189.612187 468.036227 
" style="fill:none;stroke:#bf00bf;stroke-linecap:square;stroke-opacity:0.6;stroke-width:1.5;"/>
   </g>
   <g id="line2d_18">
    <path clip-path="url(#p975a71f345)" d="M 230.272629 261.521092 
L 241.971892 286.918605 
L 252.696216 293.332119 
L 254.646093 273.065416 
L 258.545848 274.348119 
L 258.545848 356.184551 
L 260.495725 297.693308 
L 261.470663 301.797957 
L 272.194988 361.315362 
L 283.894251 350.027578 
L 285.844128 252.285632 
L 289.743882 367.985416 
L 291.693759 344.383686 
L 296.568452 294.871362 
L 298.518329 256.390281 
L 319.966978 283.840119 
L 328.741425 299.745632 
L 328.741425 337.713632 
L 330.691302 292.562497 
L 331.666241 349.514497 
L 333.616118 256.390281 
L 357.014644 335.148227 
L 368.713907 355.67147 
L 370.663784 276.400443 
L 371.638722 318.473092 
L 373.5886 355.41493 
L 378.463292 246.898281 
L 381.388108 273.065416 
L 382.363047 266.651903 
L 382.363047 349.001416 
L 385.287862 355.928011 
L 386.262801 366.702714 
L 390.162555 267.934605 
L 392.112432 314.624984 
L 394.06231 340.279038 
L 396.987125 293.332119 
L 396.987125 277.939686 
L 412.586143 257.416443 
L 414.53602 319.499254 
L 416.485897 326.425849 
L 424.285405 356.697632 
L 430.135037 340.535578 
L 434.034791 364.90693 
L 439.884423 355.928011 
L 443.784177 285.379362 
L 445.734054 325.656227 
L 445.734054 308.724551 
L 460.358133 349.771038 
L 464.257887 284.096659 
L 470.107518 251.772551 
L 473.032334 273.321957 
L 475.95715 270.24347 
L 477.907027 333.608984 
L 499.355676 340.792119 
L 504.230369 358.236876 
L 509.105061 289.997092 
L 511.054939 365.420011 
L 523.72914 288.714389 
L 524.704079 324.886605 
L 540.303096 364.393849 
L 549.077543 283.327038 
L 549.077543 255.620659 
L 552.002359 291.279795 
L 552.977297 298.206389 
L 552.977297 363.624227 
L 560.776806 316.933849 
L 561.751744 321.038497 
L 563.701622 335.661308 
L 563.701622 349.514497 
L 569.551253 366.446173 
L 575.400885 353.619146 
L 590.999902 242.537092 
L 595.874595 257.416443 
L 597.824472 337.970173 
L 598.79941 258.186065 
L 602.699165 339.509416 
L 606.598919 266.395362 
L 617.323243 279.222389 
L 617.323243 271.782714 
L 621.222998 330.787038 
L 626.09769 351.310281 
L 638.771892 277.939686 
L 654.370909 287.175146 
L 659.245602 349.514497 
L 672.894742 346.17947 
L 677.769435 304.106822 
L 685.568943 268.191146 
L 689.468698 311.289957 
L 689.468698 358.749957 
L 689.468698 320.525416 
L 694.343391 276.143903 
L 702.142899 344.127146 
L 706.042654 267.164984 
L 707.992531 286.148984 
L 708.967469 262.547254 
L 715.792039 277.683146 
L 715.792039 251.516011 
L 716.766978 277.683146 
L 717.741916 352.079903 
L 723.591548 266.395362 
L 723.591548 326.682389 
L 733.340934 318.216551 
L 736.265749 276.656984 
L 740.165504 249.976768 
L 741.140442 362.341524 
L 748.939951 275.630822 
L 750.889828 265.882281 
L 756.739459 262.803795 
L 757.714398 265.625741 
L 760.639214 335.148227 
L 761.614152 316.933849 
L 762.589091 368.241957 
L 765.513907 267.421524 
L 768.438722 247.924443 
L 770.3886 250.233308 
L 777.21317 242.024011 
L 785.012678 284.096659 
L 786.962555 305.389524 
L 799.636757 341.818281 
L 821.085405 353.362605 
L 829.859853 261.777632 
L 842.534054 360.802281 
L 842.534054 348.744876 
L 843.508993 255.364119 
L 866.907518 335.917849 
L 868.857396 322.834281 
L 871.782211 284.866281 
L 876.656904 341.818281 
L 889.331106 285.379362 
L 892.255921 341.048659 
L 903.955184 253.055254 
L 909.804816 329.760876 
L 910.779754 259.725308 
L 911.754693 369.268119 
L 912.729631 259.212227 
L 914.679509 241.51093 
L 914.679509 284.3532 
L 923.453956 322.064659 
L 924.428894 329.247795 
L 925.403833 361.828443 
L 935.153219 319.499254 
L 937.103096 283.583578 
L 938.078034 332.582822 
L 940.027912 299.489092 
L 941.977789 349.257957 
L 945.877543 312.059578 
L 956.601867 278.452768 
L 960.501622 314.368443 
L 965.376314 274.348119 
L 975.1257 361.315362 
L 978.050516 289.997092 
L 984.875086 327.19547 
L 987.799902 294.871362 
L 994.624472 357.467254 
L 1001.449042 366.959254 
L 1018.997936 288.457849 
L 1021.922752 318.729632 
L 1025.822506 343.614065 
L 1029.72226 245.872119 
L 1032.647076 309.237632 
L 1033.622015 353.362605 
L 1043.3714 283.840119 
L 1046.296216 349.514497 
L 1051.170909 366.189632 
L 1066.769926 336.174389 
L 1067.744865 349.257957 
L 1067.744865 295.897524 
L 1074.569435 250.489849 
L 1089.193514 291.536335 
L 1093.093268 340.022497 
L 1095.043145 321.808119 
L 1095.043145 356.441092 
L 1096.018084 363.880768 
L 1097.967961 245.615578 
L 1101.867715 355.67147 
L 1102.842654 334.122065 
L 1103.817592 275.630822 
L 1104.792531 320.268876 
L 1109.667224 353.619146 
L 1110.642162 317.190389 
L 1113.566978 247.154822 
L 1118.441671 335.404768 
L 1120.391548 337.713632 
L 1127.216118 285.892443 
L 1129.165995 340.535578 
L 1135.990565 340.792119 
L 1140.865258 313.598822 
L 1140.865258 282.557416 
L 1148.664767 256.133741 
L 1150.614644 317.960011 
L 1168.163538 288.97093 
L 1174.988108 305.389524 
L 1181.812678 336.944011 
L 1182.787617 359.006497 
L 1184.737494 350.027578 
L 1186.687371 246.641741 
L 1189.612187 300.258714 
L 1190.587125 341.818281 
L 1191.562064 354.645308 
L 1195.461818 328.734714 
L 1195.461818 328.734714 
" style="fill:none;stroke:#bfbf00;stroke-linecap:square;stroke-opacity:0.6;stroke-width:1.5;"/>
   </g>
   <g id="line2d_19">
    <path clip-path="url(#p975a71f345)" d="M 228.322752 149.412876 
L 249.7714 221.757308 
L 251.721278 150.182497 
L 269.270172 156.596011 
L 271.220049 135.046605 
L 279.994496 117.601849 
L 284.869189 200.207903 
L 285.844128 122.732659 
L 287.794005 226.631578 
L 287.794005 134.276984 
L 291.693759 239.971686 
L 303.393022 176.093092 
L 304.367961 217.9092 
L 314.117346 208.4172 
L 315.092285 166.601092 
L 317.042162 160.187578 
L 319.966978 232.01893 
L 328.741425 150.182497 
L 333.616118 141.460119 
L 337.515872 220.987686 
L 348.240197 217.139578 
L 355.064767 234.840876 
L 371.638722 143.255903 
L 374.563538 165.318389 
L 375.538477 191.998605 
L 386.262801 221.757308 
L 387.23774 202.003686 
L 391.137494 236.380119 
L 395.037248 232.27547 
L 401.861818 189.689741 
L 403.811695 196.103254 
L 405.761572 235.097416 
L 408.686388 225.605416 
L 415.510958 140.690497 
L 417.460835 171.988443 
L 420.385651 206.621416 
L 427.210221 203.286389 
L 428.18516 155.056768 
L 433.059853 115.292984 
L 433.059853 226.631578 
L 435.00973 209.699903 
L 437.934545 140.690497 
L 455.48344 219.961524 
L 459.383194 194.820551 
L 459.383194 236.8932 
L 465.232826 196.616335 
L 474.982211 191.228984 
L 480.831843 138.381632 
L 482.78172 177.888876 
L 484.731597 130.941957 
L 486.681474 151.4652 
L 487.656413 150.695578 
L 488.631351 230.479686 
L 491.556167 165.57493 
L 491.556167 119.654173 
L 491.556167 219.191903 
L 499.355676 223.040011 
L 503.25543 215.087254 
L 511.054939 125.041524 
L 519.829386 153.517524 
L 521.779263 154.543686 
L 522.754201 232.01893 
L 526.653956 198.9252 
L 527.628894 132.4812 
L 529.578771 199.694822 
L 543.227912 203.029849 
L 552.002359 147.104011 
L 553.952236 191.228984 
L 562.726683 176.862714 
L 564.67656 212.265308 
L 569.551253 167.883795 
L 569.551253 137.612011 
L 573.451007 195.590173 
L 573.451007 240.741308 
L 584.175332 132.737741 
L 587.100147 194.564011 
L 590.999902 189.689741 
L 593.924717 236.380119 
L 598.79941 196.616335 
L 605.62398 117.345308 
L 606.598919 160.187578 
L 607.573857 147.104011 
L 615.373366 199.951362 
L 621.222998 188.407038 
L 626.09769 217.139578 
L 631.947322 117.345308 
L 636.822015 218.678822 
L 637.796953 168.396876 
L 641.696708 157.109092 
L 651.446093 154.030605 
L 654.370909 138.125092 
L 663.145356 146.334389 
L 664.120295 203.286389 
L 666.070172 117.601849 
L 668.994988 144.795146 
L 668.994988 223.040011 
L 671.919803 221.757308 
L 678.744373 203.029849 
L 680.694251 154.800227 
L 691.418575 117.601849 
L 693.368452 172.501524 
L 693.368452 155.056768 
L 696.293268 235.610497 
L 697.268206 205.338714 
L 700.193022 154.030605 
L 700.193022 171.218822 
L 701.167961 208.673741 
L 704.092776 230.479686 
L 707.017592 146.59093 
L 719.691794 184.302389 
L 724.566486 169.166497 
L 729.441179 168.653416 
L 747.965012 230.479686 
L 751.864767 156.852551 
L 776.238231 185.072011 
L 781.112924 187.124335 
L 791.837248 200.207903 
L 795.737002 150.439038 
L 806.461327 140.433957 
L 819.135528 169.166497 
L 819.135528 196.103254 
L 821.085405 199.694822 
L 824.010221 203.286389 
L 824.010221 113.4972 
L 824.98516 229.966605 
L 829.859853 190.459362 
L 829.859853 199.694822 
L 832.784668 224.835795 
L 837.659361 155.056768 
L 839.609238 149.156335 
L 841.559115 207.647578 
L 851.308501 149.669416 
L 852.28344 219.448443 
L 856.183194 233.558173 
L 863.982703 121.963038 
L 874.707027 116.832227 
L 874.707027 117.088768 
L 880.556658 133.763903 
L 880.556658 200.207903 
L 893.23086 221.757308 
L 895.180737 149.156335 
L 896.155676 238.175903 
L 909.804816 161.213741 
L 925.403833 150.182497 
L 928.328649 148.386714 
L 933.203342 125.811146 
L 940.027912 145.821308 
L 951.727174 221.500768 
L 951.727174 224.835795 
L 952.702113 210.726065 
L 962.451499 197.899038 
L 965.376314 133.763903 
L 967.326192 237.406281 
L 972.200885 196.872876 
L 976.100639 169.423038 
L 983.900147 152.747903 
L 984.875086 157.622173 
L 986.824963 114.779903 
L 988.77484 183.532768 
L 989.749779 170.705741 
L 991.699656 212.521849 
L 995.59941 160.9572 
L 997.549287 208.930281 
L 998.524226 141.460119 
L 999.499165 170.962281 
L 1019.972875 195.333632 
L 1024.847568 142.999362 
L 1030.697199 144.025524 
L 1034.596953 117.601849 
L 1046.296216 124.528443 
L 1046.296216 152.491362 
L 1050.195971 157.109092 
L 1051.170909 180.967362 
L 1055.070663 197.385957 
L 1059.945356 133.763903 
L 1067.744865 199.181741 
L 1081.394005 229.710065 
L 1088.218575 117.345308 
L 1100.892776 209.186822 
L 1101.867715 210.469524 
L 1107.717346 172.758065 
L 1114.541916 189.689741 
L 1116.491794 117.088768 
L 1120.391548 140.177416 
L 1120.391548 171.475362 
L 1127.216118 164.292227 
L 1128.191057 223.296551 
L 1129.165995 154.543686 
L 1135.990565 178.658497 
L 1142.815135 217.139578 
L 1144.765012 238.945524 
L 1157.439214 239.715146 
L 1170.113415 225.092335 
L 1174.01317 151.208659 
L 1174.01317 194.30747 
L 1184.737494 205.082173 
L 1185.712432 184.81547 
L 1193.511941 151.721741 
L 1193.511941 151.721741 
" style="fill:none;stroke:#00bfff;stroke-linecap:square;stroke-opacity:0.6;stroke-width:1.5;"/>
   </g>
   <g id="patch_3">
    <path d="M 172.8 651.6936 
L 172.8 87.8688 
" style="fill:none;stroke:#000000;stroke-linecap:square;stroke-linejoin:miter;stroke-width:0.8;"/>
   </g>
   <g id="patch_4">
    <path d="M 1244.16 651.6936 
L 1244.16 87.8688 
" style="fill:none;stroke:#000000;stroke-linecap:square;stroke-linejoin:miter;stroke-width:0.8;"/>
   </g>
   <g id="patch_5">
    <path d="M 172.8 651.6936 
L 1244.16 651.6936 
" style="fill:none;stroke:#000000;stroke-linecap:square;stroke-linejoin:miter;stroke-width:0.8;"/>
   </g>
   <g id="patch_6">
    <path d="M 172.8 87.8688 
L 1244.16 87.8688 
" style="fill:none;stroke:#000000;stroke-linecap:square;stroke-linejoin:miter;stroke-width:0.8;"/>
   </g>
   <g id="text_18">
    <!-- Custimizing Lengends -->
    <g transform="translate(642.526875 81.8688)scale(0.12 -0.12)">
     <defs>
      <path d="M 4122 4306 
L 4122 3641 
Q 3803 3938 3442 4084 
Q 3081 4231 2675 4231 
Q 1875 4231 1450 3742 
Q 1025 3253 1025 2328 
Q 1025 1406 1450 917 
Q 1875 428 2675 428 
Q 3081 428 3442 575 
Q 3803 722 4122 1019 
L 4122 359 
Q 3791 134 3420 21 
Q 3050 -91 2638 -91 
Q 1578 -91 968 557 
Q 359 1206 359 2328 
Q 359 3453 968 4101 
Q 1578 4750 2638 4750 
Q 3056 4750 3426 4639 
Q 3797 4528 4122 4306 
z
" id="DejaVuSans-43" transform="scale(0.015625)"/>
      <path d="M 544 1381 
L 544 3500 
L 1119 3500 
L 1119 1403 
Q 1119 906 1312 657 
Q 1506 409 1894 409 
Q 2359 409 2629 706 
Q 2900 1003 2900 1516 
L 2900 3500 
L 3475 3500 
L 3475 0 
L 2900 0 
L 2900 538 
Q 2691 219 2414 64 
Q 2138 -91 1772 -91 
Q 1169 -91 856 284 
Q 544 659 544 1381 
z
M 1991 3584 
L 1991 3584 
z
" id="DejaVuSans-75" transform="scale(0.015625)"/>
      <path d="M 1172 4494 
L 1172 3500 
L 2356 3500 
L 2356 3053 
L 1172 3053 
L 1172 1153 
Q 1172 725 1289 603 
Q 1406 481 1766 481 
L 2356 481 
L 2356 0 
L 1766 0 
Q 1100 0 847 248 
Q 594 497 594 1153 
L 594 3053 
L 172 3053 
L 172 3500 
L 594 3500 
L 594 4494 
L 1172 4494 
z
" id="DejaVuSans-74" transform="scale(0.015625)"/>
      <path d="M 3328 2828 
Q 3544 3216 3844 3400 
Q 4144 3584 4550 3584 
Q 5097 3584 5394 3201 
Q 5691 2819 5691 2113 
L 5691 0 
L 5113 0 
L 5113 2094 
Q 5113 2597 4934 2840 
Q 4756 3084 4391 3084 
Q 3944 3084 3684 2787 
Q 3425 2491 3425 1978 
L 3425 0 
L 2847 0 
L 2847 2094 
Q 2847 2600 2669 2842 
Q 2491 3084 2119 3084 
Q 1678 3084 1418 2786 
Q 1159 2488 1159 1978 
L 1159 0 
L 581 0 
L 581 3500 
L 1159 3500 
L 1159 2956 
Q 1356 3278 1631 3431 
Q 1906 3584 2284 3584 
Q 2666 3584 2933 3390 
Q 3200 3197 3328 2828 
z
" id="DejaVuSans-6d" transform="scale(0.015625)"/>
      <path d="M 353 3500 
L 3084 3500 
L 3084 2975 
L 922 459 
L 3084 459 
L 3084 0 
L 275 0 
L 275 525 
L 2438 3041 
L 353 3041 
L 353 3500 
z
" id="DejaVuSans-7a" transform="scale(0.015625)"/>
      <path d="M 3513 2113 
L 3513 0 
L 2938 0 
L 2938 2094 
Q 2938 2591 2744 2837 
Q 2550 3084 2163 3084 
Q 1697 3084 1428 2787 
Q 1159 2491 1159 1978 
L 1159 0 
L 581 0 
L 581 3500 
L 1159 3500 
L 1159 2956 
Q 1366 3272 1645 3428 
Q 1925 3584 2291 3584 
Q 2894 3584 3203 3211 
Q 3513 2838 3513 2113 
z
" id="DejaVuSans-6e" transform="scale(0.015625)"/>
      <path d="M 2906 1791 
Q 2906 2416 2648 2759 
Q 2391 3103 1925 3103 
Q 1463 3103 1205 2759 
Q 947 2416 947 1791 
Q 947 1169 1205 825 
Q 1463 481 1925 481 
Q 2391 481 2648 825 
Q 2906 1169 2906 1791 
z
M 3481 434 
Q 3481 -459 3084 -895 
Q 2688 -1331 1869 -1331 
Q 1566 -1331 1297 -1286 
Q 1028 -1241 775 -1147 
L 775 -588 
Q 1028 -725 1275 -790 
Q 1522 -856 1778 -856 
Q 2344 -856 2625 -561 
Q 2906 -266 2906 331 
L 2906 616 
Q 2728 306 2450 153 
Q 2172 0 1784 0 
Q 1141 0 747 490 
Q 353 981 353 1791 
Q 353 2603 747 3093 
Q 1141 3584 1784 3584 
Q 2172 3584 2450 3431 
Q 2728 3278 2906 2969 
L 2906 3500 
L 3481 3500 
L 3481 434 
z
" id="DejaVuSans-67" transform="scale(0.015625)"/>
      <path d="M 628 4666 
L 1259 4666 
L 1259 531 
L 3531 531 
L 3531 0 
L 628 0 
L 628 4666 
z
" id="DejaVuSans-4c" transform="scale(0.015625)"/>
      <path d="M 3597 1894 
L 3597 1613 
L 953 1613 
Q 991 1019 1311 708 
Q 1631 397 2203 397 
Q 2534 397 2845 478 
Q 3156 559 3463 722 
L 3463 178 
Q 3153 47 2828 -22 
Q 2503 -91 2169 -91 
Q 1331 -91 842 396 
Q 353 884 353 1716 
Q 353 2575 817 3079 
Q 1281 3584 2069 3584 
Q 2775 3584 3186 3129 
Q 3597 2675 3597 1894 
z
M 3022 2063 
Q 3016 2534 2758 2815 
Q 2500 3097 2075 3097 
Q 1594 3097 1305 2825 
Q 1016 2553 972 2059 
L 3022 2063 
z
" id="DejaVuSans-65" transform="scale(0.015625)"/>
      <path d="M 2906 2969 
L 2906 4863 
L 3481 4863 
L 3481 0 
L 2906 0 
L 2906 525 
Q 2725 213 2448 61 
Q 2172 -91 1784 -91 
Q 1150 -91 751 415 
Q 353 922 353 1747 
Q 353 2572 751 3078 
Q 1150 3584 1784 3584 
Q 2172 3584 2448 3432 
Q 2725 3281 2906 2969 
z
M 947 1747 
Q 947 1113 1208 752 
Q 1469 391 1925 391 
Q 2381 391 2643 752 
Q 2906 1113 2906 1747 
Q 2906 2381 2643 2742 
Q 2381 3103 1925 3103 
Q 1469 3103 1208 2742 
Q 947 2381 947 1747 
z
" id="DejaVuSans-64" transform="scale(0.015625)"/>
     </defs>
     <use xlink:href="#DejaVuSans-43"/>
     <use x="69.824219" xlink:href="#DejaVuSans-75"/>
     <use x="133.203125" xlink:href="#DejaVuSans-73"/>
     <use x="185.302734" xlink:href="#DejaVuSans-74"/>
     <use x="224.511719" xlink:href="#DejaVuSans-69"/>
     <use x="252.294922" xlink:href="#DejaVuSans-6d"/>
     <use x="349.707031" xlink:href="#DejaVuSans-69"/>
     <use x="377.490234" xlink:href="#DejaVuSans-7a"/>
     <use x="429.980469" xlink:href="#DejaVuSans-69"/>
     <use x="457.763672" xlink:href="#DejaVuSans-6e"/>
     <use x="521.142578" xlink:href="#DejaVuSans-67"/>
     <use x="584.619141" xlink:href="#DejaVuSans-20"/>
     <use x="616.40625" xlink:href="#DejaVuSans-4c"/>
     <use x="670.369141" xlink:href="#DejaVuSans-65"/>
     <use x="731.892578" xlink:href="#DejaVuSans-6e"/>
     <use x="795.271484" xlink:href="#DejaVuSans-67"/>
     <use x="858.748047" xlink:href="#DejaVuSans-65"/>
     <use x="920.271484" xlink:href="#DejaVuSans-6e"/>
     <use x="983.650391" xlink:href="#DejaVuSans-64"/>
     <use x="1047.126953" xlink:href="#DejaVuSans-73"/>
    </g>
   </g>
   <g id="legend_1">
    <g id="patch_7">
     <path d="M 331.936 34.907098 
L 694.15475 34.907098 
Q 696.15475 34.907098 696.15475 32.907098 
L 696.15475 4.550848 
Q 696.15475 2.550848 694.15475 2.550848 
L 331.936 2.550848 
Q 329.936 2.550848 329.936 4.550848 
L 329.936 32.907098 
Q 329.936 34.907098 331.936 34.907098 
z
" style="fill:#ffffff;opacity:0.8;stroke:#cccccc;stroke-linejoin:miter;"/>
    </g>
    <g id="text_19">
     <!-- Legend Title -->
     <g transform="translate(482.375063 14.149285)scale(0.1 -0.1)">
      <defs>
       <path d="M -19 4666 
L 3928 4666 
L 3928 4134 
L 2272 4134 
L 2272 0 
L 1638 0 
L 1638 4134 
L -19 4134 
L -19 4666 
z
" id="DejaVuSans-54" transform="scale(0.015625)"/>
       <path d="M 603 4863 
L 1178 4863 
L 1178 0 
L 603 0 
L 603 4863 
z
" id="DejaVuSans-6c" transform="scale(0.015625)"/>
      </defs>
      <use xlink:href="#DejaVuSans-4c"/>
      <use x="53.962891" xlink:href="#DejaVuSans-65"/>
      <use x="115.486328" xlink:href="#DejaVuSans-67"/>
      <use x="178.962891" xlink:href="#DejaVuSans-65"/>
      <use x="240.486328" xlink:href="#DejaVuSans-6e"/>
      <use x="303.865234" xlink:href="#DejaVuSans-64"/>
      <use x="367.341797" xlink:href="#DejaVuSans-20"/>
      <use x="399.128906" xlink:href="#DejaVuSans-54"/>
      <use x="457.087891" xlink:href="#DejaVuSans-69"/>
      <use x="484.871094" xlink:href="#DejaVuSans-74"/>
      <use x="524.080078" xlink:href="#DejaVuSans-6c"/>
      <use x="551.863281" xlink:href="#DejaVuSans-65"/>
     </g>
    </g>
    <g id="line2d_20">
     <path d="M 333.936 25.32741 
L 353.936 25.32741 
" style="fill:none;stroke:#008000;stroke-linecap:square;stroke-opacity:0.6;stroke-width:1.5;"/>
    </g>
    <g id="line2d_21"/>
    <g id="text_20">
     <!-- 0-500 -->
     <g transform="translate(361.936 28.82741)scale(0.1 -0.1)">
      <defs>
       <path d="M 313 2009 
L 1997 2009 
L 1997 1497 
L 313 1497 
L 313 2009 
z
" id="DejaVuSans-2d" transform="scale(0.015625)"/>
      </defs>
      <use xlink:href="#DejaVuSans-30"/>
      <use x="63.623047" xlink:href="#DejaVuSans-2d"/>
      <use x="99.707031" xlink:href="#DejaVuSans-35"/>
      <use x="163.330078" xlink:href="#DejaVuSans-30"/>
      <use x="226.953125" xlink:href="#DejaVuSans-30"/>
     </g>
    </g>
    <g id="line2d_22">
     <path d="M 410.993812 25.32741 
L 430.993812 25.32741 
" style="fill:none;stroke:#bf00bf;stroke-linecap:square;stroke-opacity:0.6;stroke-width:1.5;"/>
    </g>
    <g id="line2d_23"/>
    <g id="text_21">
     <!-- 500-1000 -->
     <g transform="translate(438.993812 28.82741)scale(0.1 -0.1)">
      <use xlink:href="#DejaVuSans-35"/>
      <use x="63.623047" xlink:href="#DejaVuSans-30"/>
      <use x="127.246094" xlink:href="#DejaVuSans-30"/>
      <use x="190.869141" xlink:href="#DejaVuSans-2d"/>
      <use x="226.953125" xlink:href="#DejaVuSans-31"/>
      <use x="290.576172" xlink:href="#DejaVuSans-30"/>
      <use x="354.199219" xlink:href="#DejaVuSans-30"/>
      <use x="417.822266" xlink:href="#DejaVuSans-30"/>
     </g>
    </g>
    <g id="line2d_24">
     <path d="M 507.139125 25.32741 
L 527.139125 25.32741 
" style="fill:none;stroke:#bfbf00;stroke-linecap:square;stroke-opacity:0.6;stroke-width:1.5;"/>
    </g>
    <g id="line2d_25"/>
    <g id="text_22">
     <!-- 1000-1500 -->
     <g transform="translate(535.139125 28.82741)scale(0.1 -0.1)">
      <use xlink:href="#DejaVuSans-31"/>
      <use x="63.623047" xlink:href="#DejaVuSans-30"/>
      <use x="127.246094" xlink:href="#DejaVuSans-30"/>
      <use x="190.869141" xlink:href="#DejaVuSans-30"/>
      <use x="254.492188" xlink:href="#DejaVuSans-2d"/>
      <use x="290.576172" xlink:href="#DejaVuSans-31"/>
      <use x="354.199219" xlink:href="#DejaVuSans-35"/>
      <use x="417.822266" xlink:href="#DejaVuSans-30"/>
      <use x="481.445312" xlink:href="#DejaVuSans-30"/>
     </g>
    </g>
    <g id="line2d_26">
     <path d="M 609.646937 25.32741 
L 629.646937 25.32741 
" style="fill:none;stroke:#00bfff;stroke-linecap:square;stroke-opacity:0.6;stroke-width:1.5;"/>
    </g>
    <g id="line2d_27"/>
    <g id="text_23">
     <!-- 1500-2000 -->
     <g transform="translate(637.646937 28.82741)scale(0.1 -0.1)">
      <use xlink:href="#DejaVuSans-31"/>
      <use x="63.623047" xlink:href="#DejaVuSans-35"/>
      <use x="127.246094" xlink:href="#DejaVuSans-30"/>
      <use x="190.869141" xlink:href="#DejaVuSans-30"/>
      <use x="254.492188" xlink:href="#DejaVuSans-2d"/>
      <use x="290.576172" xlink:href="#DejaVuSans-32"/>
      <use x="354.199219" xlink:href="#DejaVuSans-30"/>
      <use x="417.822266" xlink:href="#DejaVuSans-30"/>
      <use x="481.445312" xlink:href="#DejaVuSans-30"/>
     </g>
    </g>
   </g>
  </g>
 </g>
 <defs>
  <clipPath id="p975a71f345">
   <rect height="563.8248" width="1071.36" x="172.8" y="87.8688"/>
  </clipPath>
 </defs>
</svg>
