<?xml version="1.0" encoding="utf-8" standalone="no"?>
<!DOCTYPE svg PUBLIC "-//W3C//DTD SVG 1.1//EN"
  "http://www.w3.org/Graphics/SVG/1.1/DTD/svg11.dtd">
<svg height="732.24pt" version="1.1" viewBox="0 0 1382.4 732.24" width="1382.4pt" xmlns="http://www.w3.org/2000/svg" xmlns:xlink="http://www.w3.org/1999/xlink">
 <metadata>
  <rdf:RDF xmlns:cc="http://creativecommons.org/ns#" xmlns:dc="http://purl.org/dc/elements/1.1/" xmlns:rdf="http://www.w3.org/1999/02/22-rdf-syntax-ns#">
   <cc:Work>
    <dc:type rdf:resource="http://purl.org/dc/dcmitype/StillImage"/>
    <dc:date>2021-06-20T09:30:51.330404</dc:date>
    <dc:format>image/svg+xml</dc:format>
    <dc:creator>
     <cc:Agent>
      <dc:title>Matplotlib v3.4.2, https://matplotlib.org/</dc:title>
     </cc:Agent>
    </dc:creator>
   </cc:Work>
  </rdf:RDF>
 </metadata>
 <defs>
  <style type="text/css">*{stroke-linecap:butt;stroke-linejoin:round;}</style>
 </defs>
 <g id="figure_1">
  <g id="patch_1">
   <path d="M 0 732.24 
L 1382.4 732.24 
L 1382.4 0 
L 0 0 
z
" style="fill:#ffffff;"/>
  </g>
  <g id="patch_2">
   <path d="M 426.5676 651.6936 
L 990.3924 651.6936 
L 990.3924 87.8688 
L 426.5676 87.8688 
z
" style="fill:#ffffff;"/>
  </g>
  <g id="pane3d_1">
   <g id="patch_3">
    <path d="M 762.634381 297.746421 
L 474.869758 425.177664 
L 460.012016 225.224031 
L 765.365813 99.713432 
" style="fill:#f2f2f2;opacity:0.5;stroke:#f2f2f2;stroke-linejoin:miter;"/>
   </g>
  </g>
  <g id="pane3d_2">
   <g id="patch_4">
    <path d="M 963.135956 494.260254 
L 762.634381 297.746421 
L 765.365813 99.713432 
L 978.740797 293.552818 
" style="fill:#e6e6e6;opacity:0.5;stroke:#e6e6e6;stroke-linejoin:miter;"/>
   </g>
  </g>
  <g id="pane3d_3">
   <g id="patch_5">
    <path d="M 963.135956 494.260254 
L 762.634381 297.746421 
L 474.869758 425.177664 
L 663.737518 641.098816 
" style="fill:#ececec;opacity:0.5;stroke:#ececec;stroke-linejoin:miter;"/>
   </g>
  </g>
  <g id="axis3d_1">
   <g id="line2d_1">
    <path d="M 474.869758 425.177664 
L 663.737518 641.098816 
" style="fill:none;stroke:#000000;stroke-linecap:square;stroke-width:0.8;"/>
   </g>
   <g id="text_1">
    <!-- X Axis -->
    <g transform="translate(528.273661 547.704583)rotate(-311.176418)scale(0.1 -0.1)">
     <defs>
      <path d="M 403 4666 
L 1081 4666 
L 2241 2931 
L 3406 4666 
L 4084 4666 
L 2584 2425 
L 4184 0 
L 3506 0 
L 2194 1984 
L 872 0 
L 191 0 
L 1856 2491 
L 403 4666 
z
" id="DejaVuSans-58" transform="scale(0.015625)"/>
      <path id="DejaVuSans-20" transform="scale(0.015625)"/>
      <path d="M 2188 4044 
L 1331 1722 
L 3047 1722 
L 2188 4044 
z
M 1831 4666 
L 2547 4666 
L 4325 0 
L 3669 0 
L 3244 1197 
L 1141 1197 
L 716 0 
L 50 0 
L 1831 4666 
z
" id="DejaVuSans-41" transform="scale(0.015625)"/>
      <path d="M 3513 3500 
L 2247 1797 
L 3578 0 
L 2900 0 
L 1881 1375 
L 863 0 
L 184 0 
L 1544 1831 
L 300 3500 
L 978 3500 
L 1906 2253 
L 2834 3500 
L 3513 3500 
z
" id="DejaVuSans-78" transform="scale(0.015625)"/>
      <path d="M 603 3500 
L 1178 3500 
L 1178 0 
L 603 0 
L 603 3500 
z
M 603 4863 
L 1178 4863 
L 1178 4134 
L 603 4134 
L 603 4863 
z
" id="DejaVuSans-69" transform="scale(0.015625)"/>
      <path d="M 2834 3397 
L 2834 2853 
Q 2591 2978 2328 3040 
Q 2066 3103 1784 3103 
Q 1356 3103 1142 2972 
Q 928 2841 928 2578 
Q 928 2378 1081 2264 
Q 1234 2150 1697 2047 
L 1894 2003 
Q 2506 1872 2764 1633 
Q 3022 1394 3022 966 
Q 3022 478 2636 193 
Q 2250 -91 1575 -91 
Q 1294 -91 989 -36 
Q 684 19 347 128 
L 347 722 
Q 666 556 975 473 
Q 1284 391 1588 391 
Q 1994 391 2212 530 
Q 2431 669 2431 922 
Q 2431 1156 2273 1281 
Q 2116 1406 1581 1522 
L 1381 1569 
Q 847 1681 609 1914 
Q 372 2147 372 2553 
Q 372 3047 722 3315 
Q 1072 3584 1716 3584 
Q 2034 3584 2315 3537 
Q 2597 3491 2834 3397 
z
" id="DejaVuSans-73" transform="scale(0.015625)"/>
     </defs>
     <use xlink:href="#DejaVuSans-58"/>
     <use x="68.505859" xlink:href="#DejaVuSans-20"/>
     <use x="100.292969" xlink:href="#DejaVuSans-41"/>
     <use x="168.701172" xlink:href="#DejaVuSans-78"/>
     <use x="227.880859" xlink:href="#DejaVuSans-69"/>
     <use x="255.664062" xlink:href="#DejaVuSans-73"/>
    </g>
   </g>
   <g id="Line3DCollection_1">
    <path d="M 633.435181 606.455976 
L 931.057051 462.819361 
L 944.481184 262.429852 
" style="fill:none;stroke:#b0b0b0;stroke-width:0.8;"/>
    <path d="M 599.224447 567.344901 
L 894.799366 427.282799 
L 905.814386 227.303202 
" style="fill:none;stroke:#b0b0b0;stroke-width:0.8;"/>
    <path d="M 565.879728 529.22389 
L 859.417345 392.604485 
L 868.138261 193.076524 
" style="fill:none;stroke:#b0b0b0;stroke-width:0.8;"/>
    <path d="M 533.368552 492.055817 
L 824.879645 358.7537 
L 831.415216 159.715666 
" style="fill:none;stroke:#b0b0b0;stroke-width:0.8;"/>
    <path d="M 501.660049 455.805392 
L 791.1564 325.70117 
L 795.60954 127.188187 
" style="fill:none;stroke:#b0b0b0;stroke-width:0.8;"/>
   </g>
   <g id="xtick_1">
    <g id="line2d_2">
     <path d="M 635.932801 605.250588 
L 628.434012 608.869612 
" style="fill:none;stroke:#000000;stroke-linecap:square;stroke-width:0.8;"/>
    </g>
    <g id="text_2">
     <!-- 2 -->
     <g transform="translate(618.228366 627.355045)scale(0.1 -0.1)">
      <defs>
       <path d="M 1228 531 
L 3431 531 
L 3431 0 
L 469 0 
L 469 531 
Q 828 903 1448 1529 
Q 2069 2156 2228 2338 
Q 2531 2678 2651 2914 
Q 2772 3150 2772 3378 
Q 2772 3750 2511 3984 
Q 2250 4219 1831 4219 
Q 1534 4219 1204 4116 
Q 875 4013 500 3803 
L 500 4441 
Q 881 4594 1212 4672 
Q 1544 4750 1819 4750 
Q 2544 4750 2975 4387 
Q 3406 4025 3406 3419 
Q 3406 3131 3298 2873 
Q 3191 2616 2906 2266 
Q 2828 2175 2409 1742 
Q 1991 1309 1228 531 
z
" id="DejaVuSans-32" transform="scale(0.015625)"/>
      </defs>
      <use xlink:href="#DejaVuSans-32"/>
     </g>
    </g>
   </g>
   <g id="xtick_2">
    <g id="line2d_3">
     <path d="M 601.703405 566.170214 
L 594.260722 569.697028 
" style="fill:none;stroke:#000000;stroke-linecap:square;stroke-width:0.8;"/>
    </g>
    <g id="text_3">
     <!-- 4 -->
     <g transform="translate(584.187949 588.092102)scale(0.1 -0.1)">
      <defs>
       <path d="M 2419 4116 
L 825 1625 
L 2419 1625 
L 2419 4116 
z
M 2253 4666 
L 3047 4666 
L 3047 1625 
L 3713 1625 
L 3713 1100 
L 3047 1100 
L 3047 0 
L 2419 0 
L 2419 1100 
L 313 1100 
L 313 1709 
L 2253 4666 
z
" id="DejaVuSans-34" transform="scale(0.015625)"/>
      </defs>
      <use xlink:href="#DejaVuSans-34"/>
     </g>
    </g>
   </g>
   <g id="xtick_3">
    <g id="line2d_4">
     <path d="M 568.340163 528.078745 
L 560.953167 531.516828 
" style="fill:none;stroke:#000000;stroke-linecap:square;stroke-width:0.8;"/>
    </g>
    <g id="text_4">
     <!-- 6 -->
     <g transform="translate(551.008832 549.8226)scale(0.1 -0.1)">
      <defs>
       <path d="M 2113 2584 
Q 1688 2584 1439 2293 
Q 1191 2003 1191 1497 
Q 1191 994 1439 701 
Q 1688 409 2113 409 
Q 2538 409 2786 701 
Q 3034 994 3034 1497 
Q 3034 2003 2786 2293 
Q 2538 2584 2113 2584 
z
M 3366 4563 
L 3366 3988 
Q 3128 4100 2886 4159 
Q 2644 4219 2406 4219 
Q 1781 4219 1451 3797 
Q 1122 3375 1075 2522 
Q 1259 2794 1537 2939 
Q 1816 3084 2150 3084 
Q 2853 3084 3261 2657 
Q 3669 2231 3669 1497 
Q 3669 778 3244 343 
Q 2819 -91 2113 -91 
Q 1303 -91 875 529 
Q 447 1150 447 2328 
Q 447 3434 972 4092 
Q 1497 4750 2381 4750 
Q 2619 4750 2861 4703 
Q 3103 4656 3366 4563 
z
" id="DejaVuSans-36" transform="scale(0.015625)"/>
      </defs>
      <use xlink:href="#DejaVuSans-36"/>
     </g>
    </g>
   </g>
   <g id="xtick_4">
    <g id="line2d_5">
     <path d="M 535.810609 490.939114 
L 528.478859 494.291774 
" style="fill:none;stroke:#000000;stroke-linecap:square;stroke-width:0.8;"/>
    </g>
    <g id="text_5">
     <!-- 8 -->
     <g transform="translate(518.658735 512.509307)scale(0.1 -0.1)">
      <defs>
       <path d="M 2034 2216 
Q 1584 2216 1326 1975 
Q 1069 1734 1069 1313 
Q 1069 891 1326 650 
Q 1584 409 2034 409 
Q 2484 409 2743 651 
Q 3003 894 3003 1313 
Q 3003 1734 2745 1975 
Q 2488 2216 2034 2216 
z
M 1403 2484 
Q 997 2584 770 2862 
Q 544 3141 544 3541 
Q 544 4100 942 4425 
Q 1341 4750 2034 4750 
Q 2731 4750 3128 4425 
Q 3525 4100 3525 3541 
Q 3525 3141 3298 2862 
Q 3072 2584 2669 2484 
Q 3125 2378 3379 2068 
Q 3634 1759 3634 1313 
Q 3634 634 3220 271 
Q 2806 -91 2034 -91 
Q 1263 -91 848 271 
Q 434 634 434 1313 
Q 434 1759 690 2068 
Q 947 2378 1403 2484 
z
M 1172 3481 
Q 1172 3119 1398 2916 
Q 1625 2713 2034 2713 
Q 2441 2713 2670 2916 
Q 2900 3119 2900 3481 
Q 2900 3844 2670 4047 
Q 2441 4250 2034 4250 
Q 1625 4250 1398 4047 
Q 1172 3844 1172 3481 
z
" id="DejaVuSans-38" transform="scale(0.015625)"/>
      </defs>
      <use xlink:href="#DejaVuSans-38"/>
     </g>
    </g>
   </g>
   <g id="xtick_5">
    <g id="line2d_6">
     <path d="M 504.08388 454.716084 
L 496.806917 457.986466 
" style="fill:none;stroke:#000000;stroke-linecap:square;stroke-width:0.8;"/>
    </g>
    <g id="text_6">
     <!-- 10 -->
     <g transform="translate(483.925719 476.116827)scale(0.1 -0.1)">
      <defs>
       <path d="M 794 531 
L 1825 531 
L 1825 4091 
L 703 3866 
L 703 4441 
L 1819 4666 
L 2450 4666 
L 2450 531 
L 3481 531 
L 3481 0 
L 794 0 
L 794 531 
z
" id="DejaVuSans-31" transform="scale(0.015625)"/>
       <path d="M 2034 4250 
Q 1547 4250 1301 3770 
Q 1056 3291 1056 2328 
Q 1056 1369 1301 889 
Q 1547 409 2034 409 
Q 2525 409 2770 889 
Q 3016 1369 3016 2328 
Q 3016 3291 2770 3770 
Q 2525 4250 2034 4250 
z
M 2034 4750 
Q 2819 4750 3233 4129 
Q 3647 3509 3647 2328 
Q 3647 1150 3233 529 
Q 2819 -91 2034 -91 
Q 1250 -91 836 529 
Q 422 1150 422 2328 
Q 422 3509 836 4129 
Q 1250 4750 2034 4750 
z
" id="DejaVuSans-30" transform="scale(0.015625)"/>
      </defs>
      <use xlink:href="#DejaVuSans-31"/>
      <use x="63.623047" xlink:href="#DejaVuSans-30"/>
     </g>
    </g>
   </g>
  </g>
  <g id="axis3d_2">
   <g id="line2d_7">
    <path d="M 963.135956 494.260254 
L 663.737518 641.098816 
" style="fill:none;stroke:#000000;stroke-linecap:square;stroke-width:0.8;"/>
   </g>
   <g id="text_7">
    <!-- Y Axis -->
    <g transform="translate(822.13923 609.922539)rotate(-26.125425)scale(0.1 -0.1)">
     <defs>
      <path d="M -13 4666 
L 666 4666 
L 1959 2747 
L 3244 4666 
L 3922 4666 
L 2272 2222 
L 2272 0 
L 1638 0 
L 1638 2222 
L -13 4666 
z
" id="DejaVuSans-59" transform="scale(0.015625)"/>
     </defs>
     <use xlink:href="#DejaVuSans-59"/>
     <use x="61.083984" xlink:href="#DejaVuSans-20"/>
     <use x="92.871094" xlink:href="#DejaVuSans-41"/>
     <use x="161.279297" xlink:href="#DejaVuSans-78"/>
     <use x="220.458984" xlink:href="#DejaVuSans-69"/>
     <use x="248.242188" xlink:href="#DejaVuSans-73"/>
    </g>
   </g>
   <g id="Line3DCollection_2">
    <path d="M 746.792173 107.347818 
L 745.085677 305.51754 
L 944.934894 503.186879 
" style="fill:none;stroke:#b0b0b0;stroke-width:0.8;"/>
    <path d="M 710.077969 122.438581 
L 710.414616 320.870979 
L 908.953223 520.833921 
" style="fill:none;stroke:#b0b0b0;stroke-width:0.8;"/>
    <path d="M 672.92695 137.708889 
L 675.354241 336.396818 
L 872.53813 538.693533 
" style="fill:none;stroke:#b0b0b0;stroke-width:0.8;"/>
    <path d="M 635.331273 153.161967 
L 639.897957 352.097977 
L 835.681736 556.769579 
" style="fill:none;stroke:#b0b0b0;stroke-width:0.8;"/>
    <path d="M 597.282907 168.801115 
L 604.039021 367.977444 
L 798.375971 575.066017 
" style="fill:none;stroke:#b0b0b0;stroke-width:0.8;"/>
    <path d="M 558.773626 184.629714 
L 567.770534 384.038273 
L 760.612565 593.586903 
" style="fill:none;stroke:#b0b0b0;stroke-width:0.8;"/>
    <path d="M 519.795005 200.651228 
L 531.08544 400.283589 
L 722.383045 612.336392 
" style="fill:none;stroke:#b0b0b0;stroke-width:0.8;"/>
    <path d="M 480.33841 216.869205 
L 493.976519 416.716588 
L 683.678729 631.318742 
" style="fill:none;stroke:#b0b0b0;stroke-width:0.8;"/>
   </g>
   <g id="xtick_6">
    <g id="line2d_8">
     <path d="M 943.222165 501.492832 
L 948.366269 506.580826 
" style="fill:none;stroke:#000000;stroke-linecap:square;stroke-width:0.8;"/>
    </g>
    <g id="text_8">
     <!-- 2 -->
     <g transform="translate(949.61223 526.484784)scale(0.1 -0.1)">
      <use xlink:href="#DejaVuSans-32"/>
     </g>
    </g>
   </g>
   <g id="xtick_7">
    <g id="line2d_9">
     <path d="M 907.251049 519.119535 
L 912.363487 524.268651 
" style="fill:none;stroke:#000000;stroke-linecap:square;stroke-width:0.8;"/>
    </g>
    <g id="text_9">
     <!-- 3 -->
     <g transform="translate(913.660208 544.234405)scale(0.1 -0.1)">
      <defs>
       <path d="M 2597 2516 
Q 3050 2419 3304 2112 
Q 3559 1806 3559 1356 
Q 3559 666 3084 287 
Q 2609 -91 1734 -91 
Q 1441 -91 1130 -33 
Q 819 25 488 141 
L 488 750 
Q 750 597 1062 519 
Q 1375 441 1716 441 
Q 2309 441 2620 675 
Q 2931 909 2931 1356 
Q 2931 1769 2642 2001 
Q 2353 2234 1838 2234 
L 1294 2234 
L 1294 2753 
L 1863 2753 
Q 2328 2753 2575 2939 
Q 2822 3125 2822 3475 
Q 2822 3834 2567 4026 
Q 2313 4219 1838 4219 
Q 1578 4219 1281 4162 
Q 984 4106 628 3988 
L 628 4550 
Q 988 4650 1302 4700 
Q 1616 4750 1894 4750 
Q 2613 4750 3031 4423 
Q 3450 4097 3450 3541 
Q 3450 3153 3228 2886 
Q 3006 2619 2597 2516 
z
" id="DejaVuSans-33" transform="scale(0.015625)"/>
      </defs>
      <use xlink:href="#DejaVuSans-33"/>
     </g>
    </g>
   </g>
   <g id="xtick_8">
    <g id="line2d_10">
     <path d="M 870.84689 536.95844 
L 875.926524 542.169785 
" style="fill:none;stroke:#000000;stroke-linecap:square;stroke-width:0.8;"/>
    </g>
    <g id="text_10">
     <!-- 4 -->
     <g transform="translate(877.27491 562.197935)scale(0.1 -0.1)">
      <use xlink:href="#DejaVuSans-34"/>
     </g>
    </g>
   </g>
   <g id="xtick_9">
    <g id="line2d_11">
     <path d="M 834.00182 555.013402 
L 839.047476 560.288111 
" style="fill:none;stroke:#000000;stroke-linecap:square;stroke-width:0.8;"/>
    </g>
    <g id="text_11">
     <!-- 5 -->
     <g transform="translate(840.448456 580.379266)scale(0.1 -0.1)">
      <defs>
       <path d="M 691 4666 
L 3169 4666 
L 3169 4134 
L 1269 4134 
L 1269 2991 
Q 1406 3038 1543 3061 
Q 1681 3084 1819 3084 
Q 2600 3084 3056 2656 
Q 3513 2228 3513 1497 
Q 3513 744 3044 326 
Q 2575 -91 1722 -91 
Q 1428 -91 1123 -41 
Q 819 9 494 109 
L 494 744 
Q 775 591 1075 516 
Q 1375 441 1709 441 
Q 2250 441 2565 725 
Q 2881 1009 2881 1497 
Q 2881 1984 2565 2268 
Q 2250 2553 1709 2553 
Q 1456 2553 1204 2497 
Q 953 2441 691 2322 
L 691 4666 
z
" id="DejaVuSans-35" transform="scale(0.015625)"/>
      </defs>
      <use xlink:href="#DejaVuSans-35"/>
     </g>
    </g>
   </g>
   <g id="xtick_10">
    <g id="line2d_12">
     <path d="M 796.707782 573.288369 
L 801.718251 578.627605 
" style="fill:none;stroke:#000000;stroke-linecap:square;stroke-width:0.8;"/>
    </g>
    <g id="text_12">
     <!-- 6 -->
     <g transform="translate(803.172774 598.782381)scale(0.1 -0.1)">
      <use xlink:href="#DejaVuSans-36"/>
     </g>
    </g>
   </g>
   <g id="xtick_11">
    <g id="line2d_13">
     <path d="M 758.956518 591.787387 
L 763.930554 597.192342 
" style="fill:none;stroke:#000000;stroke-linecap:square;stroke-width:0.8;"/>
    </g>
    <g id="text_13">
     <!-- 7 -->
     <g transform="translate(765.439594 617.411365)scale(0.1 -0.1)">
      <defs>
       <path d="M 525 4666 
L 3525 4666 
L 3525 4397 
L 1831 0 
L 1172 0 
L 2766 4134 
L 525 4134 
L 525 4666 
z
" id="DejaVuSans-37" transform="scale(0.015625)"/>
      </defs>
      <use xlink:href="#DejaVuSans-37"/>
     </g>
    </g>
   </g>
   <g id="xtick_12">
    <g id="line2d_14">
     <path d="M 720.739568 610.514602 
L 725.675887 615.986496 
" style="fill:none;stroke:#000000;stroke-linecap:square;stroke-width:0.8;"/>
    </g>
    <g id="text_14">
     <!-- 8 -->
     <g transform="translate(727.240442 636.270401)scale(0.1 -0.1)">
      <use xlink:href="#DejaVuSans-38"/>
     </g>
    </g>
   </g>
   <g id="xtick_13">
    <g id="line2d_15">
     <path d="M 682.048262 629.474264 
L 686.94554 635.014348 
" style="fill:none;stroke:#000000;stroke-linecap:square;stroke-width:0.8;"/>
    </g>
    <g id="text_15">
     <!-- 9 -->
     <g transform="translate(688.566631 655.363777)scale(0.1 -0.1)">
      <defs>
       <path d="M 703 97 
L 703 672 
Q 941 559 1184 500 
Q 1428 441 1663 441 
Q 2288 441 2617 861 
Q 2947 1281 2994 2138 
Q 2813 1869 2534 1725 
Q 2256 1581 1919 1581 
Q 1219 1581 811 2004 
Q 403 2428 403 3163 
Q 403 3881 828 4315 
Q 1253 4750 1959 4750 
Q 2769 4750 3195 4129 
Q 3622 3509 3622 2328 
Q 3622 1225 3098 567 
Q 2575 -91 1691 -91 
Q 1453 -91 1209 -44 
Q 966 3 703 97 
z
M 1959 2075 
Q 2384 2075 2632 2365 
Q 2881 2656 2881 3163 
Q 2881 3666 2632 3958 
Q 2384 4250 1959 4250 
Q 1534 4250 1286 3958 
Q 1038 3666 1038 3163 
Q 1038 2656 1286 2365 
Q 1534 2075 1959 2075 
z
" id="DejaVuSans-39" transform="scale(0.015625)"/>
      </defs>
      <use xlink:href="#DejaVuSans-39"/>
     </g>
    </g>
   </g>
  </g>
  <g id="axis3d_3">
   <g id="line2d_16">
    <path d="M 963.135956 494.260254 
L 978.740797 293.552818 
" style="fill:none;stroke:#000000;stroke-linecap:square;stroke-width:0.8;"/>
   </g>
   <g id="Line3DCollection_3">
    <path d="M 963.429859 490.480114 
L 762.686038 294.001195 
L 474.589518 421.406235 
" style="fill:none;stroke:#b0b0b0;stroke-width:0.8;"/>
    <path d="M 966.287318 453.727838 
L 763.187845 257.619404 
L 471.865716 384.749639 
" style="fill:none;stroke:#b0b0b0;stroke-width:0.8;"/>
    <path d="M 969.211576 416.116424 
L 763.700581 220.44531 
L 469.079773 347.256769 
" style="fill:none;stroke:#b0b0b0;stroke-width:0.8;"/>
    <path d="M 972.205 377.615389 
L 764.224605 182.452746 
L 466.229539 308.898676 
" style="fill:none;stroke:#b0b0b0;stroke-width:0.8;"/>
    <path d="M 975.270075 338.192793 
L 764.760295 143.61438 
L 463.312762 269.64506 
" style="fill:none;stroke:#b0b0b0;stroke-width:0.8;"/>
    <path d="M 978.409404 297.815148 
L 765.308046 103.901651 
L 460.327085 229.464191 
" style="fill:none;stroke:#b0b0b0;stroke-width:0.8;"/>
   </g>
   <g id="xtick_14">
    <g id="line2d_17">
     <path d="M 961.709673 488.796475 
L 966.876161 493.853197 
" style="fill:none;stroke:#000000;stroke-linecap:square;stroke-width:0.8;"/>
    </g>
    <g id="text_16">
     <!-- 0 -->
     <g transform="translate(979.872054 500.851374)scale(0.1 -0.1)">
      <use xlink:href="#DejaVuSans-30"/>
     </g>
    </g>
   </g>
   <g id="xtick_15">
    <g id="line2d_18">
     <path d="M 964.545613 452.046085 
L 969.776805 457.09721 
" style="fill:none;stroke:#000000;stroke-linecap:square;stroke-width:0.8;"/>
    </g>
    <g id="text_17">
     <!-- 2 -->
     <g transform="translate(982.959175 464.09604)scale(0.1 -0.1)">
      <use xlink:href="#DejaVuSans-32"/>
     </g>
    </g>
   </g>
   <g id="xtick_16">
    <g id="line2d_19">
     <path d="M 967.447808 414.437105 
L 972.745335 419.480986 
" style="fill:none;stroke:#000000;stroke-linecap:square;stroke-width:0.8;"/>
    </g>
    <g id="text_18">
     <!-- 4 -->
     <g transform="translate(986.118531 426.480666)scale(0.1 -0.1)">
      <use xlink:href="#DejaVuSans-34"/>
     </g>
    </g>
   </g>
   <g id="xtick_17">
    <g id="line2d_20">
     <path d="M 970.418607 375.939091 
L 975.784163 380.97397 
" style="fill:none;stroke:#000000;stroke-linecap:square;stroke-width:0.8;"/>
    </g>
    <g id="text_19">
     <!-- 6 -->
     <g transform="translate(989.352689 387.974707)scale(0.1 -0.1)">
      <use xlink:href="#DejaVuSans-36"/>
     </g>
    </g>
   </g>
   <g id="xtick_18">
    <g id="line2d_21">
     <path d="M 973.460473 336.520142 
L 978.895817 341.544139 
" style="fill:none;stroke:#000000;stroke-linecap:square;stroke-width:0.8;"/>
    </g>
    <g id="text_20">
     <!-- 8 -->
     <g transform="translate(992.664336 348.546157)scale(0.1 -0.1)">
      <use xlink:href="#DejaVuSans-38"/>
     </g>
    </g>
   </g>
   <g id="xtick_19">
    <g id="line2d_22">
     <path d="M 976.575986 296.146812 
L 982.082945 301.157919 
" style="fill:none;stroke:#000000;stroke-linecap:square;stroke-width:0.8;"/>
    </g>
    <g id="text_21">
     <!-- 10 -->
     <g transform="translate(992.875042 308.161456)scale(0.1 -0.1)">
      <use xlink:href="#DejaVuSans-31"/>
      <use x="63.623047" xlink:href="#DejaVuSans-30"/>
     </g>
    </g>
   </g>
  </g>
  <g id="axes_1">
   <g id="Poly3DCollection_1">
    <path clip-path="url(#p56f8f68a74)" d="M 773.574508 329.877831 
L 738.668251 345.544219 
L 722.254606 329.035205 
L 757.047093 313.553155 
z
" style="fill:#880000;fill-opacity:0.6;"/>
    <path clip-path="url(#p56f8f68a74)" d="M 772.088805 379.158955 
L 736.550404 395.388479 
L 719.858047 378.286133 
L 755.278467 362.250945 
z
" style="fill:#880000;fill-opacity:0.6;"/>
    <path clip-path="url(#p56f8f68a74)" d="M 757.047093 313.553155 
L 722.254606 329.035205 
L 722.605727 138.363413 
L 759.369116 123.128125 
z
" style="fill:#6a0000;fill-opacity:0.6;"/>
    <path clip-path="url(#p56f8f68a74)" d="M 773.574508 329.877831 
L 757.047093 313.553155 
L 759.369116 123.128125 
L 776.854141 139.192887 
z
" style="fill:#e10000;fill-opacity:0.6;"/>
    <path clip-path="url(#p56f8f68a74)" d="M 859.235826 414.488356 
L 823.757383 431.127743 
L 806.324489 413.59356 
L 841.688108 397.155893 
z
" style="fill:#880000;fill-opacity:0.6;"/>
    <path clip-path="url(#p56f8f68a74)" d="M 738.668251 345.544219 
L 739.963765 154.619988 
L 722.605727 138.363413 
L 722.254606 329.035205 
z
" style="fill:#6a0000;fill-opacity:0.6;"/>
    <path clip-path="url(#p56f8f68a74)" d="M 773.574508 329.877831 
L 776.854141 139.192887 
L 739.963765 154.619988 
L 738.668251 345.544219 
z
" style="fill:#e10000;fill-opacity:0.6;"/>
    <path clip-path="url(#p56f8f68a74)" d="M 611.12612 427.510196 
L 574.034512 444.301948 
L 558.051869 426.607231 
L 595.009929 410.019967 
z
" style="fill:#880000;fill-opacity:0.6;"/>
    <path clip-path="url(#p56f8f68a74)" d="M 755.278467 362.250945 
L 719.858047 378.286133 
L 720.030794 226.931576 
L 757.068367 211.062892 
z
" style="fill:#6a0000;fill-opacity:0.6;"/>
    <path clip-path="url(#p56f8f68a74)" d="M 772.088805 379.158955 
L 755.278467 362.250945 
L 757.068367 211.062892 
L 774.662801 227.795573 
z
" style="fill:#e10000;fill-opacity:0.6;"/>
    <path clip-path="url(#p56f8f68a74)" d="M 680.881345 446.130789 
L 643.958338 463.141631 
L 627.441024 445.216079 
L 664.233765 428.413729 
z
" style="fill:#880000;fill-opacity:0.6;"/>
    <path clip-path="url(#p56f8f68a74)" d="M 841.688108 397.155893 
L 806.324489 413.59356 
L 808.904963 320.413005 
L 845.258749 304.059141 
z
" style="fill:#6a0000;fill-opacity:0.6;"/>
    <path clip-path="url(#p56f8f68a74)" d="M 859.235826 414.488356 
L 841.688108 397.155893 
L 845.258749 304.059141 
L 863.330902 321.303395 
z
" style="fill:#e10000;fill-opacity:0.6;"/>
    <path clip-path="url(#p56f8f68a74)" d="M 734.35551 447.046079 
L 697.735529 464.067726 
L 680.881345 446.130789 
L 717.374836 429.317831 
z
" style="fill:#880000;fill-opacity:0.6;"/>
    <path clip-path="url(#p56f8f68a74)" d="M 736.550404 395.388479 
L 737.496255 243.86547 
L 720.030794 226.931576 
L 719.858047 378.286133 
z
" style="fill:#6a0000;fill-opacity:0.6;"/>
    <path clip-path="url(#p56f8f68a74)" d="M 772.088805 379.158955 
L 774.662801 227.795573 
L 737.496255 243.86547 
L 736.550404 395.388479 
z
" style="fill:#e10000;fill-opacity:0.6;"/>
    <path clip-path="url(#p56f8f68a74)" d="M 823.757383 431.127743 
L 826.855877 337.863728 
L 808.904963 320.413005 
L 806.324489 413.59356 
z
" style="fill:#6a0000;fill-opacity:0.6;"/>
    <path clip-path="url(#p56f8f68a74)" d="M 859.235826 414.488356 
L 863.330902 321.303395 
L 826.855877 337.863728 
L 823.757383 431.127743 
z
" style="fill:#e10000;fill-opacity:0.6;"/>
    <path clip-path="url(#p56f8f68a74)" d="M 776.854141 139.192887 
L 759.369116 123.128125 
L 722.605727 138.363413 
L 739.963765 154.619988 
z
" style="fill:#c30000;fill-opacity:0.6;"/>
    <path clip-path="url(#p56f8f68a74)" d="M 717.374836 429.317831 
L 680.881345 446.130789 
L 679.651375 333.482206 
L 717.419117 316.763548 
z
" style="fill:#6a0000;fill-opacity:0.6;"/>
    <path clip-path="url(#p56f8f68a74)" d="M 734.35551 447.046079 
L 717.374836 429.317831 
L 717.419117 316.763548 
L 734.99331 334.392556 
z
" style="fill:#e10000;fill-opacity:0.6;"/>
    <path clip-path="url(#p56f8f68a74)" d="M 595.009929 410.019967 
L 558.051869 426.607231 
L 549.685044 254.820745 
L 588.638599 238.405399 
z
" style="fill:#6a0000;fill-opacity:0.6;"/>
    <path clip-path="url(#p56f8f68a74)" d="M 611.12612 427.510196 
L 595.009929 410.019967 
L 588.638599 238.405399 
L 605.567137 255.714639 
z
" style="fill:#e10000;fill-opacity:0.6;"/>
    <path clip-path="url(#p56f8f68a74)" d="M 664.233765 428.413729 
L 627.441024 445.216079 
L 623.808663 313.029338 
L 662.121675 296.342661 
z
" style="fill:#6a0000;fill-opacity:0.6;"/>
    <path clip-path="url(#p56f8f68a74)" d="M 863.330902 321.303395 
L 845.258749 304.059141 
L 808.904963 320.413005 
L 826.855877 337.863728 
z
" style="fill:#c30000;fill-opacity:0.6;"/>
    <path clip-path="url(#p56f8f68a74)" d="M 680.881345 446.130789 
L 664.233765 428.413729 
L 662.121675 296.342661 
L 679.437979 313.937979 
z
" style="fill:#e10000;fill-opacity:0.6;"/>
    <path clip-path="url(#p56f8f68a74)" d="M 697.735529 464.067726 
L 697.090064 351.326027 
L 679.651375 333.482206 
L 680.881345 446.130789 
z
" style="fill:#6a0000;fill-opacity:0.6;"/>
    <path clip-path="url(#p56f8f68a74)" d="M 734.35551 447.046079 
L 734.99331 334.392556 
L 697.090064 351.326027 
L 697.735529 464.067726 
z
" style="fill:#e10000;fill-opacity:0.6;"/>
    <path clip-path="url(#p56f8f68a74)" d="M 774.662801 227.795573 
L 757.068367 211.062892 
L 720.030794 226.931576 
L 737.496255 243.86547 
z
" style="fill:#c30000;fill-opacity:0.6;"/>
    <path clip-path="url(#p56f8f68a74)" d="M 574.034512 444.301948 
L 566.464968 272.343139 
L 549.685044 254.820745 
L 558.051869 426.607231 
z
" style="fill:#6a0000;fill-opacity:0.6;"/>
    <path clip-path="url(#p56f8f68a74)" d="M 611.12612 427.510196 
L 605.567137 255.714639 
L 566.464968 272.343139 
L 574.034512 444.301948 
z
" style="fill:#e10000;fill-opacity:0.6;"/>
    <path clip-path="url(#p56f8f68a74)" d="M 643.958338 463.141631 
L 640.983607 330.840251 
L 623.808663 313.029338 
L 627.441024 445.216079 
z
" style="fill:#6a0000;fill-opacity:0.6;"/>
    <path clip-path="url(#p56f8f68a74)" d="M 680.881345 446.130789 
L 679.437979 313.937979 
L 640.983607 330.840251 
L 643.958338 463.141631 
z
" style="fill:#e10000;fill-opacity:0.6;"/>
    <path clip-path="url(#p56f8f68a74)" d="M 656.996739 536.151158 
L 618.771928 554.241323 
L 601.900504 535.178598 
L 639.984915 517.317013 
z
" style="fill:#880000;fill-opacity:0.6;"/>
    <path clip-path="url(#p56f8f68a74)" d="M 712.128953 537.124353 
L 674.226304 555.226368 
L 656.996739 536.151158 
L 694.763126 518.277946 
z
" style="fill:#880000;fill-opacity:0.6;"/>
    <path clip-path="url(#p56f8f68a74)" d="M 767.29718 538.098183 
L 729.717125 556.212061 
L 712.128953 537.124353 
L 749.576893 519.239502 
z
" style="fill:#880000;fill-opacity:0.6;"/>
    <path clip-path="url(#p56f8f68a74)" d="M 804.42625 520.201683 
L 767.29718 538.098183 
L 767.59603 519.807382 
L 804.938717 501.917435 
z
" style="fill:#6a0000;fill-opacity:0.6;"/>
    <path clip-path="url(#p56f8f68a74)" d="M 822.501456 539.07265 
L 804.42625 520.201683 
L 804.938717 501.917435 
L 823.122746 520.781528 
z
" style="fill:#e10000;fill-opacity:0.6;"/>
    <path clip-path="url(#p56f8f68a74)" d="M 822.501456 539.07265 
L 785.244426 557.198402 
L 767.29718 538.098183 
L 804.42625 520.201683 
z
" style="fill:#880000;fill-opacity:0.6;"/>
    <path clip-path="url(#p56f8f68a74)" d="M 749.576893 519.239502 
L 712.128953 537.124353 
L 712.082346 500.328687 
L 749.967501 482.458451 
z
" style="fill:#6a0000;fill-opacity:0.6;"/>
    <path clip-path="url(#p56f8f68a74)" d="M 767.29718 538.098183 
L 749.576893 519.239502 
L 749.967501 482.458451 
L 767.898389 501.301794 
z
" style="fill:#e10000;fill-opacity:0.6;"/>
    <path clip-path="url(#p56f8f68a74)" d="M 734.99331 334.392556 
L 717.419117 316.763548 
L 679.651375 333.482206 
L 697.090064 351.326027 
z
" style="fill:#c30000;fill-opacity:0.6;"/>
    <path clip-path="url(#p56f8f68a74)" d="M 694.763126 518.277946 
L 656.996739 536.151158 
L 655.950239 480.633 
L 694.387642 462.784016 
z
" style="fill:#6a0000;fill-opacity:0.6;"/>
    <path clip-path="url(#p56f8f68a74)" d="M 712.128953 537.124353 
L 694.763126 518.277946 
L 694.387642 462.784016 
L 712.058629 481.604985 
z
" style="fill:#e10000;fill-opacity:0.6;"/>
    <path clip-path="url(#p56f8f68a74)" d="M 823.122746 520.781528 
L 804.938717 501.917435 
L 767.59603 519.807382 
L 785.650636 538.901989 
z
" style="fill:#c30000;fill-opacity:0.6;"/>
    <path clip-path="url(#p56f8f68a74)" d="M 785.244426 557.198402 
L 785.650636 538.901989 
L 767.59603 519.807382 
L 767.29718 538.098183 
z
" style="fill:#6a0000;fill-opacity:0.6;"/>
    <path clip-path="url(#p56f8f68a74)" d="M 822.501456 539.07265 
L 823.122746 520.781528 
L 785.650636 538.901989 
L 785.244426 557.198402 
z
" style="fill:#e10000;fill-opacity:0.6;"/>
    <path clip-path="url(#p56f8f68a74)" d="M 639.984915 517.317013 
L 601.900504 535.178598 
L 599.189319 460.716674 
L 638.188977 442.890533 
z
" style="fill:#6a0000;fill-opacity:0.6;"/>
    <path clip-path="url(#p56f8f68a74)" d="M 656.996739 536.151158 
L 639.984915 517.317013 
L 638.188977 442.890533 
L 655.593121 461.68745 
z
" style="fill:#e10000;fill-opacity:0.6;"/>
    <path clip-path="url(#p56f8f68a74)" d="M 679.437979 313.937979 
L 662.121675 296.342661 
L 623.808663 313.029338 
L 640.983607 330.840251 
z
" style="fill:#c30000;fill-opacity:0.6;"/>
    <path clip-path="url(#p56f8f68a74)" d="M 729.717125 556.212061 
L 729.87802 519.403576 
L 712.082346 500.328687 
L 712.128953 537.124353 
z
" style="fill:#6a0000;fill-opacity:0.6;"/>
    <path clip-path="url(#p56f8f68a74)" d="M 767.29718 538.098183 
L 767.898389 501.301794 
L 729.87802 519.403576 
L 729.717125 556.212061 
z
" style="fill:#e10000;fill-opacity:0.6;"/>
    <path clip-path="url(#p56f8f68a74)" d="M 674.226304 555.226368 
L 673.48005 499.686535 
L 655.950239 480.633 
L 656.996739 536.151158 
z
" style="fill:#6a0000;fill-opacity:0.6;"/>
    <path clip-path="url(#p56f8f68a74)" d="M 767.898389 501.301794 
L 749.967501 482.458451 
L 712.082346 500.328687 
L 729.87802 519.403576 
z
" style="fill:#c30000;fill-opacity:0.6;"/>
    <path clip-path="url(#p56f8f68a74)" d="M 712.128953 537.124353 
L 712.058629 481.604985 
L 673.48005 499.686535 
L 674.226304 555.226368 
z
" style="fill:#e10000;fill-opacity:0.6;"/>
    <path clip-path="url(#p56f8f68a74)" d="M 605.567137 255.714639 
L 588.638599 238.405399 
L 549.685044 254.820745 
L 566.464968 272.343139 
z
" style="fill:#c30000;fill-opacity:0.6;"/>
    <path clip-path="url(#p56f8f68a74)" d="M 618.771928 554.241323 
L 616.44615 479.74717 
L 599.189319 460.716674 
L 601.900504 535.178598 
z
" style="fill:#6a0000;fill-opacity:0.6;"/>
    <path clip-path="url(#p56f8f68a74)" d="M 656.996739 536.151158 
L 655.593121 461.68745 
L 616.44615 479.74717 
L 618.771928 554.241323 
z
" style="fill:#e10000;fill-opacity:0.6;"/>
    <path clip-path="url(#p56f8f68a74)" d="M 712.058629 481.604985 
L 694.387642 462.784016 
L 655.950239 480.633 
L 673.48005 499.686535 
z
" style="fill:#c30000;fill-opacity:0.6;"/>
    <path clip-path="url(#p56f8f68a74)" d="M 655.593121 461.68745 
L 638.188977 442.890533 
L 599.189319 460.716674 
L 616.44615 479.74717 
z
" style="fill:#c30000;fill-opacity:0.6;"/>
   </g>
   <g id="legend_1">
    <g id="patch_6">
     <path d="M 939.8424 115.546925 
L 983.3924 115.546925 
Q 985.3924 115.546925 985.3924 113.546925 
L 985.3924 94.8688 
Q 985.3924 92.8688 983.3924 92.8688 
L 939.8424 92.8688 
Q 937.8424 92.8688 937.8424 94.8688 
L 937.8424 113.546925 
Q 937.8424 115.546925 939.8424 115.546925 
z
" style="fill:#ffffff;opacity:0.8;stroke:#cccccc;stroke-linejoin:miter;"/>
    </g>
    <g id="text_22">
     <!-- 3D Bars -->
     <g transform="translate(941.8424 104.467238)scale(0.1 -0.1)">
      <defs>
       <path d="M 1259 4147 
L 1259 519 
L 2022 519 
Q 2988 519 3436 956 
Q 3884 1394 3884 2338 
Q 3884 3275 3436 3711 
Q 2988 4147 2022 4147 
L 1259 4147 
z
M 628 4666 
L 1925 4666 
Q 3281 4666 3915 4102 
Q 4550 3538 4550 2338 
Q 4550 1131 3912 565 
Q 3275 0 1925 0 
L 628 0 
L 628 4666 
z
" id="DejaVuSans-44" transform="scale(0.015625)"/>
       <path d="M 1259 2228 
L 1259 519 
L 2272 519 
Q 2781 519 3026 730 
Q 3272 941 3272 1375 
Q 3272 1813 3026 2020 
Q 2781 2228 2272 2228 
L 1259 2228 
z
M 1259 4147 
L 1259 2741 
L 2194 2741 
Q 2656 2741 2882 2914 
Q 3109 3088 3109 3444 
Q 3109 3797 2882 3972 
Q 2656 4147 2194 4147 
L 1259 4147 
z
M 628 4666 
L 2241 4666 
Q 2963 4666 3353 4366 
Q 3744 4066 3744 3513 
Q 3744 3084 3544 2831 
Q 3344 2578 2956 2516 
Q 3422 2416 3680 2098 
Q 3938 1781 3938 1306 
Q 3938 681 3513 340 
Q 3088 0 2303 0 
L 628 0 
L 628 4666 
z
" id="DejaVuSans-42" transform="scale(0.015625)"/>
       <path d="M 2194 1759 
Q 1497 1759 1228 1600 
Q 959 1441 959 1056 
Q 959 750 1161 570 
Q 1363 391 1709 391 
Q 2188 391 2477 730 
Q 2766 1069 2766 1631 
L 2766 1759 
L 2194 1759 
z
M 3341 1997 
L 3341 0 
L 2766 0 
L 2766 531 
Q 2569 213 2275 61 
Q 1981 -91 1556 -91 
Q 1019 -91 701 211 
Q 384 513 384 1019 
Q 384 1609 779 1909 
Q 1175 2209 1959 2209 
L 2766 2209 
L 2766 2266 
Q 2766 2663 2505 2880 
Q 2244 3097 1772 3097 
Q 1472 3097 1187 3025 
Q 903 2953 641 2809 
L 641 3341 
Q 956 3463 1253 3523 
Q 1550 3584 1831 3584 
Q 2591 3584 2966 3190 
Q 3341 2797 3341 1997 
z
" id="DejaVuSans-61" transform="scale(0.015625)"/>
       <path d="M 2631 2963 
Q 2534 3019 2420 3045 
Q 2306 3072 2169 3072 
Q 1681 3072 1420 2755 
Q 1159 2438 1159 1844 
L 1159 0 
L 581 0 
L 581 3500 
L 1159 3500 
L 1159 2956 
Q 1341 3275 1631 3429 
Q 1922 3584 2338 3584 
Q 2397 3584 2469 3576 
Q 2541 3569 2628 3553 
L 2631 2963 
z
" id="DejaVuSans-72" transform="scale(0.015625)"/>
      </defs>
      <use xlink:href="#DejaVuSans-33"/>
      <use x="63.623047" xlink:href="#DejaVuSans-44"/>
      <use x="140.625" xlink:href="#DejaVuSans-20"/>
      <use x="172.412109" xlink:href="#DejaVuSans-42"/>
      <use x="241.015625" xlink:href="#DejaVuSans-61"/>
      <use x="302.294922" xlink:href="#DejaVuSans-72"/>
      <use x="343.408203" xlink:href="#DejaVuSans-73"/>
     </g>
    </g>
   </g>
  </g>
 </g>
 <defs>
  <clipPath id="p56f8f68a74">
   <rect height="563.8248" width="563.8248" x="426.5676" y="87.8688"/>
  </clipPath>
 </defs>
</svg>
