<?xml version="1.0" encoding="utf-8" standalone="no"?>
<!DOCTYPE svg PUBLIC "-//W3C//DTD SVG 1.1//EN"
  "http://www.w3.org/Graphics/SVG/1.1/DTD/svg11.dtd">
<svg height="732.24pt" version="1.1" viewBox="0 0 1382.4 732.24" width="1382.4pt" xmlns="http://www.w3.org/2000/svg" xmlns:xlink="http://www.w3.org/1999/xlink">
 <metadata>
  <rdf:RDF xmlns:cc="http://creativecommons.org/ns#" xmlns:dc="http://purl.org/dc/elements/1.1/" xmlns:rdf="http://www.w3.org/1999/02/22-rdf-syntax-ns#">
   <cc:Work>
    <dc:type rdf:resource="http://purl.org/dc/dcmitype/StillImage"/>
    <dc:date>2021-06-16T13:18:48.000859</dc:date>
    <dc:format>image/svg+xml</dc:format>
    <dc:creator>
     <cc:Agent>
      <dc:title>Matplotlib v3.4.2, https://matplotlib.org/</dc:title>
     </cc:Agent>
    </dc:creator>
   </cc:Work>
  </rdf:RDF>
 </metadata>
 <defs>
  <style type="text/css">*{stroke-linecap:butt;stroke-linejoin:round;}</style>
 </defs>
 <g id="figure_1">
  <g id="patch_1">
   <path d="M 0 732.24 
L 1382.4 732.24 
L 1382.4 0 
L 0 0 
z
" style="fill:#ffffff;"/>
  </g>
  <g id="axes_1">
   <g id="patch_2">
    <path d="M 172.8 651.6936 
L 1244.16 651.6936 
L 1244.16 87.8688 
L 172.8 87.8688 
z
" style="fill:#ffffff;"/>
   </g>
   <g id="PathCollection_1">
    <defs>
     <path d="M 2.95804 0 
L -2.95804 -2.95804 
L -2.95804 2.95804 
z
" id="m520de22cb1" style="stroke:#a53b88;"/>
    </defs>
    <g clip-path="url(#p0781f79083)">
     <use style="fill:#a53b88;stroke:#a53b88;" x="1195.461818" xlink:href="#m520de22cb1" y="241.6392"/>
     <use style="fill:#a53b88;stroke:#a53b88;" x="416.290909" xlink:href="#m520de22cb1" y="113.4972"/>
     <use style="fill:#a53b88;stroke:#a53b88;" x="903.272727" xlink:href="#m520de22cb1" y="292.896"/>
     <use style="fill:#a53b88;stroke:#a53b88;" x="221.498182" xlink:href="#m520de22cb1" y="421.038"/>
     <use style="fill:#a53b88;stroke:#a53b88;" x="854.574545" xlink:href="#m520de22cb1" y="600.4368"/>
     <use style="fill:#a53b88;stroke:#a53b88;" x="1000.669091" xlink:href="#m520de22cb1" y="318.5244"/>
     <use style="fill:#a53b88;stroke:#a53b88;" x="318.894545" xlink:href="#m520de22cb1" y="267.2676"/>
     <use style="fill:#a53b88;stroke:#a53b88;" x="1098.065455" xlink:href="#m520de22cb1" y="472.2948"/>
     <use style="fill:#a53b88;stroke:#a53b88;" x="367.592727" xlink:href="#m520de22cb1" y="395.4096"/>
     <use style="fill:#a53b88;stroke:#a53b88;" x="1049.367273" xlink:href="#m520de22cb1" y="523.5516"/>
    </g>
   </g>
   <g id="PathCollection_2">
    <defs>
     <path d="M -3.082207 -0 
L 3.082207 3.082207 
L 3.082207 -3.082207 
z
" id="m53d9cb6b2e" style="stroke:#f6ba58;"/>
    </defs>
    <g clip-path="url(#p0781f79083)">
     <use style="fill:#f6ba58;stroke:#f6ba58;" x="805.876364" xlink:href="#m53d9cb6b2e" y="421.038"/>
     <use style="fill:#f6ba58;stroke:#f6ba58;" x="854.574545" xlink:href="#m53d9cb6b2e" y="139.1256"/>
     <use style="fill:#f6ba58;stroke:#f6ba58;" x="318.894545" xlink:href="#m53d9cb6b2e" y="549.18"/>
     <use style="fill:#f6ba58;stroke:#f6ba58;" x="757.178182" xlink:href="#m53d9cb6b2e" y="292.896"/>
     <use style="fill:#f6ba58;stroke:#f6ba58;" x="903.272727" xlink:href="#m53d9cb6b2e" y="190.3824"/>
     <use style="fill:#f6ba58;stroke:#f6ba58;" x="562.385455" xlink:href="#m53d9cb6b2e" y="344.1528"/>
     <use style="fill:#f6ba58;stroke:#f6ba58;" x="611.083636" xlink:href="#m53d9cb6b2e" y="164.754"/>
     <use style="fill:#f6ba58;stroke:#f6ba58;" x="1049.367273" xlink:href="#m53d9cb6b2e" y="395.4096"/>
     <use style="fill:#f6ba58;stroke:#f6ba58;" x="1195.461818" xlink:href="#m53d9cb6b2e" y="497.9232"/>
     <use style="fill:#f6ba58;stroke:#f6ba58;" x="513.687273" xlink:href="#m53d9cb6b2e" y="216.0108"/>
    </g>
   </g>
   <g id="PathCollection_3">
    <defs>
     <path d="M -1.47902 2.95804 
L 0 1.47902 
L 1.47902 2.95804 
L 2.95804 1.47902 
L 1.47902 0 
L 2.95804 -1.47902 
L 1.47902 -2.95804 
L 0 -1.47902 
L -1.47902 -2.95804 
L -2.95804 -1.47902 
L -1.47902 0 
L -2.95804 1.47902 
z
" id="m4b32b6862d" style="stroke:#cadb23;"/>
    </defs>
    <g clip-path="url(#p0781f79083)">
     <use style="fill:#cadb23;stroke:#cadb23;" x="318.894545" xlink:href="#m4b32b6862d" y="446.6664"/>
     <use style="fill:#cadb23;stroke:#cadb23;" x="1195.461818" xlink:href="#m4b32b6862d" y="472.2948"/>
     <use style="fill:#cadb23;stroke:#cadb23;" x="1146.763636" xlink:href="#m4b32b6862d" y="267.2676"/>
     <use style="fill:#cadb23;stroke:#cadb23;" x="416.290909" xlink:href="#m4b32b6862d" y="164.754"/>
     <use style="fill:#cadb23;stroke:#cadb23;" x="562.385455" xlink:href="#m4b32b6862d" y="292.896"/>
     <use style="fill:#cadb23;stroke:#cadb23;" x="757.178182" xlink:href="#m4b32b6862d" y="395.4096"/>
     <use style="fill:#cadb23;stroke:#cadb23;" x="1098.065455" xlink:href="#m4b32b6862d" y="318.5244"/>
     <use style="fill:#cadb23;stroke:#cadb23;" x="805.876364" xlink:href="#m4b32b6862d" y="523.5516"/>
     <use style="fill:#cadb23;stroke:#cadb23;" x="513.687273" xlink:href="#m4b32b6862d" y="421.038"/>
     <use style="fill:#cadb23;stroke:#cadb23;" x="367.592727" xlink:href="#m4b32b6862d" y="626.0652"/>
    </g>
   </g>
   <g id="PathCollection_4">
    <defs>
     <path d="M -2.828427 2.828427 
L 2.828427 -2.828427 
M -2.828427 -2.828427 
L 2.828427 2.828427 
" id="mffe7837ed7" style="stroke:#6cfb29;stroke-width:1.5;"/>
    </defs>
    <g clip-path="url(#p0781f79083)">
     <use style="fill:#6cfb29;stroke:#6cfb29;stroke-width:1.5;" x="1098.065455" xlink:href="#mffe7837ed7" y="574.8084"/>
     <use style="fill:#6cfb29;stroke:#6cfb29;stroke-width:1.5;" x="367.592727" xlink:href="#mffe7837ed7" y="139.1256"/>
     <use style="fill:#6cfb29;stroke:#6cfb29;stroke-width:1.5;" x="416.290909" xlink:href="#mffe7837ed7" y="497.9232"/>
     <use style="fill:#6cfb29;stroke:#6cfb29;stroke-width:1.5;" x="513.687273" xlink:href="#mffe7837ed7" y="113.4972"/>
     <use style="fill:#6cfb29;stroke:#6cfb29;stroke-width:1.5;" x="1000.669091" xlink:href="#mffe7837ed7" y="600.4368"/>
     <use style="fill:#6cfb29;stroke:#6cfb29;stroke-width:1.5;" x="270.196364" xlink:href="#mffe7837ed7" y="421.038"/>
     <use style="fill:#6cfb29;stroke:#6cfb29;stroke-width:1.5;" x="221.498182" xlink:href="#mffe7837ed7" y="344.1528"/>
     <use style="fill:#6cfb29;stroke:#6cfb29;stroke-width:1.5;" x="464.989091" xlink:href="#mffe7837ed7" y="241.6392"/>
     <use style="fill:#6cfb29;stroke:#6cfb29;stroke-width:1.5;" x="854.574545" xlink:href="#mffe7837ed7" y="318.5244"/>
     <use style="fill:#6cfb29;stroke:#6cfb29;stroke-width:1.5;" x="611.083636" xlink:href="#mffe7837ed7" y="626.0652"/>
    </g>
   </g>
   <g id="PathCollection_5">
    <defs>
     <path d="M 0 0 
L 0 2.95804 
M 0 0 
L 2.366432 -1.47902 
M 0 0 
L -2.366432 -1.47902 
" id="ma0903f39b1" style="stroke:#7bcbc6;stroke-width:1.5;"/>
    </defs>
    <g clip-path="url(#p0781f79083)">
     <use style="fill:#7bcbc6;stroke:#7bcbc6;stroke-width:1.5;" x="951.970909" xlink:href="#ma0903f39b1" y="549.18"/>
     <use style="fill:#7bcbc6;stroke:#7bcbc6;stroke-width:1.5;" x="1146.763636" xlink:href="#ma0903f39b1" y="292.896"/>
     <use style="fill:#7bcbc6;stroke:#7bcbc6;stroke-width:1.5;" x="513.687273" xlink:href="#ma0903f39b1" y="472.2948"/>
     <use style="fill:#7bcbc6;stroke:#7bcbc6;stroke-width:1.5;" x="1195.461818" xlink:href="#ma0903f39b1" y="600.4368"/>
     <use style="fill:#7bcbc6;stroke:#7bcbc6;stroke-width:1.5;" x="854.574545" xlink:href="#ma0903f39b1" y="523.5516"/>
     <use style="fill:#7bcbc6;stroke:#7bcbc6;stroke-width:1.5;" x="611.083636" xlink:href="#ma0903f39b1" y="318.5244"/>
     <use style="fill:#7bcbc6;stroke:#7bcbc6;stroke-width:1.5;" x="903.272727" xlink:href="#ma0903f39b1" y="267.2676"/>
     <use style="fill:#7bcbc6;stroke:#7bcbc6;stroke-width:1.5;" x="464.989091" xlink:href="#ma0903f39b1" y="164.754"/>
     <use style="fill:#7bcbc6;stroke:#7bcbc6;stroke-width:1.5;" x="318.894545" xlink:href="#ma0903f39b1" y="113.4972"/>
     <use style="fill:#7bcbc6;stroke:#7bcbc6;stroke-width:1.5;" x="416.290909" xlink:href="#ma0903f39b1" y="190.3824"/>
    </g>
   </g>
   <g id="PathCollection_6">
    <defs>
     <path d="M 0 0 
L 2.828427 0 
M 0 0 
L -1.414214 -2.262742 
M 0 0 
L -1.414214 2.262742 
" id="mac57182933" style="stroke:#e4e0b0;stroke-width:1.5;"/>
    </defs>
    <g clip-path="url(#p0781f79083)">
     <use style="fill:#e4e0b0;stroke:#e4e0b0;stroke-width:1.5;" x="1146.763636" xlink:href="#mac57182933" y="216.0108"/>
     <use style="fill:#e4e0b0;stroke:#e4e0b0;stroke-width:1.5;" x="611.083636" xlink:href="#mac57182933" y="318.5244"/>
     <use style="fill:#e4e0b0;stroke:#e4e0b0;stroke-width:1.5;" x="1195.461818" xlink:href="#mac57182933" y="344.1528"/>
     <use style="fill:#e4e0b0;stroke:#e4e0b0;stroke-width:1.5;" x="903.272727" xlink:href="#mac57182933" y="241.6392"/>
     <use style="fill:#e4e0b0;stroke:#e4e0b0;stroke-width:1.5;" x="318.894545" xlink:href="#mac57182933" y="446.6664"/>
     <use style="fill:#e4e0b0;stroke:#e4e0b0;stroke-width:1.5;" x="367.592727" xlink:href="#mac57182933" y="292.896"/>
     <use style="fill:#e4e0b0;stroke:#e4e0b0;stroke-width:1.5;" x="513.687273" xlink:href="#mac57182933" y="113.4972"/>
     <use style="fill:#e4e0b0;stroke:#e4e0b0;stroke-width:1.5;" x="464.989091" xlink:href="#mac57182933" y="190.3824"/>
     <use style="fill:#e4e0b0;stroke:#e4e0b0;stroke-width:1.5;" x="1000.669091" xlink:href="#mac57182933" y="574.8084"/>
     <use style="fill:#e4e0b0;stroke:#e4e0b0;stroke-width:1.5;" x="1049.367273" xlink:href="#mac57182933" y="395.4096"/>
    </g>
   </g>
   <g id="PathCollection_7">
    <defs>
     <path d="M -1.163886 -2.80987 
L -2.80987 -1.163886 
L -2.80987 1.163886 
L -1.163886 2.80987 
L 1.163886 2.80987 
L 2.80987 1.163886 
L 2.80987 -1.163886 
L 1.163886 -2.80987 
z
" id="m7f52826d9c" style="stroke:#dc4264;"/>
    </defs>
    <g clip-path="url(#p0781f79083)">
     <use style="fill:#dc4264;stroke:#dc4264;" x="854.574545" xlink:href="#m7f52826d9c" y="164.754"/>
     <use style="fill:#dc4264;stroke:#dc4264;" x="1098.065455" xlink:href="#m7f52826d9c" y="267.2676"/>
     <use style="fill:#dc4264;stroke:#dc4264;" x="562.385455" xlink:href="#m7f52826d9c" y="523.5516"/>
     <use style="fill:#dc4264;stroke:#dc4264;" x="805.876364" xlink:href="#m7f52826d9c" y="600.4368"/>
     <use style="fill:#dc4264;stroke:#dc4264;" x="1146.763636" xlink:href="#m7f52826d9c" y="216.0108"/>
     <use style="fill:#dc4264;stroke:#dc4264;" x="757.178182" xlink:href="#m7f52826d9c" y="395.4096"/>
     <use style="fill:#dc4264;stroke:#dc4264;" x="464.989091" xlink:href="#m7f52826d9c" y="446.6664"/>
     <use style="fill:#dc4264;stroke:#dc4264;" x="1195.461818" xlink:href="#m7f52826d9c" y="139.1256"/>
     <use style="fill:#dc4264;stroke:#dc4264;" x="659.781818" xlink:href="#m7f52826d9c" y="113.4972"/>
     <use style="fill:#dc4264;stroke:#dc4264;" x="513.687273" xlink:href="#m7f52826d9c" y="574.8084"/>
    </g>
   </g>
   <g id="PathCollection_8">
    <defs>
     <path d="M -2.783882 2.783882 
L 2.783882 2.783882 
L 2.783882 -2.783882 
L -2.783882 -2.783882 
z
" id="ma30149c7ae" style="stroke:#46aedc;"/>
    </defs>
    <g clip-path="url(#p0781f79083)">
     <use style="fill:#46aedc;stroke:#46aedc;" x="951.970909" xlink:href="#ma30149c7ae" y="267.2676"/>
     <use style="fill:#46aedc;stroke:#46aedc;" x="854.574545" xlink:href="#ma30149c7ae" y="421.038"/>
     <use style="fill:#46aedc;stroke:#46aedc;" x="1195.461818" xlink:href="#ma30149c7ae" y="216.0108"/>
     <use style="fill:#46aedc;stroke:#46aedc;" x="1146.763636" xlink:href="#ma30149c7ae" y="600.4368"/>
     <use style="fill:#46aedc;stroke:#46aedc;" x="659.781818" xlink:href="#ma30149c7ae" y="395.4096"/>
     <use style="fill:#46aedc;stroke:#46aedc;" x="611.083636" xlink:href="#ma30149c7ae" y="549.18"/>
     <use style="fill:#46aedc;stroke:#46aedc;" x="1049.367273" xlink:href="#ma30149c7ae" y="446.6664"/>
     <use style="fill:#46aedc;stroke:#46aedc;" x="318.894545" xlink:href="#ma30149c7ae" y="472.2948"/>
     <use style="fill:#46aedc;stroke:#46aedc;" x="903.272727" xlink:href="#ma30149c7ae" y="241.6392"/>
     <use style="fill:#46aedc;stroke:#46aedc;" x="464.989091" xlink:href="#ma30149c7ae" y="344.1528"/>
    </g>
   </g>
   <g id="PathCollection_9">
    <defs>
     <path d="M 0 -2.95804 
L -2.813263 -0.914085 
L -1.738692 2.393105 
L 1.738692 2.393105 
L 2.813263 -0.914085 
z
" id="ma96d69f8ef" style="stroke:#805ed7;"/>
    </defs>
    <g clip-path="url(#p0781f79083)">
     <use style="fill:#805ed7;stroke:#805ed7;" x="367.592727" xlink:href="#ma96d69f8ef" y="318.5244"/>
     <use style="fill:#805ed7;stroke:#805ed7;" x="659.781818" xlink:href="#ma96d69f8ef" y="446.6664"/>
     <use style="fill:#805ed7;stroke:#805ed7;" x="1049.367273" xlink:href="#ma96d69f8ef" y="549.18"/>
     <use style="fill:#805ed7;stroke:#805ed7;" x="951.970909" xlink:href="#ma96d69f8ef" y="600.4368"/>
     <use style="fill:#805ed7;stroke:#805ed7;" x="221.498182" xlink:href="#ma96d69f8ef" y="113.4972"/>
     <use style="fill:#805ed7;stroke:#805ed7;" x="562.385455" xlink:href="#ma96d69f8ef" y="190.3824"/>
     <use style="fill:#805ed7;stroke:#805ed7;" x="1000.669091" xlink:href="#ma96d69f8ef" y="139.1256"/>
     <use style="fill:#805ed7;stroke:#805ed7;" x="270.196364" xlink:href="#ma96d69f8ef" y="574.8084"/>
     <use style="fill:#805ed7;stroke:#805ed7;" x="611.083636" xlink:href="#ma96d69f8ef" y="292.896"/>
     <use style="fill:#805ed7;stroke:#805ed7;" x="805.876364" xlink:href="#ma96d69f8ef" y="164.754"/>
    </g>
   </g>
   <g id="PathCollection_10">
    <defs>
     <path d="M 2.598305 -0.38559 
L 1.996446 2.688353 
L 1.11136 2.688353 
L 1.274524 1.870995 
Q 0.885086 2.35125 0.386359 2.589839 
Q -0.110828 2.828427 -0.721922 2.828427 
Q -1.409981 2.828427 -1.850215 2.408204 
Q -2.288909 1.986441 -2.288909 1.327629 
Q -2.288909 0.38405 -1.536202 -0.163933 
Q -0.783494 -0.711917 0.538748 -0.711917 
L 1.770172 -0.711917 
L 1.81789 -0.948966 
Q 1.828665 -0.987448 1.833283 -1.032087 
Q 1.8379 -1.078266 1.8379 -1.173701 
Q 1.8379 -1.60316 1.488484 -1.840209 
Q 1.140607 -2.078798 0.509502 -2.078798 
Q 0.076964 -2.078798 -0.378663 -1.96797 
Q -0.832751 -1.857141 -1.313006 -1.635485 
L -1.159078 -2.454382 
Q -0.658812 -2.642174 -0.180096 -2.734531 
Q 0.29862 -2.828427 0.745012 -2.828427 
Q 1.697826 -2.828427 2.195013 -2.414361 
Q 2.69374 -2.001834 2.69374 -1.212183 
Q 2.69374 -1.053637 2.669112 -0.839677 
Q 2.646022 -0.625717 2.598305 -0.38559 
z
M 1.640873 -0.019241 
L 0.755787 -0.019241 
Q -0.332484 -0.019241 -0.8543 0.271683 
Q -1.376116 0.562607 -1.376116 1.173701 
Q -1.376116 1.597003 -1.109821 1.837131 
Q -0.841986 2.077258 -0.370966 2.077258 
Q 0.350956 2.077258 0.889704 1.56006 
Q 1.428452 1.042862 1.602391 0.177787 
L 1.640873 -0.019241 
z
" id="mc87e6fd231" style="stroke:#3809fe;"/>
    </defs>
    <g clip-path="url(#p0781f79083)">
     <use style="fill:#3809fe;stroke:#3809fe;" x="221.498182" xlink:href="#mc87e6fd231" y="472.2948"/>
     <use style="fill:#3809fe;stroke:#3809fe;" x="513.687273" xlink:href="#mc87e6fd231" y="139.1256"/>
     <use style="fill:#3809fe;stroke:#3809fe;" x="464.989091" xlink:href="#mc87e6fd231" y="497.9232"/>
     <use style="fill:#3809fe;stroke:#3809fe;" x="903.272727" xlink:href="#mc87e6fd231" y="626.0652"/>
     <use style="fill:#3809fe;stroke:#3809fe;" x="805.876364" xlink:href="#mc87e6fd231" y="267.2676"/>
     <use style="fill:#3809fe;stroke:#3809fe;" x="1195.461818" xlink:href="#mc87e6fd231" y="292.896"/>
     <use style="fill:#3809fe;stroke:#3809fe;" x="659.781818" xlink:href="#mc87e6fd231" y="216.0108"/>
     <use style="fill:#3809fe;stroke:#3809fe;" x="757.178182" xlink:href="#mc87e6fd231" y="600.4368"/>
     <use style="fill:#3809fe;stroke:#3809fe;" x="951.970909" xlink:href="#mc87e6fd231" y="574.8084"/>
     <use style="fill:#3809fe;stroke:#3809fe;" x="1000.669091" xlink:href="#mc87e6fd231" y="241.6392"/>
    </g>
   </g>
   <g id="PathCollection_11">
    <defs>
     <path d="M -0.085242 2.140456 
Q -0.120803 2.14464 -0.160547 2.145686 
Q -0.199246 2.147778 -0.277689 2.147778 
Q -1.192861 2.147778 -1.709541 1.62273 
Q -2.225175 1.097683 -2.225175 0.173098 
Q -2.225175 -0.372867 -2.027498 -0.92197 
Q -1.829821 -1.471073 -1.477349 -1.90931 
Q -1.068398 -2.412393 -0.556947 -2.663411 
Q -0.045497 -2.915476 0.572636 -2.915476 
Q 1.467936 -2.915476 1.98357 -2.387291 
Q 2.500249 -1.860152 2.500249 -0.948118 
Q 2.500249 0.036084 1.96056 0.85294 
Q 1.421916 1.669796 0.552764 2.00658 
L 1.215871 2.915476 
L 0.477458 2.915476 
L -0.085242 2.140456 
z
M 0.552764 -2.37997 
Q 0.009936 -2.37997 -0.40529 -2.1164 
Q -0.820517 -1.852831 -1.126969 -1.314187 
Q -1.3236 -0.971128 -1.427145 -0.585187 
Q -1.529644 -0.199246 -1.529644 0.192971 
Q -1.529644 0.872812 -1.204366 1.242019 
Q -0.879088 1.611225 -0.283965 1.611225 
Q 0.251542 1.611225 0.670952 1.345564 
Q 1.091408 1.078857 1.389492 0.552764 
Q 1.588215 0.199246 1.692806 -0.187741 
Q 1.797397 -0.575774 1.797397 -0.960669 
Q 1.797397 -1.637373 1.470027 -2.008671 
Q 1.143703 -2.37997 0.552764 -2.37997 
z
" id="mc8add745ee" style="stroke:#ad526d;"/>
    </defs>
    <g clip-path="url(#p0781f79083)">
     <use style="fill:#ad526d;stroke:#ad526d;" x="464.989091" xlink:href="#mc8add745ee" y="549.18"/>
     <use style="fill:#ad526d;stroke:#ad526d;" x="1195.461818" xlink:href="#mc8add745ee" y="164.754"/>
     <use style="fill:#ad526d;stroke:#ad526d;" x="270.196364" xlink:href="#mc8add745ee" y="344.1528"/>
     <use style="fill:#ad526d;stroke:#ad526d;" x="562.385455" xlink:href="#mc8add745ee" y="523.5516"/>
     <use style="fill:#ad526d;stroke:#ad526d;" x="659.781818" xlink:href="#mc8add745ee" y="421.038"/>
     <use style="fill:#ad526d;stroke:#ad526d;" x="221.498182" xlink:href="#mc8add745ee" y="395.4096"/>
     <use style="fill:#ad526d;stroke:#ad526d;" x="854.574545" xlink:href="#mc8add745ee" y="241.6392"/>
     <use style="fill:#ad526d;stroke:#ad526d;" x="318.894545" xlink:href="#mc8add745ee" y="446.6664"/>
     <use style="fill:#ad526d;stroke:#ad526d;" x="416.290909" xlink:href="#mc8add745ee" y="292.896"/>
     <use style="fill:#ad526d;stroke:#ad526d;" x="951.970909" xlink:href="#mc8add745ee" y="267.2676"/>
    </g>
   </g>
   <g id="matplotlib.axis_1">
    <g id="xtick_1">
     <g id="line2d_1">
      <defs>
       <path d="M 0 0 
L 0 3.5 
" id="mdf16451c5b" style="stroke:#000000;stroke-width:0.8;"/>
      </defs>
      <g>
       <use style="stroke:#000000;stroke-width:0.8;" x="221.498182" xlink:href="#mdf16451c5b" y="651.6936"/>
      </g>
     </g>
     <g id="text_1">
      <!-- −10.0 -->
      <g transform="translate(206.175526 666.292037)scale(0.1 -0.1)">
       <defs>
        <path d="M 678 2272 
L 4684 2272 
L 4684 1741 
L 678 1741 
L 678 2272 
z
" id="DejaVuSans-2212" transform="scale(0.015625)"/>
        <path d="M 794 531 
L 1825 531 
L 1825 4091 
L 703 3866 
L 703 4441 
L 1819 4666 
L 2450 4666 
L 2450 531 
L 3481 531 
L 3481 0 
L 794 0 
L 794 531 
z
" id="DejaVuSans-31" transform="scale(0.015625)"/>
        <path d="M 2034 4250 
Q 1547 4250 1301 3770 
Q 1056 3291 1056 2328 
Q 1056 1369 1301 889 
Q 1547 409 2034 409 
Q 2525 409 2770 889 
Q 3016 1369 3016 2328 
Q 3016 3291 2770 3770 
Q 2525 4250 2034 4250 
z
M 2034 4750 
Q 2819 4750 3233 4129 
Q 3647 3509 3647 2328 
Q 3647 1150 3233 529 
Q 2819 -91 2034 -91 
Q 1250 -91 836 529 
Q 422 1150 422 2328 
Q 422 3509 836 4129 
Q 1250 4750 2034 4750 
z
" id="DejaVuSans-30" transform="scale(0.015625)"/>
        <path d="M 684 794 
L 1344 794 
L 1344 0 
L 684 0 
L 684 794 
z
" id="DejaVuSans-2e" transform="scale(0.015625)"/>
       </defs>
       <use xlink:href="#DejaVuSans-2212"/>
       <use x="83.789062" xlink:href="#DejaVuSans-31"/>
       <use x="147.412109" xlink:href="#DejaVuSans-30"/>
       <use x="211.035156" xlink:href="#DejaVuSans-2e"/>
       <use x="242.822266" xlink:href="#DejaVuSans-30"/>
      </g>
     </g>
    </g>
    <g id="xtick_2">
     <g id="line2d_2">
      <g>
       <use style="stroke:#000000;stroke-width:0.8;" x="343.243636" xlink:href="#mdf16451c5b" y="651.6936"/>
      </g>
     </g>
     <g id="text_2">
      <!-- −7.5 -->
      <g transform="translate(331.10223 666.292037)scale(0.1 -0.1)">
       <defs>
        <path d="M 525 4666 
L 3525 4666 
L 3525 4397 
L 1831 0 
L 1172 0 
L 2766 4134 
L 525 4134 
L 525 4666 
z
" id="DejaVuSans-37" transform="scale(0.015625)"/>
        <path d="M 691 4666 
L 3169 4666 
L 3169 4134 
L 1269 4134 
L 1269 2991 
Q 1406 3038 1543 3061 
Q 1681 3084 1819 3084 
Q 2600 3084 3056 2656 
Q 3513 2228 3513 1497 
Q 3513 744 3044 326 
Q 2575 -91 1722 -91 
Q 1428 -91 1123 -41 
Q 819 9 494 109 
L 494 744 
Q 775 591 1075 516 
Q 1375 441 1709 441 
Q 2250 441 2565 725 
Q 2881 1009 2881 1497 
Q 2881 1984 2565 2268 
Q 2250 2553 1709 2553 
Q 1456 2553 1204 2497 
Q 953 2441 691 2322 
L 691 4666 
z
" id="DejaVuSans-35" transform="scale(0.015625)"/>
       </defs>
       <use xlink:href="#DejaVuSans-2212"/>
       <use x="83.789062" xlink:href="#DejaVuSans-37"/>
       <use x="147.412109" xlink:href="#DejaVuSans-2e"/>
       <use x="179.199219" xlink:href="#DejaVuSans-35"/>
      </g>
     </g>
    </g>
    <g id="xtick_3">
     <g id="line2d_3">
      <g>
       <use style="stroke:#000000;stroke-width:0.8;" x="464.989091" xlink:href="#mdf16451c5b" y="651.6936"/>
      </g>
     </g>
     <g id="text_3">
      <!-- −5.0 -->
      <g transform="translate(452.847685 666.292037)scale(0.1 -0.1)">
       <use xlink:href="#DejaVuSans-2212"/>
       <use x="83.789062" xlink:href="#DejaVuSans-35"/>
       <use x="147.412109" xlink:href="#DejaVuSans-2e"/>
       <use x="179.199219" xlink:href="#DejaVuSans-30"/>
      </g>
     </g>
    </g>
    <g id="xtick_4">
     <g id="line2d_4">
      <g>
       <use style="stroke:#000000;stroke-width:0.8;" x="586.734545" xlink:href="#mdf16451c5b" y="651.6936"/>
      </g>
     </g>
     <g id="text_4">
      <!-- −2.5 -->
      <g transform="translate(574.593139 666.292037)scale(0.1 -0.1)">
       <defs>
        <path d="M 1228 531 
L 3431 531 
L 3431 0 
L 469 0 
L 469 531 
Q 828 903 1448 1529 
Q 2069 2156 2228 2338 
Q 2531 2678 2651 2914 
Q 2772 3150 2772 3378 
Q 2772 3750 2511 3984 
Q 2250 4219 1831 4219 
Q 1534 4219 1204 4116 
Q 875 4013 500 3803 
L 500 4441 
Q 881 4594 1212 4672 
Q 1544 4750 1819 4750 
Q 2544 4750 2975 4387 
Q 3406 4025 3406 3419 
Q 3406 3131 3298 2873 
Q 3191 2616 2906 2266 
Q 2828 2175 2409 1742 
Q 1991 1309 1228 531 
z
" id="DejaVuSans-32" transform="scale(0.015625)"/>
       </defs>
       <use xlink:href="#DejaVuSans-2212"/>
       <use x="83.789062" xlink:href="#DejaVuSans-32"/>
       <use x="147.412109" xlink:href="#DejaVuSans-2e"/>
       <use x="179.199219" xlink:href="#DejaVuSans-35"/>
      </g>
     </g>
    </g>
    <g id="xtick_5">
     <g id="line2d_5">
      <g>
       <use style="stroke:#000000;stroke-width:0.8;" x="708.48" xlink:href="#mdf16451c5b" y="651.6936"/>
      </g>
     </g>
     <g id="text_5">
      <!-- 0.0 -->
      <g transform="translate(700.528437 666.292037)scale(0.1 -0.1)">
       <use xlink:href="#DejaVuSans-30"/>
       <use x="63.623047" xlink:href="#DejaVuSans-2e"/>
       <use x="95.410156" xlink:href="#DejaVuSans-30"/>
      </g>
     </g>
    </g>
    <g id="xtick_6">
     <g id="line2d_6">
      <g>
       <use style="stroke:#000000;stroke-width:0.8;" x="830.225455" xlink:href="#mdf16451c5b" y="651.6936"/>
      </g>
     </g>
     <g id="text_6">
      <!-- 2.5 -->
      <g transform="translate(822.273892 666.292037)scale(0.1 -0.1)">
       <use xlink:href="#DejaVuSans-32"/>
       <use x="63.623047" xlink:href="#DejaVuSans-2e"/>
       <use x="95.410156" xlink:href="#DejaVuSans-35"/>
      </g>
     </g>
    </g>
    <g id="xtick_7">
     <g id="line2d_7">
      <g>
       <use style="stroke:#000000;stroke-width:0.8;" x="951.970909" xlink:href="#mdf16451c5b" y="651.6936"/>
      </g>
     </g>
     <g id="text_7">
      <!-- 5.0 -->
      <g transform="translate(944.019347 666.292037)scale(0.1 -0.1)">
       <use xlink:href="#DejaVuSans-35"/>
       <use x="63.623047" xlink:href="#DejaVuSans-2e"/>
       <use x="95.410156" xlink:href="#DejaVuSans-30"/>
      </g>
     </g>
    </g>
    <g id="xtick_8">
     <g id="line2d_8">
      <g>
       <use style="stroke:#000000;stroke-width:0.8;" x="1073.716364" xlink:href="#mdf16451c5b" y="651.6936"/>
      </g>
     </g>
     <g id="text_8">
      <!-- 7.5 -->
      <g transform="translate(1065.764801 666.292037)scale(0.1 -0.1)">
       <use xlink:href="#DejaVuSans-37"/>
       <use x="63.623047" xlink:href="#DejaVuSans-2e"/>
       <use x="95.410156" xlink:href="#DejaVuSans-35"/>
      </g>
     </g>
    </g>
    <g id="xtick_9">
     <g id="line2d_9">
      <g>
       <use style="stroke:#000000;stroke-width:0.8;" x="1195.461818" xlink:href="#mdf16451c5b" y="651.6936"/>
      </g>
     </g>
     <g id="text_9">
      <!-- 10.0 -->
      <g transform="translate(1184.329006 666.292037)scale(0.1 -0.1)">
       <use xlink:href="#DejaVuSans-31"/>
       <use x="63.623047" xlink:href="#DejaVuSans-30"/>
       <use x="127.246094" xlink:href="#DejaVuSans-2e"/>
       <use x="159.033203" xlink:href="#DejaVuSans-30"/>
      </g>
     </g>
    </g>
    <g id="text_10">
     <!-- X Label -->
     <g transform="translate(689.976094 679.970163)scale(0.1 -0.1)">
      <defs>
       <path d="M 403 4666 
L 1081 4666 
L 2241 2931 
L 3406 4666 
L 4084 4666 
L 2584 2425 
L 4184 0 
L 3506 0 
L 2194 1984 
L 872 0 
L 191 0 
L 1856 2491 
L 403 4666 
z
" id="DejaVuSans-58" transform="scale(0.015625)"/>
       <path id="DejaVuSans-20" transform="scale(0.015625)"/>
       <path d="M 628 4666 
L 1259 4666 
L 1259 531 
L 3531 531 
L 3531 0 
L 628 0 
L 628 4666 
z
" id="DejaVuSans-4c" transform="scale(0.015625)"/>
       <path d="M 2194 1759 
Q 1497 1759 1228 1600 
Q 959 1441 959 1056 
Q 959 750 1161 570 
Q 1363 391 1709 391 
Q 2188 391 2477 730 
Q 2766 1069 2766 1631 
L 2766 1759 
L 2194 1759 
z
M 3341 1997 
L 3341 0 
L 2766 0 
L 2766 531 
Q 2569 213 2275 61 
Q 1981 -91 1556 -91 
Q 1019 -91 701 211 
Q 384 513 384 1019 
Q 384 1609 779 1909 
Q 1175 2209 1959 2209 
L 2766 2209 
L 2766 2266 
Q 2766 2663 2505 2880 
Q 2244 3097 1772 3097 
Q 1472 3097 1187 3025 
Q 903 2953 641 2809 
L 641 3341 
Q 956 3463 1253 3523 
Q 1550 3584 1831 3584 
Q 2591 3584 2966 3190 
Q 3341 2797 3341 1997 
z
" id="DejaVuSans-61" transform="scale(0.015625)"/>
       <path d="M 3116 1747 
Q 3116 2381 2855 2742 
Q 2594 3103 2138 3103 
Q 1681 3103 1420 2742 
Q 1159 2381 1159 1747 
Q 1159 1113 1420 752 
Q 1681 391 2138 391 
Q 2594 391 2855 752 
Q 3116 1113 3116 1747 
z
M 1159 2969 
Q 1341 3281 1617 3432 
Q 1894 3584 2278 3584 
Q 2916 3584 3314 3078 
Q 3713 2572 3713 1747 
Q 3713 922 3314 415 
Q 2916 -91 2278 -91 
Q 1894 -91 1617 61 
Q 1341 213 1159 525 
L 1159 0 
L 581 0 
L 581 4863 
L 1159 4863 
L 1159 2969 
z
" id="DejaVuSans-62" transform="scale(0.015625)"/>
       <path d="M 3597 1894 
L 3597 1613 
L 953 1613 
Q 991 1019 1311 708 
Q 1631 397 2203 397 
Q 2534 397 2845 478 
Q 3156 559 3463 722 
L 3463 178 
Q 3153 47 2828 -22 
Q 2503 -91 2169 -91 
Q 1331 -91 842 396 
Q 353 884 353 1716 
Q 353 2575 817 3079 
Q 1281 3584 2069 3584 
Q 2775 3584 3186 3129 
Q 3597 2675 3597 1894 
z
M 3022 2063 
Q 3016 2534 2758 2815 
Q 2500 3097 2075 3097 
Q 1594 3097 1305 2825 
Q 1016 2553 972 2059 
L 3022 2063 
z
" id="DejaVuSans-65" transform="scale(0.015625)"/>
       <path d="M 603 4863 
L 1178 4863 
L 1178 0 
L 603 0 
L 603 4863 
z
" id="DejaVuSans-6c" transform="scale(0.015625)"/>
      </defs>
      <use xlink:href="#DejaVuSans-58"/>
      <use x="68.505859" xlink:href="#DejaVuSans-20"/>
      <use x="100.292969" xlink:href="#DejaVuSans-4c"/>
      <use x="156.005859" xlink:href="#DejaVuSans-61"/>
      <use x="217.285156" xlink:href="#DejaVuSans-62"/>
      <use x="280.761719" xlink:href="#DejaVuSans-65"/>
      <use x="342.285156" xlink:href="#DejaVuSans-6c"/>
     </g>
    </g>
   </g>
   <g id="matplotlib.axis_2">
    <g id="ytick_1">
     <g id="line2d_10">
      <defs>
       <path d="M 0 0 
L -3.5 0 
" id="m35dd0ecf82" style="stroke:#000000;stroke-width:0.8;"/>
      </defs>
      <g>
       <use style="stroke:#000000;stroke-width:0.8;" x="172.8" xlink:href="#m35dd0ecf82" y="626.0652"/>
      </g>
     </g>
     <g id="text_11">
      <!-- −10.0 -->
      <g transform="translate(135.154687 629.864419)scale(0.1 -0.1)">
       <use xlink:href="#DejaVuSans-2212"/>
       <use x="83.789062" xlink:href="#DejaVuSans-31"/>
       <use x="147.412109" xlink:href="#DejaVuSans-30"/>
       <use x="211.035156" xlink:href="#DejaVuSans-2e"/>
       <use x="242.822266" xlink:href="#DejaVuSans-30"/>
      </g>
     </g>
    </g>
    <g id="ytick_2">
     <g id="line2d_11">
      <g>
       <use style="stroke:#000000;stroke-width:0.8;" x="172.8" xlink:href="#m35dd0ecf82" y="561.9942"/>
      </g>
     </g>
     <g id="text_12">
      <!-- −7.5 -->
      <g transform="translate(141.517187 565.793419)scale(0.1 -0.1)">
       <use xlink:href="#DejaVuSans-2212"/>
       <use x="83.789062" xlink:href="#DejaVuSans-37"/>
       <use x="147.412109" xlink:href="#DejaVuSans-2e"/>
       <use x="179.199219" xlink:href="#DejaVuSans-35"/>
      </g>
     </g>
    </g>
    <g id="ytick_3">
     <g id="line2d_12">
      <g>
       <use style="stroke:#000000;stroke-width:0.8;" x="172.8" xlink:href="#m35dd0ecf82" y="497.9232"/>
      </g>
     </g>
     <g id="text_13">
      <!-- −5.0 -->
      <g transform="translate(141.517187 501.722419)scale(0.1 -0.1)">
       <use xlink:href="#DejaVuSans-2212"/>
       <use x="83.789062" xlink:href="#DejaVuSans-35"/>
       <use x="147.412109" xlink:href="#DejaVuSans-2e"/>
       <use x="179.199219" xlink:href="#DejaVuSans-30"/>
      </g>
     </g>
    </g>
    <g id="ytick_4">
     <g id="line2d_13">
      <g>
       <use style="stroke:#000000;stroke-width:0.8;" x="172.8" xlink:href="#m35dd0ecf82" y="433.8522"/>
      </g>
     </g>
     <g id="text_14">
      <!-- −2.5 -->
      <g transform="translate(141.517187 437.651419)scale(0.1 -0.1)">
       <use xlink:href="#DejaVuSans-2212"/>
       <use x="83.789062" xlink:href="#DejaVuSans-32"/>
       <use x="147.412109" xlink:href="#DejaVuSans-2e"/>
       <use x="179.199219" xlink:href="#DejaVuSans-35"/>
      </g>
     </g>
    </g>
    <g id="ytick_5">
     <g id="line2d_14">
      <g>
       <use style="stroke:#000000;stroke-width:0.8;" x="172.8" xlink:href="#m35dd0ecf82" y="369.7812"/>
      </g>
     </g>
     <g id="text_15">
      <!-- 0.0 -->
      <g transform="translate(149.896875 373.580419)scale(0.1 -0.1)">
       <use xlink:href="#DejaVuSans-30"/>
       <use x="63.623047" xlink:href="#DejaVuSans-2e"/>
       <use x="95.410156" xlink:href="#DejaVuSans-30"/>
      </g>
     </g>
    </g>
    <g id="ytick_6">
     <g id="line2d_15">
      <g>
       <use style="stroke:#000000;stroke-width:0.8;" x="172.8" xlink:href="#m35dd0ecf82" y="305.7102"/>
      </g>
     </g>
     <g id="text_16">
      <!-- 2.5 -->
      <g transform="translate(149.896875 309.509419)scale(0.1 -0.1)">
       <use xlink:href="#DejaVuSans-32"/>
       <use x="63.623047" xlink:href="#DejaVuSans-2e"/>
       <use x="95.410156" xlink:href="#DejaVuSans-35"/>
      </g>
     </g>
    </g>
    <g id="ytick_7">
     <g id="line2d_16">
      <g>
       <use style="stroke:#000000;stroke-width:0.8;" x="172.8" xlink:href="#m35dd0ecf82" y="241.6392"/>
      </g>
     </g>
     <g id="text_17">
      <!-- 5.0 -->
      <g transform="translate(149.896875 245.438419)scale(0.1 -0.1)">
       <use xlink:href="#DejaVuSans-35"/>
       <use x="63.623047" xlink:href="#DejaVuSans-2e"/>
       <use x="95.410156" xlink:href="#DejaVuSans-30"/>
      </g>
     </g>
    </g>
    <g id="ytick_8">
     <g id="line2d_17">
      <g>
       <use style="stroke:#000000;stroke-width:0.8;" x="172.8" xlink:href="#m35dd0ecf82" y="177.5682"/>
      </g>
     </g>
     <g id="text_18">
      <!-- 7.5 -->
      <g transform="translate(149.896875 181.367419)scale(0.1 -0.1)">
       <use xlink:href="#DejaVuSans-37"/>
       <use x="63.623047" xlink:href="#DejaVuSans-2e"/>
       <use x="95.410156" xlink:href="#DejaVuSans-35"/>
      </g>
     </g>
    </g>
    <g id="ytick_9">
     <g id="line2d_18">
      <g>
       <use style="stroke:#000000;stroke-width:0.8;" x="172.8" xlink:href="#m35dd0ecf82" y="113.4972"/>
      </g>
     </g>
     <g id="text_19">
      <!-- 10.0 -->
      <g transform="translate(143.534375 117.296419)scale(0.1 -0.1)">
       <use xlink:href="#DejaVuSans-31"/>
       <use x="63.623047" xlink:href="#DejaVuSans-30"/>
       <use x="127.246094" xlink:href="#DejaVuSans-2e"/>
       <use x="159.033203" xlink:href="#DejaVuSans-30"/>
      </g>
     </g>
    </g>
    <g id="text_20">
     <!-- Y Label -->
     <g transform="translate(129.075 387.914012)rotate(-90)scale(0.1 -0.1)">
      <defs>
       <path d="M -13 4666 
L 666 4666 
L 1959 2747 
L 3244 4666 
L 3922 4666 
L 2272 2222 
L 2272 0 
L 1638 0 
L 1638 2222 
L -13 4666 
z
" id="DejaVuSans-59" transform="scale(0.015625)"/>
      </defs>
      <use xlink:href="#DejaVuSans-59"/>
      <use x="61.083984" xlink:href="#DejaVuSans-20"/>
      <use x="92.871094" xlink:href="#DejaVuSans-4c"/>
      <use x="148.583984" xlink:href="#DejaVuSans-61"/>
      <use x="209.863281" xlink:href="#DejaVuSans-62"/>
      <use x="273.339844" xlink:href="#DejaVuSans-65"/>
      <use x="334.863281" xlink:href="#DejaVuSans-6c"/>
     </g>
    </g>
   </g>
   <g id="patch_3">
    <path d="M 172.8 651.6936 
L 172.8 87.8688 
" style="fill:none;stroke:#000000;stroke-linecap:square;stroke-linejoin:miter;stroke-width:0.8;"/>
   </g>
   <g id="patch_4">
    <path d="M 1244.16 651.6936 
L 1244.16 87.8688 
" style="fill:none;stroke:#000000;stroke-linecap:square;stroke-linejoin:miter;stroke-width:0.8;"/>
   </g>
   <g id="patch_5">
    <path d="M 172.8 651.6936 
L 1244.16 651.6936 
" style="fill:none;stroke:#000000;stroke-linecap:square;stroke-linejoin:miter;stroke-width:0.8;"/>
   </g>
   <g id="patch_6">
    <path d="M 172.8 87.8688 
L 1244.16 87.8688 
" style="fill:none;stroke:#000000;stroke-linecap:square;stroke-linejoin:miter;stroke-width:0.8;"/>
   </g>
   <g id="text_21">
    <!-- Scatter Plots -->
    <g transform="translate(670.491562 81.8688)scale(0.12 -0.12)">
     <defs>
      <path d="M 3425 4513 
L 3425 3897 
Q 3066 4069 2747 4153 
Q 2428 4238 2131 4238 
Q 1616 4238 1336 4038 
Q 1056 3838 1056 3469 
Q 1056 3159 1242 3001 
Q 1428 2844 1947 2747 
L 2328 2669 
Q 3034 2534 3370 2195 
Q 3706 1856 3706 1288 
Q 3706 609 3251 259 
Q 2797 -91 1919 -91 
Q 1588 -91 1214 -16 
Q 841 59 441 206 
L 441 856 
Q 825 641 1194 531 
Q 1563 422 1919 422 
Q 2459 422 2753 634 
Q 3047 847 3047 1241 
Q 3047 1584 2836 1778 
Q 2625 1972 2144 2069 
L 1759 2144 
Q 1053 2284 737 2584 
Q 422 2884 422 3419 
Q 422 4038 858 4394 
Q 1294 4750 2059 4750 
Q 2388 4750 2728 4690 
Q 3069 4631 3425 4513 
z
" id="DejaVuSans-53" transform="scale(0.015625)"/>
      <path d="M 3122 3366 
L 3122 2828 
Q 2878 2963 2633 3030 
Q 2388 3097 2138 3097 
Q 1578 3097 1268 2742 
Q 959 2388 959 1747 
Q 959 1106 1268 751 
Q 1578 397 2138 397 
Q 2388 397 2633 464 
Q 2878 531 3122 666 
L 3122 134 
Q 2881 22 2623 -34 
Q 2366 -91 2075 -91 
Q 1284 -91 818 406 
Q 353 903 353 1747 
Q 353 2603 823 3093 
Q 1294 3584 2113 3584 
Q 2378 3584 2631 3529 
Q 2884 3475 3122 3366 
z
" id="DejaVuSans-63" transform="scale(0.015625)"/>
      <path d="M 1172 4494 
L 1172 3500 
L 2356 3500 
L 2356 3053 
L 1172 3053 
L 1172 1153 
Q 1172 725 1289 603 
Q 1406 481 1766 481 
L 2356 481 
L 2356 0 
L 1766 0 
Q 1100 0 847 248 
Q 594 497 594 1153 
L 594 3053 
L 172 3053 
L 172 3500 
L 594 3500 
L 594 4494 
L 1172 4494 
z
" id="DejaVuSans-74" transform="scale(0.015625)"/>
      <path d="M 2631 2963 
Q 2534 3019 2420 3045 
Q 2306 3072 2169 3072 
Q 1681 3072 1420 2755 
Q 1159 2438 1159 1844 
L 1159 0 
L 581 0 
L 581 3500 
L 1159 3500 
L 1159 2956 
Q 1341 3275 1631 3429 
Q 1922 3584 2338 3584 
Q 2397 3584 2469 3576 
Q 2541 3569 2628 3553 
L 2631 2963 
z
" id="DejaVuSans-72" transform="scale(0.015625)"/>
      <path d="M 1259 4147 
L 1259 2394 
L 2053 2394 
Q 2494 2394 2734 2622 
Q 2975 2850 2975 3272 
Q 2975 3691 2734 3919 
Q 2494 4147 2053 4147 
L 1259 4147 
z
M 628 4666 
L 2053 4666 
Q 2838 4666 3239 4311 
Q 3641 3956 3641 3272 
Q 3641 2581 3239 2228 
Q 2838 1875 2053 1875 
L 1259 1875 
L 1259 0 
L 628 0 
L 628 4666 
z
" id="DejaVuSans-50" transform="scale(0.015625)"/>
      <path d="M 1959 3097 
Q 1497 3097 1228 2736 
Q 959 2375 959 1747 
Q 959 1119 1226 758 
Q 1494 397 1959 397 
Q 2419 397 2687 759 
Q 2956 1122 2956 1747 
Q 2956 2369 2687 2733 
Q 2419 3097 1959 3097 
z
M 1959 3584 
Q 2709 3584 3137 3096 
Q 3566 2609 3566 1747 
Q 3566 888 3137 398 
Q 2709 -91 1959 -91 
Q 1206 -91 779 398 
Q 353 888 353 1747 
Q 353 2609 779 3096 
Q 1206 3584 1959 3584 
z
" id="DejaVuSans-6f" transform="scale(0.015625)"/>
      <path d="M 2834 3397 
L 2834 2853 
Q 2591 2978 2328 3040 
Q 2066 3103 1784 3103 
Q 1356 3103 1142 2972 
Q 928 2841 928 2578 
Q 928 2378 1081 2264 
Q 1234 2150 1697 2047 
L 1894 2003 
Q 2506 1872 2764 1633 
Q 3022 1394 3022 966 
Q 3022 478 2636 193 
Q 2250 -91 1575 -91 
Q 1294 -91 989 -36 
Q 684 19 347 128 
L 347 722 
Q 666 556 975 473 
Q 1284 391 1588 391 
Q 1994 391 2212 530 
Q 2431 669 2431 922 
Q 2431 1156 2273 1281 
Q 2116 1406 1581 1522 
L 1381 1569 
Q 847 1681 609 1914 
Q 372 2147 372 2553 
Q 372 3047 722 3315 
Q 1072 3584 1716 3584 
Q 2034 3584 2315 3537 
Q 2597 3491 2834 3397 
z
" id="DejaVuSans-73" transform="scale(0.015625)"/>
     </defs>
     <use xlink:href="#DejaVuSans-53"/>
     <use x="63.476562" xlink:href="#DejaVuSans-63"/>
     <use x="118.457031" xlink:href="#DejaVuSans-61"/>
     <use x="179.736328" xlink:href="#DejaVuSans-74"/>
     <use x="218.945312" xlink:href="#DejaVuSans-74"/>
     <use x="258.154297" xlink:href="#DejaVuSans-65"/>
     <use x="319.677734" xlink:href="#DejaVuSans-72"/>
     <use x="360.791016" xlink:href="#DejaVuSans-20"/>
     <use x="392.578125" xlink:href="#DejaVuSans-50"/>
     <use x="452.880859" xlink:href="#DejaVuSans-6c"/>
     <use x="480.664062" xlink:href="#DejaVuSans-6f"/>
     <use x="541.845703" xlink:href="#DejaVuSans-74"/>
     <use x="581.054688" xlink:href="#DejaVuSans-73"/>
    </g>
   </g>
  </g>
 </g>
 <defs>
  <clipPath id="p0781f79083">
   <rect height="563.8248" width="1071.36" x="172.8" y="87.8688"/>
  </clipPath>
 </defs>
</svg>
