<?xml version="1.0" encoding="utf-8" standalone="no"?>
<!DOCTYPE svg PUBLIC "-//W3C//DTD SVG 1.1//EN"
  "http://www.w3.org/Graphics/SVG/1.1/DTD/svg11.dtd">
<svg height="732.24pt" version="1.1" viewBox="0 0 1382.4 732.24" width="1382.4pt" xmlns="http://www.w3.org/2000/svg" xmlns:xlink="http://www.w3.org/1999/xlink">
 <metadata>
  <rdf:RDF xmlns:cc="http://creativecommons.org/ns#" xmlns:dc="http://purl.org/dc/elements/1.1/" xmlns:rdf="http://www.w3.org/1999/02/22-rdf-syntax-ns#">
   <cc:Work>
    <dc:type rdf:resource="http://purl.org/dc/dcmitype/StillImage"/>
    <dc:date>2021-06-19T14:54:39.863563</dc:date>
    <dc:format>image/svg+xml</dc:format>
    <dc:creator>
     <cc:Agent>
      <dc:title>Matplotlib v3.4.2, https://matplotlib.org/</dc:title>
     </cc:Agent>
    </dc:creator>
   </cc:Work>
  </rdf:RDF>
 </metadata>
 <defs>
  <style type="text/css">*{stroke-linecap:butt;stroke-linejoin:round;}</style>
 </defs>
 <g id="figure_1">
  <g id="patch_1">
   <path d="M 0 732.24 
L 1382.4 732.24 
L 1382.4 0 
L 0 0 
z
" style="fill:#ffffff;"/>
  </g>
  <g id="axes_1">
   <g id="patch_2">
    <path d="M 172.8 651.6936 
L 1244.16 651.6936 
L 1244.16 87.8688 
L 172.8 87.8688 
z
" style="fill:#ffffff;"/>
   </g>
   <g id="matplotlib.axis_1">
    <g id="xtick_1">
     <g id="line2d_1">
      <defs>
       <path d="M 0 0 
L 0 3.5 
" id="m7c83f3cfc8" style="stroke:#000000;stroke-width:0.8;"/>
      </defs>
      <g>
       <use style="stroke:#000000;stroke-width:0.8;" x="221.498182" xlink:href="#m7c83f3cfc8" y="651.6936"/>
      </g>
     </g>
     <g id="text_1">
      <!-- 0 -->
      <g transform="translate(218.316932 666.292037)scale(0.1 -0.1)">
       <defs>
        <path d="M 2034 4250 
Q 1547 4250 1301 3770 
Q 1056 3291 1056 2328 
Q 1056 1369 1301 889 
Q 1547 409 2034 409 
Q 2525 409 2770 889 
Q 3016 1369 3016 2328 
Q 3016 3291 2770 3770 
Q 2525 4250 2034 4250 
z
M 2034 4750 
Q 2819 4750 3233 4129 
Q 3647 3509 3647 2328 
Q 3647 1150 3233 529 
Q 2819 -91 2034 -91 
Q 1250 -91 836 529 
Q 422 1150 422 2328 
Q 422 3509 836 4129 
Q 1250 4750 2034 4750 
z
" id="DejaVuSans-30" transform="scale(0.015625)"/>
       </defs>
       <use xlink:href="#DejaVuSans-30"/>
      </g>
     </g>
    </g>
    <g id="xtick_2">
     <g id="line2d_2">
      <g>
       <use style="stroke:#000000;stroke-width:0.8;" x="416.681275" xlink:href="#m7c83f3cfc8" y="651.6936"/>
      </g>
     </g>
     <g id="text_2">
      <!-- 200 -->
      <g transform="translate(407.137525 666.292037)scale(0.1 -0.1)">
       <defs>
        <path d="M 1228 531 
L 3431 531 
L 3431 0 
L 469 0 
L 469 531 
Q 828 903 1448 1529 
Q 2069 2156 2228 2338 
Q 2531 2678 2651 2914 
Q 2772 3150 2772 3378 
Q 2772 3750 2511 3984 
Q 2250 4219 1831 4219 
Q 1534 4219 1204 4116 
Q 875 4013 500 3803 
L 500 4441 
Q 881 4594 1212 4672 
Q 1544 4750 1819 4750 
Q 2544 4750 2975 4387 
Q 3406 4025 3406 3419 
Q 3406 3131 3298 2873 
Q 3191 2616 2906 2266 
Q 2828 2175 2409 1742 
Q 1991 1309 1228 531 
z
" id="DejaVuSans-32" transform="scale(0.015625)"/>
       </defs>
       <use xlink:href="#DejaVuSans-32"/>
       <use x="63.623047" xlink:href="#DejaVuSans-30"/>
       <use x="127.246094" xlink:href="#DejaVuSans-30"/>
      </g>
     </g>
    </g>
    <g id="xtick_3">
     <g id="line2d_3">
      <g>
       <use style="stroke:#000000;stroke-width:0.8;" x="611.864369" xlink:href="#m7c83f3cfc8" y="651.6936"/>
      </g>
     </g>
     <g id="text_3">
      <!-- 400 -->
      <g transform="translate(602.320619 666.292037)scale(0.1 -0.1)">
       <defs>
        <path d="M 2419 4116 
L 825 1625 
L 2419 1625 
L 2419 4116 
z
M 2253 4666 
L 3047 4666 
L 3047 1625 
L 3713 1625 
L 3713 1100 
L 3047 1100 
L 3047 0 
L 2419 0 
L 2419 1100 
L 313 1100 
L 313 1709 
L 2253 4666 
z
" id="DejaVuSans-34" transform="scale(0.015625)"/>
       </defs>
       <use xlink:href="#DejaVuSans-34"/>
       <use x="63.623047" xlink:href="#DejaVuSans-30"/>
       <use x="127.246094" xlink:href="#DejaVuSans-30"/>
      </g>
     </g>
    </g>
    <g id="xtick_4">
     <g id="line2d_4">
      <g>
       <use style="stroke:#000000;stroke-width:0.8;" x="807.047462" xlink:href="#m7c83f3cfc8" y="651.6936"/>
      </g>
     </g>
     <g id="text_4">
      <!-- 600 -->
      <g transform="translate(797.503712 666.292037)scale(0.1 -0.1)">
       <defs>
        <path d="M 2113 2584 
Q 1688 2584 1439 2293 
Q 1191 2003 1191 1497 
Q 1191 994 1439 701 
Q 1688 409 2113 409 
Q 2538 409 2786 701 
Q 3034 994 3034 1497 
Q 3034 2003 2786 2293 
Q 2538 2584 2113 2584 
z
M 3366 4563 
L 3366 3988 
Q 3128 4100 2886 4159 
Q 2644 4219 2406 4219 
Q 1781 4219 1451 3797 
Q 1122 3375 1075 2522 
Q 1259 2794 1537 2939 
Q 1816 3084 2150 3084 
Q 2853 3084 3261 2657 
Q 3669 2231 3669 1497 
Q 3669 778 3244 343 
Q 2819 -91 2113 -91 
Q 1303 -91 875 529 
Q 447 1150 447 2328 
Q 447 3434 972 4092 
Q 1497 4750 2381 4750 
Q 2619 4750 2861 4703 
Q 3103 4656 3366 4563 
z
" id="DejaVuSans-36" transform="scale(0.015625)"/>
       </defs>
       <use xlink:href="#DejaVuSans-36"/>
       <use x="63.623047" xlink:href="#DejaVuSans-30"/>
       <use x="127.246094" xlink:href="#DejaVuSans-30"/>
      </g>
     </g>
    </g>
    <g id="xtick_5">
     <g id="line2d_5">
      <g>
       <use style="stroke:#000000;stroke-width:0.8;" x="1002.230556" xlink:href="#m7c83f3cfc8" y="651.6936"/>
      </g>
     </g>
     <g id="text_5">
      <!-- 800 -->
      <g transform="translate(992.686806 666.292037)scale(0.1 -0.1)">
       <defs>
        <path d="M 2034 2216 
Q 1584 2216 1326 1975 
Q 1069 1734 1069 1313 
Q 1069 891 1326 650 
Q 1584 409 2034 409 
Q 2484 409 2743 651 
Q 3003 894 3003 1313 
Q 3003 1734 2745 1975 
Q 2488 2216 2034 2216 
z
M 1403 2484 
Q 997 2584 770 2862 
Q 544 3141 544 3541 
Q 544 4100 942 4425 
Q 1341 4750 2034 4750 
Q 2731 4750 3128 4425 
Q 3525 4100 3525 3541 
Q 3525 3141 3298 2862 
Q 3072 2584 2669 2484 
Q 3125 2378 3379 2068 
Q 3634 1759 3634 1313 
Q 3634 634 3220 271 
Q 2806 -91 2034 -91 
Q 1263 -91 848 271 
Q 434 634 434 1313 
Q 434 1759 690 2068 
Q 947 2378 1403 2484 
z
M 1172 3481 
Q 1172 3119 1398 2916 
Q 1625 2713 2034 2713 
Q 2441 2713 2670 2916 
Q 2900 3119 2900 3481 
Q 2900 3844 2670 4047 
Q 2441 4250 2034 4250 
Q 1625 4250 1398 4047 
Q 1172 3844 1172 3481 
z
" id="DejaVuSans-38" transform="scale(0.015625)"/>
       </defs>
       <use xlink:href="#DejaVuSans-38"/>
       <use x="63.623047" xlink:href="#DejaVuSans-30"/>
       <use x="127.246094" xlink:href="#DejaVuSans-30"/>
      </g>
     </g>
    </g>
    <g id="xtick_6">
     <g id="line2d_6">
      <g>
       <use style="stroke:#000000;stroke-width:0.8;" x="1197.413649" xlink:href="#m7c83f3cfc8" y="651.6936"/>
      </g>
     </g>
     <g id="text_6">
      <!-- 1000 -->
      <g transform="translate(1184.688649 666.292037)scale(0.1 -0.1)">
       <defs>
        <path d="M 794 531 
L 1825 531 
L 1825 4091 
L 703 3866 
L 703 4441 
L 1819 4666 
L 2450 4666 
L 2450 531 
L 3481 531 
L 3481 0 
L 794 0 
L 794 531 
z
" id="DejaVuSans-31" transform="scale(0.015625)"/>
       </defs>
       <use xlink:href="#DejaVuSans-31"/>
       <use x="63.623047" xlink:href="#DejaVuSans-30"/>
       <use x="127.246094" xlink:href="#DejaVuSans-30"/>
       <use x="190.869141" xlink:href="#DejaVuSans-30"/>
      </g>
     </g>
    </g>
    <g id="text_7">
     <!-- X Axis -->
     <g transform="translate(693.0925 679.970163)scale(0.1 -0.1)">
      <defs>
       <path d="M 403 4666 
L 1081 4666 
L 2241 2931 
L 3406 4666 
L 4084 4666 
L 2584 2425 
L 4184 0 
L 3506 0 
L 2194 1984 
L 872 0 
L 191 0 
L 1856 2491 
L 403 4666 
z
" id="DejaVuSans-58" transform="scale(0.015625)"/>
       <path id="DejaVuSans-20" transform="scale(0.015625)"/>
       <path d="M 2188 4044 
L 1331 1722 
L 3047 1722 
L 2188 4044 
z
M 1831 4666 
L 2547 4666 
L 4325 0 
L 3669 0 
L 3244 1197 
L 1141 1197 
L 716 0 
L 50 0 
L 1831 4666 
z
" id="DejaVuSans-41" transform="scale(0.015625)"/>
       <path d="M 3513 3500 
L 2247 1797 
L 3578 0 
L 2900 0 
L 1881 1375 
L 863 0 
L 184 0 
L 1544 1831 
L 300 3500 
L 978 3500 
L 1906 2253 
L 2834 3500 
L 3513 3500 
z
" id="DejaVuSans-78" transform="scale(0.015625)"/>
       <path d="M 603 3500 
L 1178 3500 
L 1178 0 
L 603 0 
L 603 3500 
z
M 603 4863 
L 1178 4863 
L 1178 4134 
L 603 4134 
L 603 4863 
z
" id="DejaVuSans-69" transform="scale(0.015625)"/>
       <path d="M 2834 3397 
L 2834 2853 
Q 2591 2978 2328 3040 
Q 2066 3103 1784 3103 
Q 1356 3103 1142 2972 
Q 928 2841 928 2578 
Q 928 2378 1081 2264 
Q 1234 2150 1697 2047 
L 1894 2003 
Q 2506 1872 2764 1633 
Q 3022 1394 3022 966 
Q 3022 478 2636 193 
Q 2250 -91 1575 -91 
Q 1294 -91 989 -36 
Q 684 19 347 128 
L 347 722 
Q 666 556 975 473 
Q 1284 391 1588 391 
Q 1994 391 2212 530 
Q 2431 669 2431 922 
Q 2431 1156 2273 1281 
Q 2116 1406 1581 1522 
L 1381 1569 
Q 847 1681 609 1914 
Q 372 2147 372 2553 
Q 372 3047 722 3315 
Q 1072 3584 1716 3584 
Q 2034 3584 2315 3537 
Q 2597 3491 2834 3397 
z
" id="DejaVuSans-73" transform="scale(0.015625)"/>
      </defs>
      <use xlink:href="#DejaVuSans-58"/>
      <use x="68.505859" xlink:href="#DejaVuSans-20"/>
      <use x="100.292969" xlink:href="#DejaVuSans-41"/>
      <use x="168.701172" xlink:href="#DejaVuSans-78"/>
      <use x="227.880859" xlink:href="#DejaVuSans-69"/>
      <use x="255.664062" xlink:href="#DejaVuSans-73"/>
     </g>
    </g>
   </g>
   <g id="matplotlib.axis_2">
    <g id="ytick_1">
     <g id="line2d_7">
      <defs>
       <path d="M 0 0 
L -3.5 0 
" id="m67033889f3" style="stroke:#000000;stroke-width:0.8;"/>
      </defs>
      <g>
       <use style="stroke:#000000;stroke-width:0.8;" x="172.8" xlink:href="#m67033889f3" y="626.0652"/>
      </g>
     </g>
     <g id="text_8">
      <!-- 0 -->
      <g transform="translate(159.4375 629.864419)scale(0.1 -0.1)">
       <use xlink:href="#DejaVuSans-30"/>
      </g>
     </g>
    </g>
    <g id="ytick_2">
     <g id="line2d_8">
      <g>
       <use style="stroke:#000000;stroke-width:0.8;" x="172.8" xlink:href="#m67033889f3" y="561.930065"/>
      </g>
     </g>
     <g id="text_9">
      <!-- 250 -->
      <g transform="translate(146.7125 565.729284)scale(0.1 -0.1)">
       <defs>
        <path d="M 691 4666 
L 3169 4666 
L 3169 4134 
L 1269 4134 
L 1269 2991 
Q 1406 3038 1543 3061 
Q 1681 3084 1819 3084 
Q 2600 3084 3056 2656 
Q 3513 2228 3513 1497 
Q 3513 744 3044 326 
Q 2575 -91 1722 -91 
Q 1428 -91 1123 -41 
Q 819 9 494 109 
L 494 744 
Q 775 591 1075 516 
Q 1375 441 1709 441 
Q 2250 441 2565 725 
Q 2881 1009 2881 1497 
Q 2881 1984 2565 2268 
Q 2250 2553 1709 2553 
Q 1456 2553 1204 2497 
Q 953 2441 691 2322 
L 691 4666 
z
" id="DejaVuSans-35" transform="scale(0.015625)"/>
       </defs>
       <use xlink:href="#DejaVuSans-32"/>
       <use x="63.623047" xlink:href="#DejaVuSans-35"/>
       <use x="127.246094" xlink:href="#DejaVuSans-30"/>
      </g>
     </g>
    </g>
    <g id="ytick_3">
     <g id="line2d_9">
      <g>
       <use style="stroke:#000000;stroke-width:0.8;" x="172.8" xlink:href="#m67033889f3" y="497.79493"/>
      </g>
     </g>
     <g id="text_10">
      <!-- 500 -->
      <g transform="translate(146.7125 501.594148)scale(0.1 -0.1)">
       <use xlink:href="#DejaVuSans-35"/>
       <use x="63.623047" xlink:href="#DejaVuSans-30"/>
       <use x="127.246094" xlink:href="#DejaVuSans-30"/>
      </g>
     </g>
    </g>
    <g id="ytick_4">
     <g id="line2d_10">
      <g>
       <use style="stroke:#000000;stroke-width:0.8;" x="172.8" xlink:href="#m67033889f3" y="433.659795"/>
      </g>
     </g>
     <g id="text_11">
      <!-- 750 -->
      <g transform="translate(146.7125 437.459013)scale(0.1 -0.1)">
       <defs>
        <path d="M 525 4666 
L 3525 4666 
L 3525 4397 
L 1831 0 
L 1172 0 
L 2766 4134 
L 525 4134 
L 525 4666 
z
" id="DejaVuSans-37" transform="scale(0.015625)"/>
       </defs>
       <use xlink:href="#DejaVuSans-37"/>
       <use x="63.623047" xlink:href="#DejaVuSans-35"/>
       <use x="127.246094" xlink:href="#DejaVuSans-30"/>
      </g>
     </g>
    </g>
    <g id="ytick_5">
     <g id="line2d_11">
      <g>
       <use style="stroke:#000000;stroke-width:0.8;" x="172.8" xlink:href="#m67033889f3" y="369.524659"/>
      </g>
     </g>
     <g id="text_12">
      <!-- 1000 -->
      <g transform="translate(140.35 373.323878)scale(0.1 -0.1)">
       <use xlink:href="#DejaVuSans-31"/>
       <use x="63.623047" xlink:href="#DejaVuSans-30"/>
       <use x="127.246094" xlink:href="#DejaVuSans-30"/>
       <use x="190.869141" xlink:href="#DejaVuSans-30"/>
      </g>
     </g>
    </g>
    <g id="ytick_6">
     <g id="line2d_12">
      <g>
       <use style="stroke:#000000;stroke-width:0.8;" x="172.8" xlink:href="#m67033889f3" y="305.389524"/>
      </g>
     </g>
     <g id="text_13">
      <!-- 1250 -->
      <g transform="translate(140.35 309.188743)scale(0.1 -0.1)">
       <use xlink:href="#DejaVuSans-31"/>
       <use x="63.623047" xlink:href="#DejaVuSans-32"/>
       <use x="127.246094" xlink:href="#DejaVuSans-35"/>
       <use x="190.869141" xlink:href="#DejaVuSans-30"/>
      </g>
     </g>
    </g>
    <g id="ytick_7">
     <g id="line2d_13">
      <g>
       <use style="stroke:#000000;stroke-width:0.8;" x="172.8" xlink:href="#m67033889f3" y="241.254389"/>
      </g>
     </g>
     <g id="text_14">
      <!-- 1500 -->
      <g transform="translate(140.35 245.053608)scale(0.1 -0.1)">
       <use xlink:href="#DejaVuSans-31"/>
       <use x="63.623047" xlink:href="#DejaVuSans-35"/>
       <use x="127.246094" xlink:href="#DejaVuSans-30"/>
       <use x="190.869141" xlink:href="#DejaVuSans-30"/>
      </g>
     </g>
    </g>
    <g id="ytick_8">
     <g id="line2d_14">
      <g>
       <use style="stroke:#000000;stroke-width:0.8;" x="172.8" xlink:href="#m67033889f3" y="177.119254"/>
      </g>
     </g>
     <g id="text_15">
      <!-- 1750 -->
      <g transform="translate(140.35 180.918473)scale(0.1 -0.1)">
       <use xlink:href="#DejaVuSans-31"/>
       <use x="63.623047" xlink:href="#DejaVuSans-37"/>
       <use x="127.246094" xlink:href="#DejaVuSans-35"/>
       <use x="190.869141" xlink:href="#DejaVuSans-30"/>
      </g>
     </g>
    </g>
    <g id="ytick_9">
     <g id="line2d_15">
      <g>
       <use style="stroke:#000000;stroke-width:0.8;" x="172.8" xlink:href="#m67033889f3" y="112.984119"/>
      </g>
     </g>
     <g id="text_16">
      <!-- 2000 -->
      <g transform="translate(140.35 116.783338)scale(0.1 -0.1)">
       <use xlink:href="#DejaVuSans-32"/>
       <use x="63.623047" xlink:href="#DejaVuSans-30"/>
       <use x="127.246094" xlink:href="#DejaVuSans-30"/>
       <use x="190.869141" xlink:href="#DejaVuSans-30"/>
      </g>
     </g>
    </g>
    <g id="text_17">
     <!-- Y Axis -->
     <g transform="translate(134.270312 384.797606)rotate(-90)scale(0.1 -0.1)">
      <defs>
       <path d="M -13 4666 
L 666 4666 
L 1959 2747 
L 3244 4666 
L 3922 4666 
L 2272 2222 
L 2272 0 
L 1638 0 
L 1638 2222 
L -13 4666 
z
" id="DejaVuSans-59" transform="scale(0.015625)"/>
      </defs>
      <use xlink:href="#DejaVuSans-59"/>
      <use x="61.083984" xlink:href="#DejaVuSans-20"/>
      <use x="92.871094" xlink:href="#DejaVuSans-41"/>
      <use x="161.279297" xlink:href="#DejaVuSans-78"/>
      <use x="220.458984" xlink:href="#DejaVuSans-69"/>
      <use x="248.242188" xlink:href="#DejaVuSans-73"/>
     </g>
    </g>
   </g>
   <g id="line2d_16">
    <path clip-path="url(#p3a8861b197)" d="M 221.498182 592.458389 
L 225.401844 589.636443 
L 227.353675 537.815254 
L 227.353675 563.982389 
L 229.305506 600.924227 
L 239.06466 570.139362 
L 239.06466 582.709849 
L 241.016491 517.292011 
L 247.847899 575.270173 
L 250.775646 569.369741 
L 250.775646 566.804335 
L 251.751561 609.903146 
L 254.679308 559.108119 
L 262.486631 589.892984 
L 273.221702 540.6372 
L 276.149448 588.866822 
L 287.860434 504.208443 
L 293.715926 617.342822 
L 296.643673 583.47947 
L 304.450997 566.804335 
L 305.426912 539.611038 
L 306.402827 499.077632 
L 306.402827 604.259254 
L 314.210151 621.960551 
L 322.017475 611.95547 
L 322.99339 559.6212 
L 349.343108 517.03547 
L 356.174516 615.033957 
L 364.957756 550.1292 
L 382.524234 625.295578 
L 383.500149 575.783254 
L 385.45198 550.385741 
L 385.45198 602.976551 
L 407.898036 572.191686 
L 418.633106 508.826173 
L 419.609022 625.295578 
L 419.609022 572.961308 
L 421.560853 626.0652 
L 437.1755 618.368984 
L 438.151416 570.908984 
L 451.814232 555.516551 
L 453.766063 536.789092 
L 454.741979 541.919903 
L 455.717894 506.517308 
L 457.669725 538.328335 
L 463.525218 521.6532 
L 466.452964 566.804335 
L 466.452964 569.626281 
L 468.404795 590.662605 
L 488.89902 524.218605 
L 492.802682 573.98747 
L 496.706344 607.850822 
L 502.561836 527.553632 
L 504.513667 533.710605 
L 505.489583 502.412659 
L 516.224653 582.709849 
L 529.887469 612.468551 
L 534.767047 581.170605 
L 536.718878 591.432227 
L 543.550286 620.164768 
L 545.502117 521.909741 
L 546.478032 533.454065 
L 546.478032 563.469308 
L 547.453948 507.800011 
L 555.261272 616.060119 
L 580.635074 547.563795 
L 585.514651 552.951146 
L 613.8162 551.668443 
L 615.768031 538.841416 
L 618.695777 528.066714 
L 618.695777 560.647362 
L 621.623523 508.569632 
L 629.430847 617.855903 
L 630.406763 529.092876 
L 631.382678 499.334173 
L 632.358594 605.285416 
L 633.334509 592.458389 
L 635.28634 622.986714 
L 643.093664 573.73093 
L 649.925072 589.892984 
L 654.804649 574.757092 
L 668.467466 618.368984 
L 673.347043 522.422822 
L 676.27479 510.108876 
L 681.154367 500.360335 
L 690.913522 503.438822 
L 692.865353 567.830497 
L 696.769014 591.432227 
L 696.769014 625.039038 
L 696.769014 522.166281 
L 697.74493 550.898822 
L 701.648592 503.438822 
L 708.48 559.877741 
L 709.455915 552.951146 
L 710.431831 573.98747 
L 712.383662 586.557957 
L 725.070563 571.935146 
L 728.974225 589.636443 
L 731.901971 552.181524 
L 732.877887 585.275254 
L 737.757464 603.746173 
L 747.516619 501.386497 
L 748.492534 623.756335 
L 749.46845 595.280335 
L 753.372111 614.264335 
L 766.059013 541.663362 
L 771.914505 501.386497 
L 785.577322 598.615362 
L 788.505068 567.573957 
L 795.336477 594.767254 
L 795.336477 622.473632 
L 795.336477 526.014389 
L 808.999293 530.375578 
L 810.951124 576.552876 
L 825.589856 567.317416 
L 827.541687 536.789092 
L 835.349011 619.908227 
L 835.349011 519.600876 
L 841.204504 523.705524 
L 842.180419 623.243254 
L 867.554221 540.124119 
L 881.217038 569.882822 
L 886.096615 561.930065 
L 888.048446 621.19093 
L 890.000277 548.333416 
L 893.903939 500.616876 
L 895.85577 576.039795 
L 896.831685 603.489632 
L 899.759432 532.171362 
L 902.687178 572.191686 
L 905.614924 562.443146 
L 910.494502 536.01947 
L 916.349995 519.344335 
L 928.06098 509.082714 
L 929.036896 588.610281 
L 929.036896 603.746173 
L 936.844219 533.454065 
L 941.723797 499.334173 
L 942.699712 569.882822 
L 943.675628 583.992551 
L 948.555205 601.437308 
L 949.53112 625.552119 
L 951.482951 511.648119 
L 952.458867 539.097957 
L 958.31436 582.709849 
L 960.266191 610.159686 
L 962.218021 540.124119 
L 967.097599 568.856659 
L 973.929007 617.599362 
L 978.808584 549.616119 
L 978.808584 575.783254 
L 978.808584 574.244011 
L 981.736331 564.23893 
L 985.639993 536.789092 
L 1006.134218 516.009308 
L 1007.110133 596.819578 
L 1011.98971 605.285416 
L 1024.676611 606.311578 
L 1030.532104 583.47947 
L 1034.435766 556.286173 
L 1041.267174 615.033957 
L 1050.050414 567.060876 
L 1053.954075 514.983146 
L 1055.905906 625.039038 
L 1058.833653 585.788335 
L 1058.833653 522.679362 
L 1059.809568 580.914065 
L 1060.785484 538.584876 
L 1061.761399 611.442389 
L 1065.665061 613.238173 
L 1065.665061 563.982389 
L 1071.520554 595.280335 
L 1080.303793 571.422065 
L 1081.279709 591.175686 
L 1084.207455 516.77893 
L 1085.18337 577.322497 
L 1097.870271 598.615362 
L 1103.725764 539.097957 
L 1107.629426 613.494714 
L 1108.605342 537.815254 
L 1109.581257 525.501308 
L 1120.316327 559.877741 
L 1124.219989 511.648119 
L 1127.147735 571.422065 
L 1128.123651 502.925741 
L 1128.123651 607.850822 
L 1143.738298 583.736011 
L 1158.37703 602.20693 
L 1161.304777 620.164768 
L 1166.184354 530.888659 
L 1166.184354 560.903903 
L 1170.088016 599.898065 
L 1179.847171 547.307254 
L 1191.558156 523.962065 
L 1191.558156 551.668443 
L 1193.509987 529.092876 
L 1193.509987 623.243254 
L 1193.509987 509.595795 
L 1193.509987 509.595795 
" style="fill:none;stroke:#008000;stroke-linecap:square;stroke-opacity:0.6;stroke-width:1.5;"/>
   </g>
   <g id="line2d_17">
    <path clip-path="url(#p3a8861b197)" d="M 224.425928 387.225957 
L 232.233252 386.199795 
L 245.896069 441.612551 
L 248.823815 407.492659 
L 250.775646 466.496984 
L 254.679308 412.36693 
L 254.679308 405.440335 
L 268.342124 386.456335 
L 274.197617 418.010822 
L 278.101279 487.276768 
L 281.029025 437.764443 
L 282.004941 451.361092 
L 287.860434 404.414173 
L 288.836349 439.303686 
L 302.499166 397.744119 
L 302.499166 436.2252 
L 322.99339 457.004984 
L 324.945221 370.037741 
L 333.728461 479.324011 
L 333.728461 426.220119 
L 337.632122 469.062389 
L 341.535784 410.058065 
L 346.415362 459.057308 
L 348.367193 391.330605 
L 357.150432 431.60747 
L 361.054094 404.670714 
L 362.030009 494.203362 
L 366.909586 459.057308 
L 369.837333 375.168551 
L 386.427896 416.471578 
L 388.379727 423.398173 
L 395.211135 381.068984 
L 400.090712 418.523903 
L 402.042543 393.38293 
L 404.97029 415.188876 
L 405.946205 386.456335 
L 409.849867 408.518822 
L 412.777613 391.843686 
L 413.753529 402.361849 
L 422.536768 477.784768 
L 431.320007 464.957741 
L 433.271838 460.596551 
L 436.199585 405.183795 
L 436.199585 428.528984 
L 439.127331 410.571146 
L 444.982824 470.345092 
L 448.886486 470.088551 
L 464.501133 393.38293 
L 467.42888 450.078389 
L 481.091696 390.047903 
L 483.043527 413.393092 
L 485.971273 432.890173 
L 499.63409 401.848768 
L 499.63409 438.020984 
L 506.465498 452.900335 
L 507.441414 429.811686 
L 509.393245 430.837849 
L 511.345076 410.827686 
L 512.320991 407.236119 
L 515.248737 382.351686 
L 520.128315 465.214281 
L 521.10423 440.073308 
L 536.718878 493.946822 
L 546.478032 491.894497 
L 564.044511 477.271686 
L 569.900004 390.817524 
L 573.803666 451.874173 
L 598.201552 468.549308 
L 599.177468 471.627795 
L 608.936622 422.628551 
L 610.888453 380.042822 
L 610.888453 437.251362 
L 614.792115 430.068227 
L 628.454932 391.843686 
L 630.406763 494.203362 
L 636.262255 491.381416 
L 644.069579 435.968659 
L 649.925072 380.812443 
L 654.804649 477.528227 
L 661.636058 452.900335 
L 671.395212 470.601632 
L 678.226621 490.355254 
L 680.178451 436.738281 
L 698.720845 410.058065 
L 701.648592 445.204119 
L 711.407746 430.324768 
L 722.142817 408.005741 
L 723.118732 387.225957 
L 723.118732 394.409092 
L 727.022394 389.021741 
L 730.926056 482.402497 
L 744.588872 411.597308 
L 746.540703 464.957741 
L 749.46845 407.236119 
L 753.372111 383.89093 
L 754.348027 430.324768 
L 758.251689 412.62347 
L 765.083097 472.397416 
L 768.010844 465.470822 
L 771.914505 372.346605 
L 779.721829 416.471578 
L 780.697745 444.434497 
L 780.697745 375.425092 
L 781.67366 472.140876 
L 782.649576 453.669957 
L 787.529153 391.330605 
L 791.432815 411.597308 
L 791.432815 420.832768 
L 792.40873 434.172876 
L 795.336477 463.161957 
L 798.264223 496.768768 
L 800.216054 446.230281 
L 808.999293 371.063903 
L 816.806617 388.508659 
L 817.782532 404.927254 
L 821.686194 390.817524 
L 822.66211 462.648876 
L 825.589856 472.653957 
L 828.517602 422.11547 
L 831.445349 433.403254 
L 843.156334 418.523903 
L 848.035912 491.381416 
L 852.915489 462.135795 
L 865.60239 480.863254 
L 877.313376 484.711362 
L 877.313376 442.895254 
L 880.241122 477.015146 
L 881.217038 442.895254 
L 887.072531 419.036984 
L 889.024361 380.555903 
L 890.976192 396.974497 
L 891.952108 372.603146 
L 898.783516 369.7812 
L 903.663093 378.760119 
L 908.542671 390.047903 
L 909.518586 488.30293 
L 912.446333 487.276768 
L 929.036896 409.288443 
L 930.988727 465.727362 
L 931.964642 385.173632 
L 932.940557 378.247038 
L 941.723797 436.481741 
L 941.723797 491.381416 
L 942.699712 432.377092 
L 945.627459 432.890173 
L 949.53112 474.1932 
L 955.386613 394.922173 
L 957.338444 474.1932 
L 961.242106 451.104551 
L 965.145768 482.915578 
L 973.929007 424.167795 
L 977.832669 478.554389 
L 978.808584 387.995578 
L 980.760415 471.627795 
L 984.664077 444.434497 
L 988.567739 423.911254 
L 995.399147 482.659038 
L 996.375063 436.738281 
L 1000.278725 472.140876 
L 1007.110133 444.947578 
L 1009.061964 473.167038 
L 1013.941541 448.795686 
L 1017.845203 392.100227 
L 1022.72478 445.973741 
L 1024.676611 372.603146 
L 1029.556189 401.335686 
L 1030.532104 395.435254 
L 1030.532104 404.927254 
L 1033.459851 465.727362 
L 1040.291259 485.737524 
L 1042.24309 370.550822 
L 1053.954075 400.309524 
L 1055.905906 466.240443 
L 1060.785484 371.320443 
L 1063.71323 428.785524 
L 1070.544638 392.100227 
L 1081.279709 397.487578 
L 1083.231539 451.361092 
L 1087.135201 424.937416 
L 1088.111117 453.926497 
L 1098.846187 379.2732 
L 1121.292243 391.330605 
L 1121.292243 431.864011 
L 1133.003228 399.283362 
L 1139.834637 450.848011 
L 1148.617876 418.267362 
L 1150.569707 454.439578 
L 1172.039847 467.266605 
L 1173.015762 480.606714 
L 1175.943509 400.052984 
L 1177.89534 441.356011 
L 1179.847171 377.477416 
L 1180.823086 410.571146 
L 1183.750833 399.283362 
L 1184.726748 482.659038 
L 1187.654494 374.65547 
L 1188.63041 376.451254 
L 1189.606325 415.445416 
L 1189.606325 475.988984 
L 1195.461818 481.632876 
L 1195.461818 481.632876 
" style="fill:none;stroke:#bf00bf;stroke-linecap:square;stroke-opacity:0.6;stroke-width:1.5;"/>
   </g>
   <g id="line2d_18">
    <path clip-path="url(#p3a8861b197)" d="M 237.112829 295.384443 
L 244.920153 293.8452 
L 247.847899 324.116984 
L 247.847899 285.379362 
L 256.631139 361.571903 
L 257.607054 349.514497 
L 264.438462 349.001416 
L 269.31804 360.802281 
L 276.149448 318.473092 
L 280.05311 322.3212 
L 289.812265 295.127903 
L 293.715926 257.672984 
L 299.571419 331.300119 
L 306.402827 365.676551 
L 318.113813 369.268119 
L 318.113813 283.583578 
L 325.921137 244.332876 
L 333.728461 277.426605 
L 349.343108 356.184551 
L 370.813248 295.384443 
L 374.71691 260.75147 
L 376.668741 300.771795 
L 378.620572 344.383686 
L 380.572403 279.222389 
L 382.524234 253.311795 
L 383.500149 289.997092 
L 385.45198 282.813957 
L 394.23522 362.854605 
L 397.162966 325.143146 
L 399.114797 271.269632 
L 402.042543 249.720227 
L 409.849867 338.483254 
L 410.825782 270.756551 
L 410.825782 358.749957 
L 417.657191 246.641741 
L 420.584937 279.47893 
L 423.512684 361.058822 
L 425.464514 352.849524 
L 428.392261 291.023254 
L 432.295923 362.341524 
L 437.1755 352.849524 
L 437.1755 254.594497 
L 441.079162 318.729632 
L 446.934655 254.851038 
L 447.91057 277.426605 
L 447.91057 311.033416 
L 449.862401 366.702714 
L 450.838317 338.996335 
L 451.814232 336.68747 
L 454.741979 306.672227 
L 456.693809 315.907686 
L 465.477049 353.106065 
L 472.308457 311.033416 
L 480.115781 252.029092 
L 485.971273 278.709308 
L 487.923104 323.090822 
L 492.802682 367.985416 
L 495.730428 352.592984 
L 496.706344 271.782714 
L 501.585921 344.896768 
L 503.537752 289.740551 
L 510.36916 254.851038 
L 511.345076 252.029092 
L 514.272822 363.111146 
L 517.200568 346.949092 
L 525.007892 251.00293 
L 526.959723 246.898281 
L 532.815216 292.049416 
L 538.670709 340.535578 
L 540.62254 307.441849 
L 549.405779 341.561741 
L 550.381694 275.374281 
L 562.09268 338.226714 
L 563.068595 278.709308 
L 573.803666 367.472335 
L 574.779581 253.824876 
L 578.683243 252.798714 
L 582.586905 291.536335 
L 583.56282 360.802281 
L 588.442398 297.949849 
L 593.321975 289.22747 
L 594.29789 300.515254 
L 597.225637 251.25947 
L 598.201552 358.493416 
L 604.057045 342.074822 
L 609.912538 244.076335 
L 629.430847 300.771795 
L 633.334509 279.992011 
L 635.28634 340.535578 
L 635.28634 291.792876 
L 640.165917 293.588659 
L 641.141833 355.158389 
L 649.925072 331.043578 
L 650.900987 288.714389 
L 653.828734 256.646822 
L 657.732396 253.311795 
L 659.684227 314.624984 
L 661.636058 365.420011 
L 663.587889 245.359038 
L 671.395212 304.876443 
L 687.00986 325.143146 
L 689.937606 295.127903 
L 692.865353 271.269632 
L 699.696761 290.510173 
L 700.672676 324.373524 
L 702.624507 243.819795 
L 703.600423 272.552335 
L 712.383662 360.2892 
L 718.239155 338.739795 
L 727.022394 293.332119 
L 729.95014 293.588659 
L 729.95014 269.217308 
L 730.926056 361.828443 
L 738.733379 245.359038 
L 743.612957 252.285632 
L 764.107182 276.143903 
L 764.107182 266.651903 
L 765.083097 332.839362 
L 769.962674 358.493416 
L 777.769998 263.573416 
L 785.577322 251.00293 
L 801.191969 241.76747 
L 808.023378 296.923686 
L 811.92704 324.886605 
L 815.830701 326.93893 
L 818.758448 312.572659 
L 828.517602 325.143146 
L 833.39718 315.394605 
L 835.349011 319.499254 
L 837.300842 331.300119 
L 845.108165 355.41493 
L 849.011827 331.556659 
L 857.795066 291.279795 
L 858.770982 264.086497 
L 864.626475 356.184551 
L 865.60239 252.798714 
L 870.481968 336.944011 
L 871.457883 261.264551 
L 874.385629 308.724551 
L 878.289291 302.054497 
L 883.168869 264.086497 
L 889.024361 294.871362 
L 895.85577 248.694065 
L 902.687178 253.311795 
L 906.59084 289.484011 
L 910.494502 350.284119 
L 919.277741 242.793632 
L 919.277741 291.023254 
L 928.06098 284.096659 
L 928.06098 367.985416 
L 931.964642 326.93893 
L 943.675628 346.692551 
L 948.555205 293.332119 
L 950.507036 346.949092 
L 950.507036 317.70347 
L 951.482951 272.552335 
L 962.218021 270.500011 
L 964.169852 253.568335 
L 965.145768 308.981092 
L 966.121683 289.22747 
L 967.097599 364.650389 
L 973.929007 257.159903 
L 973.929007 363.367686 
L 976.856754 285.379362 
L 977.832669 253.055254 
L 981.736331 319.242714 
L 983.688162 246.128659 
L 991.495486 273.578497 
L 994.423232 343.100984 
L 1006.134218 271.782714 
L 1019.797034 300.002173 
L 1035.411682 294.614822 
L 1040.291259 336.43093 
L 1044.194921 276.400443 
L 1052.002244 357.467254 
L 1052.97816 290.510173 
L 1053.954075 279.222389 
L 1058.833653 274.8612 
L 1063.71323 355.928011 
L 1067.616892 323.090822 
L 1083.231539 254.594497 
L 1095.918441 316.164227 
L 1097.870271 272.039254 
L 1107.629426 323.347362 
L 1109.581257 241.76747 
L 1125.195905 316.420768 
L 1126.17182 335.148227 
L 1133.979144 358.493416 
L 1136.90689 259.981849 
L 1137.882806 292.049416 
L 1137.882806 296.154065 
L 1144.714214 330.787038 
L 1155.449284 266.395362 
L 1157.401115 334.122065 
L 1164.232523 341.818281 
L 1168.136185 351.823362 
L 1171.063931 361.058822 
L 1189.606325 275.374281 
L 1191.558156 303.593741 
L 1191.558156 303.593741 
" style="fill:none;stroke:#bfbf00;stroke-linecap:square;stroke-opacity:0.6;stroke-width:1.5;"/>
   </g>
   <g id="line2d_19">
    <path clip-path="url(#p3a8861b197)" d="M 221.498182 171.988443 
L 222.474097 181.993524 
L 233.209167 202.773308 
L 236.136914 175.836551 
L 240.040576 124.271903 
L 241.992407 161.470281 
L 252.727477 180.710822 
L 256.631139 237.919362 
L 259.558885 187.637416 
L 264.438462 187.893957 
L 265.414378 175.06693 
L 273.221702 154.287146 
L 282.004941 187.893957 
L 294.691842 124.271903 
L 296.643673 122.219578 
L 298.595504 131.711578 
L 298.595504 144.282065 
L 305.426912 120.936876 
L 312.25832 189.689741 
L 313.234236 181.736984 
L 329.824799 118.884551 
L 332.752545 199.438281 
L 342.5117 156.852551 
L 343.487615 113.4972 
L 355.198601 223.040011 
L 358.126347 231.762389 
L 361.054094 120.423795 
L 362.030009 124.015362 
L 368.861417 155.056768 
L 369.837333 221.500768 
L 370.813248 181.223903 
L 372.765079 219.704984 
L 383.500149 189.689741 
L 385.45198 186.611254 
L 386.427896 226.118497 
L 387.403811 195.846714 
L 391.307473 195.846714 
L 395.211135 131.711578 
L 396.18705 151.208659 
L 398.138881 134.276984 
L 399.114797 122.9892 
L 400.090712 176.862714 
L 403.018459 206.877957 
L 404.97029 126.837308 
L 434.247754 180.967362 
L 435.223669 161.213741 
L 442.055077 127.60693 
L 446.934655 141.203578 
L 446.934655 120.680335 
L 447.91057 235.353957 
L 453.766063 205.338714 
L 455.717894 153.004443 
L 460.597471 188.407038 
L 461.573387 114.523362 
L 464.501133 179.9412 
L 464.501133 229.966605 
L 472.308457 206.621416 
L 475.236203 180.967362 
L 480.115781 208.673741 
L 481.091696 235.353957 
L 482.067612 233.558173 
L 489.874935 163.522605 
L 493.778597 172.501524 
L 495.730428 217.396119 
L 496.706344 181.223903 
L 503.537752 148.386714 
L 503.537752 163.779146 
L 505.489583 188.150497 
L 511.345076 182.763146 
L 512.320991 147.360551 
L 516.224653 194.30747 
L 530.863385 144.282065 
L 532.815216 224.066173 
L 536.718878 155.569849 
L 537.694793 186.867795 
L 540.62254 216.626497 
L 543.550286 176.093092 
L 545.502117 177.375795 
L 548.429863 149.925957 
L 548.429863 122.9892 
L 555.261272 181.736984 
L 574.779581 225.861957 
L 597.225637 153.260984 
L 598.201552 116.832227 
L 606.008876 197.899038 
L 609.912538 228.683903 
L 612.840284 183.276227 
L 617.719862 144.025524 
L 619.671692 183.019686 
L 640.165917 183.019686 
L 652.852818 236.123578 
L 664.563804 198.155578 
L 664.563804 240.228227 
L 666.515635 147.617092 
L 666.515635 169.679578 
L 668.467466 161.213741 
L 670.419297 191.998605 
L 687.00986 177.375795 
L 687.00986 230.992768 
L 692.865353 227.144659 
L 694.817183 211.239146 
L 699.696761 189.689741 
L 706.528169 240.484768 
L 711.407746 122.476119 
L 715.311408 148.386714 
L 721.166901 193.537849 
L 722.142817 215.600335 
L 726.046478 164.548768 
L 730.926056 170.705741 
L 740.68521 163.266065 
L 747.516619 203.286389 
L 757.275773 128.376551 
L 762.155351 219.704984 
L 765.083097 235.867038 
L 766.059013 194.564011 
L 768.986759 135.559686 
L 778.745914 164.292227 
L 780.697745 114.010281 
L 784.601406 125.811146 
L 789.480984 212.265308 
L 789.480984 179.9412 
L 791.432815 166.857632 
L 794.360561 185.328551 
L 795.336477 217.396119 
L 797.288308 205.851795 
L 798.264223 164.805308 
L 804.119716 175.06693 
L 806.071547 185.585092 
L 807.047462 117.858389 
L 826.565772 150.695578 
L 839.252673 214.317632 
L 840.228588 125.041524 
L 840.228588 162.239903 
L 841.204504 206.364876 
L 849.011827 221.757308 
L 858.770982 200.464443 
L 860.722813 225.605416 
L 860.722813 189.946281 
L 864.626475 171.218822 
L 871.457883 237.406281 
L 872.433799 137.35547 
L 875.361545 217.9092 
L 878.289291 161.470281 
L 882.192953 158.904876 
L 904.639009 116.062605 
L 904.639009 217.139578 
L 931.964642 172.501524 
L 933.916473 203.54293 
L 938.79605 214.830714 
L 949.53112 134.020443 
L 949.53112 195.333632 
L 955.386613 209.956443 
L 960.266191 198.9252 
L 964.169852 129.146173 
L 965.145768 206.364876 
L 968.073514 142.999362 
L 968.073514 159.161416 
L 975.880838 180.710822 
L 982.712246 198.155578 
L 984.664077 155.056768 
L 991.495486 163.779146 
L 1011.013795 235.610497 
L 1015.893372 180.197741 
L 1024.676611 175.580011 
L 1030.532104 160.187578 
L 1037.363512 205.595254 
L 1037.363512 217.139578 
L 1040.291259 208.160659 
L 1049.074498 198.9252 
L 1054.929991 223.296551 
L 1060.785484 151.4652 
L 1060.785484 123.758822 
L 1061.761399 157.878714 
L 1061.761399 183.789308 
L 1079.327878 158.648335 
L 1082.255624 159.417957 
L 1091.038863 178.658497 
L 1094.942525 127.60693 
L 1096.894356 156.596011 
L 1099.822102 219.448443 
L 1111.533088 135.046605 
L 1113.484919 204.312551 
L 1116.412665 217.652659 
L 1117.388581 160.187578 
L 1119.340412 178.401957 
L 1126.17182 136.329308 
L 1130.075482 159.931038 
L 1136.90689 154.030605 
L 1140.810552 149.669416 
L 1143.738298 206.364876 
L 1149.593791 164.035686 
L 1157.401115 130.172335 
L 1160.328861 217.139578 
L 1164.232523 163.009524 
L 1164.232523 137.35547 
L 1169.112101 184.55893 
L 1175.943509 156.852551 
L 1178.871255 134.790065 
L 1179.847171 151.208659 
L 1185.702664 188.920119 
L 1185.702664 188.920119 
" style="fill:none;stroke:#00bfff;stroke-linecap:square;stroke-opacity:0.6;stroke-width:1.5;"/>
   </g>
   <g id="patch_3">
    <path d="M 172.8 651.6936 
L 172.8 87.8688 
" style="fill:none;stroke:#000000;stroke-linecap:square;stroke-linejoin:miter;stroke-width:0.8;"/>
   </g>
   <g id="patch_4">
    <path d="M 1244.16 651.6936 
L 1244.16 87.8688 
" style="fill:none;stroke:#000000;stroke-linecap:square;stroke-linejoin:miter;stroke-width:0.8;"/>
   </g>
   <g id="patch_5">
    <path d="M 172.8 651.6936 
L 1244.16 651.6936 
" style="fill:none;stroke:#000000;stroke-linecap:square;stroke-linejoin:miter;stroke-width:0.8;"/>
   </g>
   <g id="patch_6">
    <path d="M 172.8 87.8688 
L 1244.16 87.8688 
" style="fill:none;stroke:#000000;stroke-linecap:square;stroke-linejoin:miter;stroke-width:0.8;"/>
   </g>
   <g id="text_18">
    <!-- Custimizing Lengends -->
    <g transform="translate(642.526875 81.8688)scale(0.12 -0.12)">
     <defs>
      <path d="M 4122 4306 
L 4122 3641 
Q 3803 3938 3442 4084 
Q 3081 4231 2675 4231 
Q 1875 4231 1450 3742 
Q 1025 3253 1025 2328 
Q 1025 1406 1450 917 
Q 1875 428 2675 428 
Q 3081 428 3442 575 
Q 3803 722 4122 1019 
L 4122 359 
Q 3791 134 3420 21 
Q 3050 -91 2638 -91 
Q 1578 -91 968 557 
Q 359 1206 359 2328 
Q 359 3453 968 4101 
Q 1578 4750 2638 4750 
Q 3056 4750 3426 4639 
Q 3797 4528 4122 4306 
z
" id="DejaVuSans-43" transform="scale(0.015625)"/>
      <path d="M 544 1381 
L 544 3500 
L 1119 3500 
L 1119 1403 
Q 1119 906 1312 657 
Q 1506 409 1894 409 
Q 2359 409 2629 706 
Q 2900 1003 2900 1516 
L 2900 3500 
L 3475 3500 
L 3475 0 
L 2900 0 
L 2900 538 
Q 2691 219 2414 64 
Q 2138 -91 1772 -91 
Q 1169 -91 856 284 
Q 544 659 544 1381 
z
M 1991 3584 
L 1991 3584 
z
" id="DejaVuSans-75" transform="scale(0.015625)"/>
      <path d="M 1172 4494 
L 1172 3500 
L 2356 3500 
L 2356 3053 
L 1172 3053 
L 1172 1153 
Q 1172 725 1289 603 
Q 1406 481 1766 481 
L 2356 481 
L 2356 0 
L 1766 0 
Q 1100 0 847 248 
Q 594 497 594 1153 
L 594 3053 
L 172 3053 
L 172 3500 
L 594 3500 
L 594 4494 
L 1172 4494 
z
" id="DejaVuSans-74" transform="scale(0.015625)"/>
      <path d="M 3328 2828 
Q 3544 3216 3844 3400 
Q 4144 3584 4550 3584 
Q 5097 3584 5394 3201 
Q 5691 2819 5691 2113 
L 5691 0 
L 5113 0 
L 5113 2094 
Q 5113 2597 4934 2840 
Q 4756 3084 4391 3084 
Q 3944 3084 3684 2787 
Q 3425 2491 3425 1978 
L 3425 0 
L 2847 0 
L 2847 2094 
Q 2847 2600 2669 2842 
Q 2491 3084 2119 3084 
Q 1678 3084 1418 2786 
Q 1159 2488 1159 1978 
L 1159 0 
L 581 0 
L 581 3500 
L 1159 3500 
L 1159 2956 
Q 1356 3278 1631 3431 
Q 1906 3584 2284 3584 
Q 2666 3584 2933 3390 
Q 3200 3197 3328 2828 
z
" id="DejaVuSans-6d" transform="scale(0.015625)"/>
      <path d="M 353 3500 
L 3084 3500 
L 3084 2975 
L 922 459 
L 3084 459 
L 3084 0 
L 275 0 
L 275 525 
L 2438 3041 
L 353 3041 
L 353 3500 
z
" id="DejaVuSans-7a" transform="scale(0.015625)"/>
      <path d="M 3513 2113 
L 3513 0 
L 2938 0 
L 2938 2094 
Q 2938 2591 2744 2837 
Q 2550 3084 2163 3084 
Q 1697 3084 1428 2787 
Q 1159 2491 1159 1978 
L 1159 0 
L 581 0 
L 581 3500 
L 1159 3500 
L 1159 2956 
Q 1366 3272 1645 3428 
Q 1925 3584 2291 3584 
Q 2894 3584 3203 3211 
Q 3513 2838 3513 2113 
z
" id="DejaVuSans-6e" transform="scale(0.015625)"/>
      <path d="M 2906 1791 
Q 2906 2416 2648 2759 
Q 2391 3103 1925 3103 
Q 1463 3103 1205 2759 
Q 947 2416 947 1791 
Q 947 1169 1205 825 
Q 1463 481 1925 481 
Q 2391 481 2648 825 
Q 2906 1169 2906 1791 
z
M 3481 434 
Q 3481 -459 3084 -895 
Q 2688 -1331 1869 -1331 
Q 1566 -1331 1297 -1286 
Q 1028 -1241 775 -1147 
L 775 -588 
Q 1028 -725 1275 -790 
Q 1522 -856 1778 -856 
Q 2344 -856 2625 -561 
Q 2906 -266 2906 331 
L 2906 616 
Q 2728 306 2450 153 
Q 2172 0 1784 0 
Q 1141 0 747 490 
Q 353 981 353 1791 
Q 353 2603 747 3093 
Q 1141 3584 1784 3584 
Q 2172 3584 2450 3431 
Q 2728 3278 2906 2969 
L 2906 3500 
L 3481 3500 
L 3481 434 
z
" id="DejaVuSans-67" transform="scale(0.015625)"/>
      <path d="M 628 4666 
L 1259 4666 
L 1259 531 
L 3531 531 
L 3531 0 
L 628 0 
L 628 4666 
z
" id="DejaVuSans-4c" transform="scale(0.015625)"/>
      <path d="M 3597 1894 
L 3597 1613 
L 953 1613 
Q 991 1019 1311 708 
Q 1631 397 2203 397 
Q 2534 397 2845 478 
Q 3156 559 3463 722 
L 3463 178 
Q 3153 47 2828 -22 
Q 2503 -91 2169 -91 
Q 1331 -91 842 396 
Q 353 884 353 1716 
Q 353 2575 817 3079 
Q 1281 3584 2069 3584 
Q 2775 3584 3186 3129 
Q 3597 2675 3597 1894 
z
M 3022 2063 
Q 3016 2534 2758 2815 
Q 2500 3097 2075 3097 
Q 1594 3097 1305 2825 
Q 1016 2553 972 2059 
L 3022 2063 
z
" id="DejaVuSans-65" transform="scale(0.015625)"/>
      <path d="M 2906 2969 
L 2906 4863 
L 3481 4863 
L 3481 0 
L 2906 0 
L 2906 525 
Q 2725 213 2448 61 
Q 2172 -91 1784 -91 
Q 1150 -91 751 415 
Q 353 922 353 1747 
Q 353 2572 751 3078 
Q 1150 3584 1784 3584 
Q 2172 3584 2448 3432 
Q 2725 3281 2906 2969 
z
M 947 1747 
Q 947 1113 1208 752 
Q 1469 391 1925 391 
Q 2381 391 2643 752 
Q 2906 1113 2906 1747 
Q 2906 2381 2643 2742 
Q 2381 3103 1925 3103 
Q 1469 3103 1208 2742 
Q 947 2381 947 1747 
z
" id="DejaVuSans-64" transform="scale(0.015625)"/>
     </defs>
     <use xlink:href="#DejaVuSans-43"/>
     <use x="69.824219" xlink:href="#DejaVuSans-75"/>
     <use x="133.203125" xlink:href="#DejaVuSans-73"/>
     <use x="185.302734" xlink:href="#DejaVuSans-74"/>
     <use x="224.511719" xlink:href="#DejaVuSans-69"/>
     <use x="252.294922" xlink:href="#DejaVuSans-6d"/>
     <use x="349.707031" xlink:href="#DejaVuSans-69"/>
     <use x="377.490234" xlink:href="#DejaVuSans-7a"/>
     <use x="429.980469" xlink:href="#DejaVuSans-69"/>
     <use x="457.763672" xlink:href="#DejaVuSans-6e"/>
     <use x="521.142578" xlink:href="#DejaVuSans-67"/>
     <use x="584.619141" xlink:href="#DejaVuSans-20"/>
     <use x="616.40625" xlink:href="#DejaVuSans-4c"/>
     <use x="670.369141" xlink:href="#DejaVuSans-65"/>
     <use x="731.892578" xlink:href="#DejaVuSans-6e"/>
     <use x="795.271484" xlink:href="#DejaVuSans-67"/>
     <use x="858.748047" xlink:href="#DejaVuSans-65"/>
     <use x="920.271484" xlink:href="#DejaVuSans-6e"/>
     <use x="983.650391" xlink:href="#DejaVuSans-64"/>
     <use x="1047.126953" xlink:href="#DejaVuSans-73"/>
    </g>
   </g>
   <g id="legend_1">
    <g id="patch_7">
     <path d="M 527.370625 140.22505 
L 889.589375 140.22505 
Q 891.589375 140.22505 891.589375 138.22505 
L 891.589375 94.8688 
Q 891.589375 92.8688 889.589375 92.8688 
L 527.370625 92.8688 
Q 525.370625 92.8688 525.370625 94.8688 
L 525.370625 138.22505 
Q 525.370625 140.22505 527.370625 140.22505 
z
" style="fill:#ffffff;opacity:0.8;stroke:#cccccc;stroke-linejoin:miter;"/>
    </g>
    <g id="text_19">
     <!-- Legend Title -->
     <g transform="translate(677.809687 104.467237)scale(0.1 -0.1)">
      <defs>
       <path d="M -19 4666 
L 3928 4666 
L 3928 4134 
L 2272 4134 
L 2272 0 
L 1638 0 
L 1638 4134 
L -19 4134 
L -19 4666 
z
" id="DejaVuSans-54" transform="scale(0.015625)"/>
       <path d="M 603 4863 
L 1178 4863 
L 1178 0 
L 603 0 
L 603 4863 
z
" id="DejaVuSans-6c" transform="scale(0.015625)"/>
      </defs>
      <use xlink:href="#DejaVuSans-4c"/>
      <use x="53.962891" xlink:href="#DejaVuSans-65"/>
      <use x="115.486328" xlink:href="#DejaVuSans-67"/>
      <use x="178.962891" xlink:href="#DejaVuSans-65"/>
      <use x="240.486328" xlink:href="#DejaVuSans-6e"/>
      <use x="303.865234" xlink:href="#DejaVuSans-64"/>
      <use x="367.341797" xlink:href="#DejaVuSans-20"/>
      <use x="399.128906" xlink:href="#DejaVuSans-54"/>
      <use x="457.087891" xlink:href="#DejaVuSans-69"/>
      <use x="484.871094" xlink:href="#DejaVuSans-74"/>
      <use x="524.080078" xlink:href="#DejaVuSans-6c"/>
      <use x="551.863281" xlink:href="#DejaVuSans-65"/>
     </g>
    </g>
    <g id="line2d_20">
     <path d="M 529.370625 130.645362 
L 549.370625 130.645362 
" style="fill:none;stroke:#008000;stroke-linecap:square;stroke-opacity:0.6;stroke-width:1.5;"/>
    </g>
    <g id="line2d_21"/>
    <g id="text_20">
     <!-- 0-500 -->
     <g transform="translate(557.370625 134.145362)scale(0.1 -0.1)">
      <defs>
       <path d="M 313 2009 
L 1997 2009 
L 1997 1497 
L 313 1497 
L 313 2009 
z
" id="DejaVuSans-2d" transform="scale(0.015625)"/>
      </defs>
      <use xlink:href="#DejaVuSans-30"/>
      <use x="63.623047" xlink:href="#DejaVuSans-2d"/>
      <use x="99.707031" xlink:href="#DejaVuSans-35"/>
      <use x="163.330078" xlink:href="#DejaVuSans-30"/>
      <use x="226.953125" xlink:href="#DejaVuSans-30"/>
     </g>
    </g>
    <g id="line2d_22">
     <path d="M 606.428437 130.645362 
L 626.428437 130.645362 
" style="fill:none;stroke:#bf00bf;stroke-linecap:square;stroke-opacity:0.6;stroke-width:1.5;"/>
    </g>
    <g id="line2d_23"/>
    <g id="text_21">
     <!-- 500-1000 -->
     <g transform="translate(634.428437 134.145362)scale(0.1 -0.1)">
      <use xlink:href="#DejaVuSans-35"/>
      <use x="63.623047" xlink:href="#DejaVuSans-30"/>
      <use x="127.246094" xlink:href="#DejaVuSans-30"/>
      <use x="190.869141" xlink:href="#DejaVuSans-2d"/>
      <use x="226.953125" xlink:href="#DejaVuSans-31"/>
      <use x="290.576172" xlink:href="#DejaVuSans-30"/>
      <use x="354.199219" xlink:href="#DejaVuSans-30"/>
      <use x="417.822266" xlink:href="#DejaVuSans-30"/>
     </g>
    </g>
    <g id="line2d_24">
     <path d="M 702.57375 130.645362 
L 722.57375 130.645362 
" style="fill:none;stroke:#bfbf00;stroke-linecap:square;stroke-opacity:0.6;stroke-width:1.5;"/>
    </g>
    <g id="line2d_25"/>
    <g id="text_22">
     <!-- 1000-1500 -->
     <g transform="translate(730.57375 134.145362)scale(0.1 -0.1)">
      <use xlink:href="#DejaVuSans-31"/>
      <use x="63.623047" xlink:href="#DejaVuSans-30"/>
      <use x="127.246094" xlink:href="#DejaVuSans-30"/>
      <use x="190.869141" xlink:href="#DejaVuSans-30"/>
      <use x="254.492188" xlink:href="#DejaVuSans-2d"/>
      <use x="290.576172" xlink:href="#DejaVuSans-31"/>
      <use x="354.199219" xlink:href="#DejaVuSans-35"/>
      <use x="417.822266" xlink:href="#DejaVuSans-30"/>
      <use x="481.445312" xlink:href="#DejaVuSans-30"/>
     </g>
    </g>
    <g id="line2d_26">
     <path d="M 805.081562 130.645362 
L 825.081562 130.645362 
" style="fill:none;stroke:#00bfff;stroke-linecap:square;stroke-opacity:0.6;stroke-width:1.5;"/>
    </g>
    <g id="line2d_27"/>
    <g id="text_23">
     <!-- 1500-2000 -->
     <g transform="translate(833.081562 134.145362)scale(0.1 -0.1)">
      <use xlink:href="#DejaVuSans-31"/>
      <use x="63.623047" xlink:href="#DejaVuSans-35"/>
      <use x="127.246094" xlink:href="#DejaVuSans-30"/>
      <use x="190.869141" xlink:href="#DejaVuSans-30"/>
      <use x="254.492188" xlink:href="#DejaVuSans-2d"/>
      <use x="290.576172" xlink:href="#DejaVuSans-32"/>
      <use x="354.199219" xlink:href="#DejaVuSans-30"/>
      <use x="417.822266" xlink:href="#DejaVuSans-30"/>
      <use x="481.445312" xlink:href="#DejaVuSans-30"/>
     </g>
    </g>
   </g>
  </g>
 </g>
 <defs>
  <clipPath id="p3a8861b197">
   <rect height="563.8248" width="1071.36" x="172.8" y="87.8688"/>
  </clipPath>
 </defs>
</svg>
